<mxfile host="65bd71144e" scale="1" border="20">
    <diagram id="s1At5R3NlSmAABZKwiCI" name="Page-1">
        <mxGraphModel dx="1141" dy="439" grid="0" gridSize="10" guides="1" tooltips="1" connect="1" arrows="1" fold="0" page="1" pageScale="1" pageWidth="1169" pageHeight="827" background="none" math="1" shadow="1">
            <root>
                <mxCell id="0"/>
                <mxCell id="1" parent="0"/>
                <mxCell id="56" value="" style="group;labelPosition=center;verticalLabelPosition=top;align=center;verticalAlign=bottom;movable=1;resizable=1;rotatable=1;deletable=1;editable=1;connectable=1;labelBackgroundColor=none;labelBorderColor=default;html=1;whiteSpace=wrap;fillColor=default;fontColor=#ffffff;strokeColor=#001DBC;gradientColor=default;gradientDirection=north;container=0;" parent="1" vertex="1" connectable="0">
                    <mxGeometry x="4" width="1156" height="821" as="geometry"/>
                </mxCell>
                <mxCell id="101" value="" style="group;labelBackgroundColor=default;" parent="1" vertex="1" connectable="0">
                    <mxGeometry x="16" y="50" width="1127" height="727" as="geometry"/>
                </mxCell>
                <mxCell id="13" value="" style="rounded=1;whiteSpace=wrap;html=1;fillColor=none;dashed=1;dashPattern=8 8;strokeColor=#1BA1E2;fontColor=#ffffff;movable=1;resizable=1;rotatable=1;deletable=1;editable=1;connectable=1;" parent="101" vertex="1">
                    <mxGeometry x="490.02798140770255" y="179.33962629645998" width="636.9720185922976" height="437.4546024614584" as="geometry"/>
                </mxCell>
                <mxCell id="5" value="Server" style="rounded=1;whiteSpace=wrap;html=1;fillColor=#60a917;fontColor=#ffffff;strokeColor=#2D7600;shadow=1;movable=1;resizable=1;rotatable=1;deletable=1;editable=1;connectable=1;" parent="101" vertex="1">
                    <mxGeometry x="527.3264293288507" y="347.9024200776903" width="223.79901509977756" height="121.36130932942687" as="geometry"/>
                </mxCell>
                <mxCell id="6" value="&lt;font color=&quot;#ffffff&quot;&gt;Frontend&lt;/font&gt;" style="rounded=1;html=1;fillColor=#403F44;gradientColor=#1E1B32;gradientDirection=south;glass=0;shadow=1;labelBackgroundColor=none;labelBorderColor=none;whiteSpace=wrap;fontStyle=0;movable=1;resizable=1;rotatable=1;deletable=1;editable=1;connectable=1;" parent="101" vertex="1">
                    <mxGeometry x="79.72839912929575" y="343.99863129426035" width="223.79901509977756" height="121.36130932942687" as="geometry"/>
                </mxCell>
                <mxCell id="15" style="edgeStyle=none;html=1;exitX=0;exitY=0.5;exitDx=0;exitDy=0;startArrow=block;startFill=1;endArrow=block;endFill=1;rounded=1;movable=1;resizable=1;rotatable=1;deletable=1;editable=1;connectable=1;" parent="101" source="8" edge="1">
                    <mxGeometry relative="1" as="geometry">
                        <mxPoint x="751.1254444286282" y="408.58307474240394" as="targetPoint"/>
                        <Array as="points">
                            <mxPoint x="829.1606905710495" y="293.312472914771"/>
                            <mxPoint x="825.7251161285543" y="408.58307474240394"/>
                        </Array>
                    </mxGeometry>
                </mxCell>
                <mxCell id="8" value="Worker1" style="rounded=1;whiteSpace=wrap;html=1;fillColor=#008a00;fontColor=#ffffff;strokeColor=#005700;movable=1;resizable=1;rotatable=1;deletable=1;editable=1;connectable=1;" parent="101" vertex="1">
                    <mxGeometry x="900.3278220451529" y="246.93558076876113" width="159.32158034528555" height="92.25096290987997" as="geometry"/>
                </mxCell>
                <mxCell id="11" value="" style="html=1;rounded=1;movable=1;resizable=1;rotatable=1;deletable=1;editable=1;connectable=1;" parent="101" source="5" edge="1">
                    <mxGeometry relative="1" as="geometry">
                        <Array as="points">
                            <mxPoint x="825.7251161285543" y="408.58307474240394"/>
                        </Array>
                        <mxPoint x="900.3247878284799" y="408.58307474240394" as="targetPoint"/>
                    </mxGeometry>
                </mxCell>
                <mxCell id="14" value="" style="edgeStyle=none;html=1;endArrow=block;endFill=1;startArrow=block;startFill=1;rounded=1;movable=1;resizable=1;rotatable=1;deletable=1;editable=1;connectable=1;" parent="101" source="13" target="6" edge="1">
                    <mxGeometry relative="1" as="geometry"/>
                </mxCell>
                <mxCell id="16" style="edgeStyle=none;html=1;startArrow=block;startFill=1;endArrow=block;endFill=1;entryX=1;entryY=0.5;entryDx=0;entryDy=0;rounded=1;exitX=0;exitY=0.5;exitDx=0;exitDy=0;movable=1;resizable=1;rotatable=1;deletable=1;editable=1;connectable=1;" parent="101" source="92" target="5" edge="1">
                    <mxGeometry relative="1" as="geometry">
                        <mxPoint x="877.0544488711823" y="589.9770883771395" as="sourcePoint"/>
                        <mxPoint x="751.1254444286282" y="772.6670027306844" as="targetPoint"/>
                        <Array as="points">
                            <mxPoint x="859.0942895086324" y="514.5538810561983"/>
                            <mxPoint x="826.167330677291" y="514.5538810561983"/>
                            <mxPoint x="825.7251161285543" y="408.58307474240394"/>
                        </Array>
                    </mxGeometry>
                </mxCell>
                <mxCell id="20" value="Puppeteer" style="shape=image;verticalLabelPosition=bottom;labelBackgroundColor=none;verticalAlign=top;aspect=fixed;imageAspect=0;image=data:image/svg+xml,PHN2ZyB4bWxuczp4bGluaz0iaHR0cDovL3d3dy53My5vcmcvMTk5OS94bGluayIgeG1sbnM9Imh0dHA6Ly93d3cudzMub3JnLzIwMDAvc3ZnIiBwcmVzZXJ2ZUFzcGVjdFJhdGlvPSJ4TWlkWU1pZCIgdmVyc2lvbj0iMS4xIiB2aWV3Qm94PSItOC41MjY1MTI4MjkxMjEyMDJlLTE0IDIuOTgwMjMyMjM4NzY5NTMxMmUtOCAyNTYgMzgyLjE0NTUwNzgxMjUiIGhlaWdodD0iMzgyLjE0NTUwNzgxMjUiIHdpZHRoPSIyNTYiPgoJCTxnPgoJCQkJPHBhdGggZmlsbD0iI0RGREVERiIgZD0iTTI1My40MjE2LDIxNC4yNDYxMTcgTDIuMTkxNiwyMTQuMjQ2MTE3IEwyLjE5MTYsMjAwLjA3ODExNyBDMi4xOTE2LDE5MC41NTgxMTcgOS45MDg2LDE4Mi44NDExMTcgMTkuNDI3NiwxODIuODQxMTE3IEwyMzYuMTg0NiwxODIuODQxMTE3IEMyNDUuNzA0NiwxODIuODQxMTE3IDI1My40MjE2LDE5MC41NTgxMTcgMjUzLjQyMTYsMjAwLjA3ODExNyBMMjUzLjQyMTYsMjE0LjI0NjExNyBaIi8+CgkJCQk8cGF0aCBmaWxsPSIjRkZGRkZGIiBkPSJNMjM1LjkxOTIsMzc4LjU1MjgxNyBMMTkuNjkzMiwzNzguNTUyODE3IEMxMC4wMjcyLDM3OC41NTI4MTcgMi4xOTEyLDM3MC43MTY4MTcgMi4xOTEyLDM2MS4wNTA4MTcgTDIuMTkxMiwyMTQuMjQ1ODE3IEwyNTMuNDIxMiwyMTQuMjQ1ODE3IEwyNTMuNDIxMiwzNjEuMDUwODE3IEMyNTMuNDIxMiwzNzAuNzE2ODE3IDI0NS41ODYyLDM3OC41NTI4MTcgMjM1LjkxOTIsMzc4LjU1MjgxNyIvPgoJCQkJPHBhdGggZmlsbD0iIzAwMDAwMCIgZD0iTTI1MC4zMDIsMjExLjM5NzUxNyBMMjUwLjMwMiwxOTguNjkxNTE3IEMyNTAuMzAyLDE5MS4xOTA1MTcgMjQ0LjIyMiwxODUuMTA5NTE3IDIzNi43MjEsMTg1LjEwOTUxNyBMMTkuMjc5LDE4NS4xMDk1MTcgQzExLjc3OCwxODUuMTA5NTE3IDUuNjk4LDE5MS4xOTA1MTcgNS42OTgsMTk4LjY5MTUxNyBMNS42OTgsMjExLjM5NzUxNyBMMjUwLjMwMiwyMTEuMzk3NTE3IFogTTI1MC4zMDIsMzYyLjg2NjUxNyBMMjUwLjMwMiwyMTcuMDk1NTE3IEw1LjY5OCwyMTcuMDk1NTE3IEw1LjY5OCwzNjIuODY2NTE3IEM1LjY5OCwzNzAuMzY3NTE3IDExLjc3OCwzNzYuNDQ3NTE3IDE5LjI3OSwzNzYuNDQ3NTE3IEwyMzYuNzIxLDM3Ni40NDc1MTcgQzI0NC4yMjIsMzc2LjQ0NzUxNyAyNTAuMzAyLDM3MC4zNjc1MTcgMjUwLjMwMiwzNjIuODY2NTE3IFogTTIwLjU1NCwxNzkuNDEyNTE3IEwyMS40LDE3MC4xNzY1MTcgTDE3LjgwOCwxNzkuNDg2NTE3IEMxOC4yOTUsMTc5LjQ0OTUxNyAxOC43ODIsMTc5LjQxMjUxNyAxOS4yNzksMTc5LjQxMjUxNyBMMjAuNTU0LDE3OS40MTI1MTcgWiBNMjMzLjk1NSwxNjMuODQyNTE3IEwyMzUuMjA5LDE3OS40MTI1MTcgTDIzNi43MjEsMTc5LjQxMjUxNyBDMjM3LjUzLDE3OS40MTI1MTcgMjM4LjMyMiwxNzkuNDc4NTE3IDIzOS4xMDUsMTc5LjU3NTUxNyBMMjMzLjk1NSwxNjMuODQyNTE3IFogTTI1MS4yMDIsMTg2LjAwNjUxNyBDMjU0LjE3OSwxODkuNDAwNTE3IDI1NiwxOTMuODMyNTE3IDI1NiwxOTguNjkxNTE3IEwyNTYsMzYyLjg2NjUxNyBDMjU2LDM3My40OTc1MTcgMjQ3LjM1MSwzODIuMTQ1NTE3IDIzNi43MjEsMzgyLjE0NTUxNyBMMTkuMjc5LDM4Mi4xNDU1MTcgQzguNjQ5LDM4Mi4xNDU1MTcgLTguNTI2NTEyODNlLTE0LDM3My40OTc1MTcgLTguNTI2NTEyODNlLTE0LDM2Mi44NjY1MTcgTC04LjUyNjUxMjgzZS0xNCwxOTguNjkxNTE3IEMtOC41MjY1MTI4M2UtMTQsMTkzLjUzOTUxNyAyLjA0MywxODguODY0NTE3IDUuMzQ3LDE4NS40MDE1MTcgTDI0LjU2NywxMzUuNTg0NTE3IEwzMi45NDgsNDQuMDMwNTE2NyBMNDIuNDA0LDQ0Ljg5NTUxNjcgTDM0Ljg1MiwxMjcuMzg3NTE3IEwzNy41MTIsMTI4LjQxMzUxNyBMMzMuOTAyLDEzNy43NzE1MTcgTDMwLjA5LDE3OS40MTI1MTcgTDIyNS42ODMsMTc5LjQxMjUxNyBMMjE0LjgyOSw0NC42Njc1MTY3IEwyMjQuMjkzLDQzLjkwNDUxNjcgTDIzMC42OTUsMTIzLjM3MzUxNyBMMjMwLjY5OSwxMjMuMzcyNTE3IEwyNTEuMjAyLDE4Ni4wMDY1MTcgWiBNMjEuMTU2NSwxOTQuMzk2NTE3IEMyMy41MzI1LDE5NC4zOTY1MTcgMjUuNDU4NSwxOTYuMzIyNTE3IDI1LjQ1ODUsMTk4LjY5ODUxNyBDMjUuNDU4NSwyMDEuMDc0NTE3IDIzLjUzMjUsMjAzLjAwMDUxNyAyMS4xNTY1LDIwMy4wMDA1MTcgQzE4Ljc4MDUsMjAzLjAwMDUxNyAxNi44NTQ1LDIwMS4wNzQ1MTcgMTYuODU0NSwxOTguNjk4NTE3IEMxNi44NTQ1LDE5Ni4zMjI1MTcgMTguNzgwNSwxOTQuMzk2NTE3IDIxLjE1NjUsMTk0LjM5NjUxNyBaIE0zNS44NjQ1LDE5NC4zOTY1MTcgQzM4LjI0MDUsMTk0LjM5NjUxNyA0MC4xNjY1LDE5Ni4zMjI1MTcgNDAuMTY2NSwxOTguNjk4NTE3IEM0MC4xNjY1LDIwMS4wNzQ1MTcgMzguMjQwNSwyMDMuMDAwNTE3IDM1Ljg2NDUsMjAzLjAwMDUxNyBDMzMuNDg4NSwyMDMuMDAwNTE3IDMxLjU2MjUsMjAxLjA3NDUxNyAzMS41NjI1LDE5OC42OTg1MTcgQzMxLjU2MjUsMTk2LjMyMjUxNyAzMy40ODg1LDE5NC4zOTY1MTcgMzUuODY0NSwxOTQuMzk2NTE3IFogTTUwLjEwOTEsMTk0LjM5NjUxNyBDNTIuNDg1MSwxOTQuMzk2NTE3IDU0LjQxMTEsMTk2LjMyMjUxNyA1NC40MTExLDE5OC42OTg1MTcgQzU0LjQxMTEsMjAxLjA3NDUxNyA1Mi40ODUxLDIwMy4wMDA1MTcgNTAuMTA5MSwyMDMuMDAwNTE3IEM0Ny43MzMxLDIwMy4wMDA1MTcgNDUuODA3MSwyMDEuMDc0NTE3IDQ1LjgwNzEsMTk4LjY5ODUxNyBDNDUuODA3MSwxOTYuMzIyNTE3IDQ3LjczMzEsMTk0LjM5NjUxNyA1MC4xMDkxLDE5NC4zOTY1MTcgWiIvPgoJCQkJPHBhdGggZmlsbD0iIzAwMDAwMCIgZD0iTTM2LjAyMTcsMjg3Ljc0ODExNyBDMzYuNzYwNywyODYuODkzMTE3IDM3LjE0OTcsMjg1Ljc2OTExNyAzNy4xNDk3LDI4NC4zNzQxMTcgQzM3LjE0OTcsMjgyLjk3ODExNyAzNi43NjA3LDI4MS44OTkxMTcgMzYuMDIxNywyODEuMDQ0MTE3IEMzNS4yNDM3LDI4MC4xODkxMTcgMzQuMTUzNywyNzkuNzg0MTE3IDMyLjc1MzcsMjc5Ljc4NDExNyBMMjUuOTA2NywyNzkuNzg0MTE3IEwyNS45MDY3LDI4OS4wMDcxMTcgTDMyLjc1MzcsMjg5LjAwNzExNyBDMzQuMTUzNywyODkuMDA3MTE3IDM1LjI0MzcsMjg4LjYwMjExNyAzNi4wMjE3LDI4Ny43NDgxMTcgWiBNMzIuNzUzNywyNzQuMjUxMTE3IEMzNS43MDk3LDI3NC4yNTExMTcgMzguMDQ0NywyNzUuMTUxMTE3IDM5Ljc5NDcsMjc2Ljk5NTExNyBDNDEuNTQ1NywyNzguODM5MTE3IDQyLjQwMTcsMjgxLjMxMzExNyA0Mi40MDE3LDI4NC4zNzQxMTcgQzQyLjQwMTcsMjg3LjQ3NzExNyA0MS41NDU3LDI4OS45MDcxMTcgMzkuODM0NywyOTEuNzUxMTE3IEMzOC4wODM3LDI5My41OTcxMTcgMzUuNzQ5NywyOTQuNTQxMTE3IDMyLjc1MzcsMjk0LjU0MTExNyBMMjUuOTA2NywyOTQuNTQxMTE3IEwyNS45MDY3LDMwNi45NTUxMTcgTDIwLjYxNTcsMzA2Ljk1NTExNyBMMjAuNjE1NywyNzQuMjUxMTE3IEwzMi43NTM3LDI3NC4yNTExMTcgWiBNNjEuMjk4MSwyOTQuMzA3NjE3IEw2MS4yOTgxLDI4NC43Njc2MTcgTDY2Ljk5NjEsMjg0Ljc2NzYxNyBMNjYuOTk2MSwzMDYuMzA3NjE3IEw2MS4yOTgxLDMwNi4zMDc2MTcgTDYxLjI5ODEsMzA0LjM2NTYxNyBDNTkuNTcxMSwzMDYuMDkxNjE3IDU3LjMyNzEsMzA2Ljk1NDYxNyA1NC41MjExLDMwNi45NTQ2MTcgQzUxLjkzMTEsMzA2Ljk1NDYxNyA0OS44NTkxLDMwNi4wOTE2MTcgNDguMjYyMSwzMDQuNDA4NjE3IEM0Ni42NjUxLDMwMi43MjU2MTcgNDUuODg4MSwzMDAuNTY2NjE3IDQ1Ljg4ODEsMjk3Ljg5MDYxNyBMNDUuODg4MSwyODQuNzY3NjE3IEw1MS41ODYxLDI4NC43Njc2MTcgTDUxLjU4NjEsMjk2LjY4MTYxNyBDNTEuNTg2MSwyOTguMTkyNjE3IDUxLjk3NDEsMjk5LjQ0NDYxNyA1Mi43OTQxLDMwMC4zNTE2MTcgQzUzLjU3MTEsMzAxLjI1NzYxNyA1NC42MDcxLDMwMS43MzI2MTcgNTUuOTQ1MSwzMDEuNzMyNjE3IEM1OS41MjgxLDMwMS43MzI2MTcgNjEuMjk4MSwyOTkuMjcxNjE3IDYxLjI5ODEsMjk0LjMwNzYxNyBaIE04OS4yMjQzLDMwMC4yMjE3MTcgQzkwLjM0NjMsMjk5LjA1NTcxNyA5MC45MDczLDI5Ny41MDE3MTcgOTAuOTA3MywyOTUuNTU5NzE3IEM5MC45MDczLDI5My42MTc3MTcgOTAuMzQ2MywyOTIuMDE5NzE3IDg5LjIyNDMsMjkwLjg1NDcxNyBDODguMDU4MywyODkuNjg4NzE3IDg2LjYzNDMsMjg5LjA4NDcxNyA4NC44NjQzLDI4OS4wODQ3MTcgQzgzLjI2NzMsMjg5LjA4NDcxNyA4MS44NDMzLDI4OS42ODg3MTcgODAuNTkxMywyOTAuODk3NzE3IEM3OS4zMzkzLDI5Mi4xMDY3MTcgNzguNzM1MywyOTMuNjU5NzE3IDc4LjczNTMsMjk1LjU1OTcxNyBDNzguNzM1MywyOTcuNDU4NzE3IDc5LjMzOTMsMjk5LjAxMzcxNyA4MC41OTEzLDMwMC4xNzc3MTcgQzgxLjg0MzMsMzAxLjM4NzcxNyA4My4yNjczLDMwMS45OTE3MTcgODQuODY0MywzMDEuOTkxNzE3IEM4Ni42MzQzLDMwMS45OTE3MTcgODguMDU4MywzMDEuMzg3NzE3IDg5LjIyNDMsMzAwLjIyMTcxNyBaIE04NS44NTczLDI4NC4xMjA3MTcgQzg4LjY2MzMsMjg0LjEyMDcxNyA5MS4xNjYzLDI4NS4yMDA3MTcgOTMuMjgyMywyODcuMzU4NzE3IEM5NS4zOTczLDI4OS41NTk3MTcgOTYuNDMyMywyOTIuMjc4NzE3IDk2LjQzMjMsMjk1LjU1OTcxNyBDOTYuNDMyMywyOTguODM5NzE3IDk1LjM5NzMsMzAxLjU1OTcxNyA5My4yODIzLDMwMy43MTc3MTcgQzkxLjE2NjMsMzA1Ljg3NjcxNyA4OC43MDYzLDMwNi45NTQ3MTcgODUuODU3MywzMDYuOTU0NzE3IEM4My4wNTEzLDMwNi45NTQ3MTcgODAuNjc3MywzMDYuMTc3NzE3IDc4LjczNTMsMzA0LjYyNDcxNyBMNzguNzM1MywzMTYuNTgzNzE3IEw3My4wMzczLDMxNi41ODM3MTcgTDczLjAzNzMsMjg0Ljc2NzcxNyBMNzguNzM1MywyODQuNzY3NzE3IEw3OC43MzUzLDI4Ni40OTQ3MTcgQzgwLjYzNDMsMjg0Ljg5NzcxNyA4My4wMDgzLDI4NC4xMjA3MTcgODUuODU3MywyODQuMTIwNzE3IFogTTExNi45MzQ4LDMwMC4yMjE3MTcgQzExOC4wNTY4LDI5OS4wNTU3MTcgMTE4LjYxNzgsMjk3LjUwMTcxNyAxMTguNjE3OCwyOTUuNTU5NzE3IEMxMTguNjE3OCwyOTMuNjE3NzE3IDExOC4wNTY4LDI5Mi4wMTk3MTcgMTE2LjkzNDgsMjkwLjg1NDcxNyBDMTE1Ljc2ODgsMjg5LjY4ODcxNyAxMTQuMzQ0OCwyODkuMDg0NzE3IDExMi41NzQ4LDI4OS4wODQ3MTcgQzExMC45Nzc4LDI4OS4wODQ3MTcgMTA5LjU1MzgsMjg5LjY4ODcxNyAxMDguMzAxOCwyOTAuODk3NzE3IEMxMDcuMDQ5OCwyOTIuMTA2NzE3IDEwNi40NDQ4LDI5My42NTk3MTcgMTA2LjQ0NDgsMjk1LjU1OTcxNyBDMTA2LjQ0NDgsMjk3LjQ1ODcxNyAxMDcuMDQ5OCwyOTkuMDEzNzE3IDEwOC4zMDE4LDMwMC4xNzc3MTcgQzEwOS41NTM4LDMwMS4zODc3MTcgMTEwLjk3NzgsMzAxLjk5MTcxNyAxMTIuNTc0OCwzMDEuOTkxNzE3IEMxMTQuMzQ0OCwzMDEuOTkxNzE3IDExNS43Njg4LDMwMS4zODc3MTcgMTE2LjkzNDgsMzAwLjIyMTcxNyBaIE0xMTMuNTY2OCwyODQuMTIwNzE3IEMxMTYuMzcyOCwyODQuMTIwNzE3IDExOC44NzY4LDI4NS4yMDA3MTcgMTIwLjk5MjgsMjg3LjM1ODcxNyBDMTIzLjEwNjgsMjg5LjU1OTcxNyAxMjQuMTQyOCwyOTIuMjc4NzE3IDEyNC4xNDI4LDI5NS41NTk3MTcgQzEyNC4xNDI4LDI5OC44Mzk3MTcgMTIzLjEwNjgsMzAxLjU1OTcxNyAxMjAuOTkyOCwzMDMuNzE3NzE3IEMxMTguODc2OCwzMDUuODc2NzE3IDExNi40MTY4LDMwNi45NTQ3MTcgMTEzLjU2NjgsMzA2Ljk1NDcxNyBDMTEwLjc2MTgsMzA2Ljk1NDcxNyAxMDguMzg3OCwzMDYuMTc3NzE3IDEwNi40NDQ4LDMwNC42MjQ3MTcgTDEwNi40NDQ4LDMxNi41ODM3MTcgTDEwMC43NDc4LDMxNi41ODM3MTcgTDEwMC43NDc4LDI4NC43Njc3MTcgTDEwNi40NDQ4LDI4NC43Njc3MTcgTDEwNi40NDQ4LDI4Ni40OTQ3MTcgQzEwOC4zNDQ4LDI4NC44OTc3MTcgMTEwLjcxODgsMjg0LjEyMDcxNyAxMTMuNTY2OCwyODQuMTIwNzE3IFogTTEzMi41NTgzLDI5My4wNTU3MTcgTDE0Mi45NjEzLDI5My4wNTU3MTcgQzE0Mi42MTYzLDI5MS43MTc3MTcgMTQxLjk2ODMsMjkwLjcyNTcxNyAxNDEuMDYyMywyOTAuMDc2NzE3IEMxNDAuMTU1MywyODkuNDI5NzE3IDEzOS4wNzczLDI4OS4wODQ3MTcgMTM3Ljg2NzMsMjg5LjA4NDcxNyBDMTM2LjcwMzMsMjg5LjA4NDcxNyAxMzUuNTgwMywyODkuNDI5NzE3IDEzNC41ODczLDI5MC4xMjA3MTcgQzEzMy41NTEzLDI5MC44MTE3MTcgMTMyLjg2MDMsMjkxLjgwMzcxNyAxMzIuNTU4MywyOTMuMDU1NzE3IFogTTEzNy44NjczLDI4NC4xMjA3MTcgQzE0MC44MDMzLDI4NC4xMjA3MTcgMTQzLjM1MDMsMjg1LjE1NjcxNyAxNDUuNDY1MywyODcuMTg1NzE3IEMxNDcuNTgwMywyODkuMjU3NzE3IDE0OC42NTkzLDI5MS44ODk3MTcgMTQ4Ljc4OTMsMjk1LjEyNzcxNyBMMTQ4Ljc4OTMsMjk3LjA3MDcxNyBMMTMyLjM4NjMsMjk3LjA3MDcxNyBDMTMyLjY4ODMsMjk4LjU4MDcxNyAxMzMuMzM1MywyOTkuNzg4NzE3IDEzNC4zMjkzLDMwMC42OTY3MTcgQzEzNS4zMjEzLDMwMS42MDI3MTcgMTM2LjQ0MzMsMzAyLjA3NjcxNyAxMzcuNzgxMywzMDIuMDc2NzE3IEMxNDAuMjQyMywzMDIuMDc2NzE3IDE0Mi4wMTIzLDMwMS4xMjc3MTcgMTQzLjEzNDMsMjk5LjIyODcxNyBMMTQ4LjIyODMsMzAwLjMwNzcxNyBDMTQ3LjMyMTMsMzAyLjUwOTcxNyAxNDUuOTQwMywzMDQuMTUwNzE3IDE0NC4xMjczLDMwNS4yNzI3MTcgQzE0Mi4zMTQzLDMwNi4zOTQ3MTcgMTQwLjE5OTMsMzA2Ljk1NDcxNyAxMzcuNzgxMywzMDYuOTU0NzE3IEMxMzQuNjczMywzMDYuOTU0NzE3IDEzMi4wNDAzLDMwNS44NzY3MTcgMTI5LjkyNTMsMzAzLjc2MTcxNyBDMTI3LjgxMDMsMzAxLjY0NjcxNyAxMjYuNzMwMywyOTguODgzNzE3IDEyNi43MzAzLDI5NS41NTk3MTcgQzEyNi43MzAzLDI5Mi4yMzY3MTcgMTI3LjgxMDMsMjg5LjQ3MzcxNyAxMjkuOTY4MywyODcuMzE0NzE3IEMxMzIuMDgzMywyODUuMjAwNzE3IDEzNC43MTczLDI4NC4xMjA3MTcgMTM3Ljg2NzMsMjg0LjEyMDcxNyBaIE0xNjQuNDk5NywzMDEuNjQ2NTE3IEMxNjUuNTc4NywzMDEuNjQ2NTE3IDE2Ni43ODc3LDMwMS4zMDA1MTcgMTY4LjA4MjcsMzAwLjYxMDUxNyBMMTY5LjcyMjcsMzA1LjM1ODUxNyBDMTY3LjczNjcsMzA2LjQzNzUxNyAxNjUuODgwNywzMDYuOTU1NTE3IDE2NC4xMTA3LDMwNi45NTU1MTcgQzE2MS40Nzc3LDMwNi45NTU1MTcgMTU5LjQwNTcsMzA2LjIyMTUxNyAxNTcuODk0NywzMDQuNzk2NTE3IEMxNTYuMzg0NywzMDMuMzczNTE3IDE1NS42NTA3LDMwMS4yNTc1MTcgMTU1LjY1MDcsMjk4LjM2NTUxNyBMMTU1LjY1MDcsMjg5LjQyOTUxNyBMMTUxLjAzMTcsMjg5LjQyOTUxNyBMMTUxLjAzMTcsMjg0Ljc2NzUxNyBMMTU1LjY1MDcsMjg0Ljc2NzUxNyBMMTU1LjY1MDcsMjc4LjI1MDUxNyBMMTYxLjM0ODcsMjc4LjI1MDUxNyBMMTYxLjM0ODcsMjg0Ljc2NzUxNyBMMTY4LjM4NDcsMjg0Ljc2NzUxNyBMMTY4LjM4NDcsMjg5LjQyOTUxNyBMMTYxLjM0ODcsMjg5LjQyOTUxNyBMMTYxLjM0ODcsMjk3LjkzMzUxNyBDMTYxLjM0ODcsMzAwLjM5NDUxNyAxNjIuMzg0NywzMDEuNjQ2NTE3IDE2NC40OTk3LDMwMS42NDY1MTcgWiBNMTc2LjQ1NDMsMjkzLjA1NTcxNyBMMTg2Ljg1NzMsMjkzLjA1NTcxNyBDMTg2LjUxMjMsMjkxLjcxNzcxNyAxODUuODY0MywyOTAuNzI1NzE3IDE4NC45NTgzLDI5MC4wNzY3MTcgQzE4NC4wNTEzLDI4OS40Mjk3MTcgMTgyLjk3MzMsMjg5LjA4NDcxNyAxODEuNzYzMywyODkuMDg0NzE3IEMxODAuNTk5MywyODkuMDg0NzE3IDE3OS40NzYzLDI4OS40Mjk3MTcgMTc4LjQ4MzMsMjkwLjEyMDcxNyBDMTc3LjQ0NzMsMjkwLjgxMTcxNyAxNzYuNzU2MywyOTEuODAzNzE3IDE3Ni40NTQzLDI5My4wNTU3MTcgWiBNMTgxLjc2MzMsMjg0LjEyMDcxNyBDMTg0LjY5OTMsMjg0LjEyMDcxNyAxODcuMjQ2MywyODUuMTU2NzE3IDE4OS4zNjEzLDI4Ny4xODU3MTcgQzE5MS40NzYzLDI4OS4yNTc3MTcgMTkyLjU1NTMsMjkxLjg4OTcxNyAxOTIuNjg1MywyOTUuMTI3NzE3IEwxOTIuNjg1MywyOTcuMDcwNzE3IEwxNzYuMjgyMywyOTcuMDcwNzE3IEMxNzYuNTg0MywyOTguNTgwNzE3IDE3Ny4yMzEzLDI5OS43ODg3MTcgMTc4LjIyNTMsMzAwLjY5NjcxNyBDMTc5LjIxNzMsMzAxLjYwMjcxNyAxODAuMzM5MywzMDIuMDc2NzE3IDE4MS42NzczLDMwMi4wNzY3MTcgQzE4NC4xMzgzLDMwMi4wNzY3MTcgMTg1LjkwODMsMzAxLjEyNzcxNyAxODcuMDMwMywyOTkuMjI4NzE3IEwxOTIuMTIzMywzMDAuMzA3NzE3IEMxOTEuMjE3MywzMDIuNTA5NzE3IDE4OS44MzYzLDMwNC4xNTA3MTcgMTg4LjAyMzMsMzA1LjI3MjcxNyBDMTg2LjIxMDMsMzA2LjM5NDcxNyAxODQuMDk1MywzMDYuOTU0NzE3IDE4MS42NzczLDMwNi45NTQ3MTcgQzE3OC41NjkzLDMwNi45NTQ3MTcgMTc1LjkzNjMsMzA1Ljg3NjcxNyAxNzMuODIxMywzMDMuNzYxNzE3IEMxNzEuNzA2MywzMDEuNjQ2NzE3IDE3MC42MjYzLDI5OC44ODM3MTcgMTcwLjYyNjMsMjk1LjU1OTcxNyBDMTcwLjYyNjMsMjkyLjIzNjcxNyAxNzEuNzA2MywyODkuNDczNzE3IDE3My44NjQzLDI4Ny4zMTQ3MTcgQzE3NS45NzkzLDI4NS4yMDA3MTcgMTc4LjYxMzMsMjg0LjEyMDcxNyAxODEuNzYzMywyODQuMTIwNzE3IFogTTIwMi4wNDk1LDI5My4wNTU3MTcgTDIxMi40NTI1LDI5My4wNTU3MTcgQzIxMi4xMDc1LDI5MS43MTc3MTcgMjExLjQ1OTUsMjkwLjcyNTcxNyAyMTAuNTUzNSwyOTAuMDc2NzE3IEMyMDkuNjQ2NSwyODkuNDI5NzE3IDIwOC41Njg1LDI4OS4wODQ3MTcgMjA3LjM1ODUsMjg5LjA4NDcxNyBDMjA2LjE5NDUsMjg5LjA4NDcxNyAyMDUuMDcxNSwyODkuNDI5NzE3IDIwNC4wNzg1LDI5MC4xMjA3MTcgQzIwMy4wNDI1LDI5MC44MTE3MTcgMjAyLjM1MTUsMjkxLjgwMzcxNyAyMDIuMDQ5NSwyOTMuMDU1NzE3IFogTTIwNy4zNTg1LDI4NC4xMjA3MTcgQzIxMC4yOTQ1LDI4NC4xMjA3MTcgMjEyLjg0MTUsMjg1LjE1NjcxNyAyMTQuOTU2NSwyODcuMTg1NzE3IEMyMTcuMDcxNSwyODkuMjU3NzE3IDIxOC4xNTA1LDI5MS44ODk3MTcgMjE4LjI4MDUsMjk1LjEyNzcxNyBMMjE4LjI4MDUsMjk3LjA3MDcxNyBMMjAxLjg3NzUsMjk3LjA3MDcxNyBDMjAyLjE3OTUsMjk4LjU4MDcxNyAyMDIuODI2NSwyOTkuNzg4NzE3IDIwMy44MjA1LDMwMC42OTY3MTcgQzIwNC44MTI1LDMwMS42MDI3MTcgMjA1LjkzNDUsMzAyLjA3NjcxNyAyMDcuMjcyNSwzMDIuMDc2NzE3IEMyMDkuNzMzNSwzMDIuMDc2NzE3IDIxMS41MDM1LDMwMS4xMjc3MTcgMjEyLjYyNTUsMjk5LjIyODcxNyBMMjE3LjcxOTUsMzAwLjMwNzcxNyBDMjE2LjgxMjUsMzAyLjUwOTcxNyAyMTUuNDMxNSwzMDQuMTUwNzE3IDIxMy42MTg1LDMwNS4yNzI3MTcgQzIxMS44MDU1LDMwNi4zOTQ3MTcgMjA5LjY5MDUsMzA2Ljk1NDcxNyAyMDcuMjcyNSwzMDYuOTU0NzE3IEMyMDQuMTY0NSwzMDYuOTU0NzE3IDIwMS41MzE1LDMwNS44NzY3MTcgMTk5LjQxNjUsMzAzLjc2MTcxNyBDMTk3LjMwMTUsMzAxLjY0NjcxNyAxOTYuMjIxNSwyOTguODgzNzE3IDE5Ni4yMjE1LDI5NS41NTk3MTcgQzE5Ni4yMjE1LDI5Mi4yMzY3MTcgMTk3LjMwMTUsMjg5LjQ3MzcxNyAxOTkuNDU5NSwyODcuMzE0NzE3IEMyMDEuNTc0NSwyODUuMjAwNzE3IDIwNC4yMDg1LDI4NC4xMjA3MTcgMjA3LjM1ODUsMjg0LjEyMDcxNyBaIE0yMzYuMDE5NywyODQuNDY1ODE3IEMyMzYuNjY3NywyODQuNDY1ODE3IDIzNy4xODU3LDI4NC41MDg4MTcgMjM3LjUzMTcsMjg0LjYzNzgxNyBMMjM3LjIyODcsMjkwLjEyMDgxNyBMMjM1Ljk3NzcsMjkwLjEyMDgxNyBDMjMwLjg0MDcsMjkwLjEyMDgxNyAyMjguMjkyNywyOTMuMTg1ODE3IDIyOC4yOTI3LDI5OS4zNTg4MTcgTDIyOC4yOTI3LDMwNi4zMDc4MTcgTDIyMi41OTU3LDMwNi4zMDc4MTcgTDIyMi41OTU3LDI4NC43Njc4MTcgTDIyOC4yOTI3LDI4NC43Njc4MTcgTDIyOC4yOTI3LDI4OC42OTU4MTcgQzIzMC4yMzU3LDI4NS44ODk4MTcgMjMyLjgyNTcsMjg0LjQ2NTgxNyAyMzYuMDE5NywyODQuNDY1ODE3IFoiLz4KCQkJCTxwb2x5Z29uIHBvaW50cz0iMjExLjA5NTQgMTMyLjYzODIxNyAyNDEuODM2NCAxMTcuNzk3MjE3IDI0MS44MzY0IDEwMi45NTcyMTcgMTcwLjgxMzQgNjkuMDM1MjE2NyAyNDEuODM2NCAzMi40NjQyMTY3IDI0MS44MzY0IDE4LjE1NDIxNjcgMjEyLjE1NTQgNC4zNzMyMTY3NCAxMjguMDU5NCA0Ni4yNDQyMTY3IDQyLjU0OTQgNC4zNzMyMTY3NCAxNC45ODg0IDE5LjIxNDIxNjcgMTQuOTg4NCAzMS45MzQyMTY3IDgxLjc3MDQgNjguNTA1MjE2NyAxNC45ODg0IDEwMi40MjcyMTcgMTQuOTg4NCAxMTcuNzk3MjE3IDQzLjYwOTQgMTMyLjYzODIxNyAxMjguNDEyNCA4OS4xNzYyMTY3IiBmaWxsPSIjMDBEOEEyIi8+CgkJCQk8cGF0aCBmaWxsPSIjMDAwMDAwIiBkPSJNMjE0Ljk0OTQsMTI2LjU4NDUxNyBMMjE0Ljk0OTQsMTIwLjE5MjUxNyBMMjM4LjA4OTQsMTA4LjIwMTUxNyBMMjM4LjA4OTQsMTE1LjM4MTUxNyBMMjE0Ljk0OTQsMTI2LjU4NDUxNyBaIE0xNi44NTA0LDEwOC4wMzM1MTcgTDM5LjIxMDQsMTIwLjg2OTUxNyBMMzkuMjEwNCwxMjUuOTc5NTE3IEwxNi44NTA0LDExNC42Njc1MTcgTDE2Ljg1MDQsMTA4LjAzMzUxNyBaIE0xMzEuMzgzNCw4MS4wMzk1MTY3IEwyMDguMzAyNCwxMTkuMDQ0NTE3IEwyMDguMzAyNCwxMjYuNjg2NTE3IEwxMzEuMzgzNCw4Ny4yODE1MTY3IEwxMzEuMzgzNCw4MS4wMzk1MTY3IFogTTQ1Ljg1NzQsMTIwLjE1NjUxNyBMMTI0LjczNjQsODEuMDQ3NTE2NyBMMTI0LjczNjQsODcuMjc5NTE2NyBMNDUuODU3NCwxMjcuMTg3NTE3IEw0NS44NTc0LDEyMC4xNTY1MTcgWiBNMTAxLjcwOTQsNTYuMjUxNTE2NyBMMjEuODg3NCwxNy43MTM1MTY3IEw0Mi41NjE0LDcuMjA2NTE2NzQgTDEyOC4wNTk0LDUxLjUyOTUxNjcgTDIxMi4xMjY0LDcuMjI1NTE2NzQgTDIzMy41MzA0LDE4LjE4ODUxNjcgTDE1NS42ODk0LDU3LjM2MjUxNjcgQzE1Mi41Nzc0LDU4LjkyODUxNjcgMTUyLjU4MjQsNjMuMzczNTE2NyAxNTUuNjk3NCw2NC45MzI1MTY3IEwyMzIuNzM1NCwxMDMuNDg5NTE3IEwyMTIuNzY3NCwxMTMuODM2NTE3IEwxMjguMDU5NCw3MC40MzM1MTY3IEw0MS44NTM0LDExNC43MjI1MTcgTDIyLjE2NDQsMTAzLjQxOTUxNyBMMTAxLjc1MzQsNjMuODU3NTE2NyBDMTA0LjkwNjQsNjIuMjkwNTE2NyAxMDQuODgwNCw1Ny43ODI1MTY3IDEwMS43MDk0LDU2LjI1MTUxNjcgTDEwMS43MDk0LDU2LjI1MTUxNjcgWiBNMTcuODQ0NCwzMC43NzA1MTY3IEwxNy44NDQ0LDIzLjc1NjUxNjcgTDkyLjI5MDQsNjAuODk4NTE2NyBMODQuNzY0NCw2My45MDU1MTY3IEwxNy44NDQ0LDMwLjc3MDUxNjcgWiBNMTcwLjQ5ODQsNjQuMzE4NTE2NyBDMTcwLjM5NjQsNjQuMjU2NTE2NyAxNjMuMzY4NCw2MC45NDA1MTY3IDE2My4zNjg0LDYwLjk0MDUxNjcgTDIzOC4wODk0LDIzLjMzNTUxNjcgTDIzOC4wODk0LDMwLjM4MDUxNjcgTDE3MC40OTg0LDY0LjMxODUxNjcgWiBNMTc3Ljk3NzQsNjguMDAxNTE2NyBMMjQzLjY1MjQsMzUuMDI1NTE2NyBDMjQ0LjMxNzQsMzQuNjkxNTE2NyAyNDQuNzM3NCwzNC4wMTA1MTY3IDI0NC43Mzc0LDMzLjI2NjUxNjcgTDI0NC43Mzc0LDE3LjY2MzUxNjcgQzI0NC43Mzc0LDE2LjkyNDUxNjcgMjQ0LjMyMzQsMTYuMjQ4NTE2NyAyNDMuNjY2NCwxNS45MTE1MTY3IEwyMTMuMDMzNCwwLjIyMTUxNjc0MSBDMjEyLjQ3MjQsLTAuMDY1NDgzMjU5MSAyMTEuODA3NCwtMC4wNjY0ODMyNTkxIDIxMS4yNDU0LDAuMjE4NTE2NzQxIEwxMjguOTQyNCw0MS45ODI1MTY3IEMxMjguMzg3NCw0Mi4yNjQ1MTY3IDEyNy43MzE0LDQyLjI2NzUxNjcgMTI3LjE3MzQsNDEuOTg4NTE2NyBMNDMuNDIwNCwwLjIwNjUxNjc0MSBDNDIuODYzNCwtMC4wNzE0ODMyNTkxIDQyLjIwNjQsLTAuMDY4NDgzMjU5MSA0MS42NTA0LDAuMjEzNTE2NzQxIEwxMS4yNzk0LDE1LjY0NzUxNjcgQzEwLjYxODQsMTUuOTgzNTE2NyAxMC4yMDI0LDE2LjY2MTUxNjcgMTAuMjAyNCwxNy40MDI1MTY3IEwxMC4yMDI0LDMzLjI1NzUxNjcgQzEwLjIwMjQsMzQuMDA2NTE2NyAxMC42Mjc0LDM0LjY5MDUxNjcgMTEuMjk5NCwzNS4wMjI1MTY3IEw3Ny4yNTA0LDY3LjYwNjUxNjcgTDExLjYwNDQsMTAwLjIwMTUxNyBDMTAuOTQ3NCwxMDAuNTI4NTE3IDEwLjUyNTQsMTAxLjE5MzUxNyAxMC41MTI0LDEwMS45Mjg1MTcgTDEwLjIyNTQsMTE3LjUxOTUxNyBDMTAuMjExNCwxMTguMjc0NTE3IDEwLjYzMTQsMTE4Ljk3MDUxNyAxMS4zMDQ0LDExOS4zMTE1MTcgTDQyLjg0MTQsMTM1LjI2NzUxNyBDNDMuMzk4NCwxMzUuNTQ4NTE3IDQ0LjA1NTQsMTM1LjU0OTUxNyA0NC42MTM0LDEzNS4yNjk1MTcgTDEyNy4xNzE0LDkzLjgxNDUxNjcgQzEyNy43Mjk0LDkzLjUzMzUxNjcgMTI4LjM4ODQsOTMuNTM1NTE2NyAxMjguOTQ2NCw5My44MTg1MTY3IEwyMTAuNDc1NCwxMzUuMjcyNTE3IEMyMTEuMDIzNCwxMzUuNTUwNTE3IDIxMS42NzA0LDEzNS41NTc1MTcgMjEyLjIyNDQsMTM1LjI4OTUxNyBMMjQzLjYyNjQsMTIwLjA4NjUxNyBDMjQ0LjMwNTQsMTE5Ljc1NzUxNyAyNDQuNzM3NCwxMTkuMDY5NTE3IDI0NC43Mzc0LDExOC4zMTU1MTcgTDI0NC43Mzc0LDEwMi4wMjU1MTcgQzI0NC43Mzc0LDEwMS4yNzQ1MTcgMjQ0LjMxMDQsMTAwLjU4OTUxNyAyNDMuNjM2NCwxMDAuMjU4NTE3IEwxNzcuOTc3NCw2OC4wMDE1MTY3IFoiLz4KCQk8L2c+Cjwvc3ZnPg==;html=1;whiteSpace=wrap;labelPosition=center;align=center;rounded=1;movable=1;resizable=1;rotatable=1;deletable=1;editable=1;connectable=1;" parent="101" vertex="1">
                    <mxGeometry x="562.62" y="485.42" width="34.27" height="51.13" as="geometry"/>
                </mxCell>
                <mxCell id="22" value="Vite" style="shape=image;verticalLabelPosition=top;labelBackgroundColor=none;verticalAlign=bottom;aspect=fixed;imageAspect=0;image=data:image/svg+xml,PHN2ZyB4bWxuczp4bGluaz0iaHR0cDovL3d3dy53My5vcmcvMTk5OS94bGluayIgeG1sbnM9Imh0dHA6Ly93d3cudzMub3JnLzIwMDAvc3ZnIiBwcmVzZXJ2ZUFzcGVjdFJhdGlvPSJ4TWlkWU1pZCIgdmVyc2lvbj0iMS4xIiB2aWV3Qm94PSItNS45NjA0NjQ0Nzc1MzkwNjNlLTggLTkuNTM2NzQzMTY0MDYyNWUtNyAyNTYgMjU2LjMyMjA4MjUxOTUzMTI1IiBoZWlnaHQ9IjI1Ni4zMjIwODI1MTk1MzEyNSIgd2lkdGg9IjI1NiI+CiAgICA8ZGVmcz4KICAgICAgICA8bGluZWFyR3JhZGllbnQgaWQ9ImxpbmVhckdyYWRpZW50LTEiIHkyPSI3OC40MTA3NzE5JSIgeDI9IjU3LjYzNTk2NDQlIiB5MT0iNy42NTE4NTM5JSIgeDE9Ii0wLjgyODA5NzgyMSUiPgogICAgICAgICAgICA8c3RvcCBvZmZzZXQ9IjAlIiBzdG9wLWNvbG9yPSIjNDFEMUZGIi8+CiAgICAgICAgICAgIDxzdG9wIG9mZnNldD0iMTAwJSIgc3RvcC1jb2xvcj0iI0JEMzRGRSIvPgogICAgICAgIDwvbGluZWFyR3JhZGllbnQ+CiAgICAgICAgPGxpbmVhckdyYWRpZW50IGlkPSJsaW5lYXJHcmFkaWVudC0yIiB5Mj0iODkuMDI5OTA1MSUiIHgyPSI1MC4zMTU4ODQ4JSIgeTE9IjIuMjQxNzk3ODglIiB4MT0iNDMuMzc2MDA1MyUiPgogICAgICAgICAgICA8c3RvcCBvZmZzZXQ9IjAlIiBzdG9wLWNvbG9yPSIjRkZFQTgzIi8+CiAgICAgICAgICAgIDxzdG9wIG9mZnNldD0iOC4zMzMzMyUiIHN0b3AtY29sb3I9IiNGRkREMzUiLz4KICAgICAgICAgICAgPHN0b3Agb2Zmc2V0PSIxMDAlIiBzdG9wLWNvbG9yPSIjRkZBODAwIi8+CiAgICAgICAgPC9saW5lYXJHcmFkaWVudD4KICAgIDwvZGVmcz4KICAgIDxnPgogICAgICAgIDxwYXRoIGZpbGw9InVybCgjbGluZWFyR3JhZGllbnQtMSkiIGQ9Ik0yNTUuMTUyOTA0LDM3LjkzNzc2MyBMMTM0Ljg5Njg2NSwyNTIuOTc2NDYgQzEzMi40MTM5NDMsMjU3LjQxNjE3OCAxMjYuMDM1MDc1LDI1Ny40NDIzMjEgMTIzLjUxNDksMjUzLjAyNDE3IEwwLjg3NDQzMTc1LDM3Ljk1ODQ4MTIgQy0xLjg3MTExNTM2LDMzLjE0MzgwODQgMi4yNDU5NTM3MSwyNy4zMTE5MTUzIDcuNzAxOTExODcsMjguMjg3MTEwOSBMMTI4LjA4NjYzOSw0OS44MDUyMDIzIEMxMjguODU0NTg3LDQ5Ljk0MjQ1MjUgMTI5LjY0MDgzNSw0OS45NDExNDU0IDEzMC40MDg3ODMsNDkuODAxMjE1NSBMMjQ4LjI3NjAxNCwyOC4zMTc5NTk1IEMyNTMuNzEzNzM4LDI3LjMyNjg4MjEgMjU3Ljg1MDE5OCwzMy4xMTM2MTM0IDI1NS4xNTI5MDQsMzcuOTM3NzYzIFoiLz4KICAgICAgICA8cGF0aCBmaWxsPSJ1cmwoI2xpbmVhckdyYWRpZW50LTIpIiBkPSJNMTg1LjQzMjQwMSwwLjA2MzEwMzg5MDIgTDk2LjQzOTM1MDIsMTcuNTAwOTQyIEM5NC45NzY2NTQ5LDE3Ljc4NzUzMzUgOTMuODkzNjg1MiwxOS4wMjcwOTkyIDkzLjgwNTQ1MjksMjAuNTE0Njk1NiBMODguMzMxMTI5MywxMTIuOTcxNDE5IEM4OC4yMDIzNzU1LDExNS4xNDkxMjMgOTAuMjAyMzA3NSwxMTYuODM5MjYxIDkyLjMyNzcyNTQsMTE2LjM0OTA4MiBMMTE3LjEwNDY2LDExMC42MzA5NzYgQzExOS40MjI4ODIsMTEwLjA5NjM1NCAxMjEuNTE3NTgyLDExMi4xMzgxMTQgMTIxLjA0MTEyOCwxMTQuNDY5NDA3IEwxMTMuNjc5OTQsMTUwLjUxNTg5MyBDMTEzLjE4NDUzMiwxNTIuOTQxOTU1IDExNS40NjIyMzIsMTU1LjAxNjM5NCAxMTcuODMxNDMzLDE1NC4yOTY4MSBMMTMzLjEzNDgzNCwxNDkuNjQ3Mjk1IEMxMzUuNTA3MzAyLDE0OC45MjcwNTkgMTM3Ljc4Njk2MywxNTEuMDA3MzggMTM3LjI4NTAxOSwxNTMuNDM1NDAyIEwxMjUuNTg2NzI0LDIxMC4wNTYzNTEgQzEyNC44NTQ3MjMsMjEzLjU5ODA2MSAxMjkuNTY1Njc0LDIxNS41MjkzNjggMTMxLjUzMDMxMywyMTIuNDkyODcgTDEzMi44NDI2ODcsMjEwLjQ2NDgzNCBMMjA1LjM1OTE3NCw2NS43NDU1NzUgQzIwNi41NzM1MTEsNjMuMzIyNDU0OCAyMDQuNDc5NDY1LDYwLjU1OTQ3NjkgMjAxLjgxODExOCw2MS4wNzMwNTQyIEwxNzYuMzE0NDEsNjUuOTk1MjM5NyBDMTczLjkxNzc2LDY2LjQ1NzMxNTUgMTcxLjg3ODYxNCw2NC4yMjUzNjUzIDE3Mi41NTUwNjEsNjEuODgwNTQzMSBMMTg5LjIwMDksNC4xNzU3MDI1MyBDMTg5Ljg3ODAwMSwxLjgyNjkyNjIzIDE4Ny44MzE2NjUsLTAuNDA2OTU3ODk0IDE4NS40MzI0MDEsMC4wNjMxMDM4OTAyIFoiLz4KICAgIDwvZz4KPC9zdmc+;html=1;labelPosition=center;align=center;rounded=1;movable=1;resizable=1;rotatable=1;deletable=1;editable=1;connectable=1;" parent="101" vertex="1">
                    <mxGeometry x="42.68389489812729" y="264.4505020453193" width="54.53639310930331" height="54.53639310930331" as="geometry"/>
                </mxCell>
                <mxCell id="23" value="React" style="shape=image;verticalLabelPosition=top;labelBackgroundColor=none;verticalAlign=bottom;aspect=fixed;imageAspect=0;image=data:image/svg+xml,PHN2ZyB4bWxuczp4bGluaz0iaHR0cDovL3d3dy53My5vcmcvMTk5OS94bGluayIgeG1sbnM9Imh0dHA6Ly93d3cudzMub3JnLzIwMDAvc3ZnIiBwcmVzZXJ2ZUFzcGVjdFJhdGlvPSJ4TWlkWU1pZCIgdmVyc2lvbj0iMS4xIiB2aWV3Qm94PSIwLjc1NDEyNDE2NDU4MTI5ODggMC43ODQ1MDQ2NTIwMjMzMTU0IDI1NC40Mjk4MDk1NzAzMTI1IDIyOC43NTMzNzIxOTIzODI4IiBoZWlnaHQ9IjIyOC43NTMzNzIxOTIzODI4IiB3aWR0aD0iMjU0LjQyOTgwOTU3MDMxMjUiPgogICAgPHBhdGggZmlsbD0iI0ZGRkZGRiIgZD0iTTAuNzU0MTI0MTEyLDExNC43NTAzNDEgQzAuNzU0MTI0MTEyLDEzMy45NjQ2ODIgMTkuNTE2NjAzMiwxNTEuOTAyMDUgNDkuMDk3MiwxNjIuMDEyNTI1IEM0My4xOTAyMzA5LDE5MS43NTAyMyA0OC4wMzg1NjcyLDIxNS43MTg2MTggNjQuMjMyNTM5NSwyMjUuMDU4MTA0IEM4MC44NzgyNjcsMjM0LjY1NzIwNSAxMDUuNjc2Mjk2LDIyOC4wMTI2MiAxMjkuMjEyOTkyLDIwNy40Mzg4MTYgQzE1Mi4xNTU4NjUsMjI3LjE4MjA3NCAxNzUuMzQzNzI5LDIzNC45NTIwMzMgMTkxLjUyMjYxMiwyMjUuNTg2MDA1IEMyMDguMTUyMDYzLDIxNS45NTkwMzcgMjEzLjIxMDM4MywxOTAuMzY1MDAzIDIwNy4xNDAwNTIsMTU5LjY5OTA5NCBDMjM3Ljk0OTgxLDE0OS41MTI2NjQgMjU1LjE4MzkzNywxMzQuMjE3NjA0IDI1NS4xODM5MzcsMTE0Ljc1MDM0MSBDMjU1LjE4MzkzNyw5NS45ODE0NjY1IDIzNi4zODY2NDYsNzkuNzQzODYyIDIwNy4yMDUwMjQsNjkuNjk3OTkyMiBDMjEzLjczOTk3LDM3Ljc2NDcxMTcgMjA4LjIwMjcyLDE0LjM3NzkzNjQgMTkxLjMzODQxNiw0LjY1Mjc1NTA1IEMxNzUuMDc5NDU5LC00LjcyMjkyMTk3IDE1MS42MjI0MTksMy40NDg5MzY0MSAxMjguMzQyMTI2LDIzLjcwOTI1OTEgQzEwNC4xMjI5MzcsMi4yMDQ1Mjc2NCA4MC44OTczNDc0LC00LjM2MTEzNjc1IDY0LjA0OTM5Miw1LjM5MjM4OTU0IEM0Ny44MDYyMzc3LDE0Ljc5NDczNTggNDMuMTcxMTA5NiwzOS4xOTg2OTYyIDQ5LjA5NzE5OTksNjkuNDg2OTQwNSBDMjAuNTE1NDI5NSw3OS40NTIyMDI0IDAuNzU0MTI0MTEyLDk2LjA1NjUyNTkgMC43NTQxMjQxMTIsMTE0Ljc1MDM0MSBaIi8+CiAgICA8cGF0aCBmaWxsPSIjNTNDMURFIiBkPSJNMjAxLjAyNDU1Myw3OS42NzQxMTc4IEMxOTguNjgwNTM0LDc4Ljg2NzMwNTYgMTk2LjI1MTY1MSw3OC4xMDM5MzA4IDE5My43NTA3NzQsNzcuMzgxOTgyOCBDMTk0LjE2MTgyMyw3NS43MDQ0MDg1IDE5NC41MzkwODUsNzQuMDQ4NTUzIDE5NC44NzQ1Miw3Mi40MjA4NTE1IEMyMDAuMzgwNjMyLDQ1LjY5MzQ4NjIgMTk2Ljc4MDU0NCwyNC4xNjE3MzQ1IDE4NC40ODczMTUsMTcuMDcyNTY1NiBDMTcyLjY5OTY1MSwxMC4yNzQ5OTE0IDE1My40MjE4MjYsMTcuMzYyNTUxNSAxMzMuOTUyMTUxLDM0LjMwNjQxMzIgQzEzMi4wNzk5MTIsMzUuOTM1NzIzNSAxMzAuMjAyNDQ0LDM3LjY2MDc1NzMgMTI4LjMyNTc4MiwzOS40Njg2NDQxIEMxMjcuMDc1MzQzLDM4LjI3MjUwMjcgMTI1LjgyNjkxNiwzNy4xMTY1ODEzIDEyNC41ODE3MDcsMzYuMDEwOTM0OCBDMTA0LjE3NjkxOCwxNy44OTM0NTQ4IDgzLjcyNDI2NzEsMTAuMjU4NTAxMiA3MS40NDMxMDQ1LDE3LjM2ODE4MjMgQzU5LjY2NjcwMjIsMjQuMTg1NDY0MyA1Ni4xNzkyMzAyLDQ0LjQyNzM2MjEgNjEuMTM1NTM1LDY5Ljc1NzA4NDEgQzYxLjYxNDE1MjQsNzIuMjAzNjYzOCA2Mi4xNzM2MTE5LDc0LjcwMjEyNzMgNjIuODA2MjcxOCw3Ny4yNDI0MTk1IEM1OS45MTE2NDE4LDc4LjA2NDExMzEgNTcuMTE3MTU5NSw3OC45NDAxMDM3IDU0LjQ0MzMzNyw3OS44NzIgQzMwLjUyMDkxMTIsODguMjEyNDExNiAxNS4yNDI5NTk5LDEwMS4yODM4OTYgMTUuMjQyOTU5OSwxMTQuODQyNDQ0IEMxNS4yNDI5NTk5LDEyOC44NDU4MjYgMzEuNjQzODUyMywxNDIuODkxNDM4IDU2LjU2MDkxNzUsMTUxLjQwODAxMiBDNTguNTI3MjcxLDE1Mi4wODAwODggNjAuNTY3NjI5MiwxNTIuNzE1NTYzIDYyLjY3MDMyODQsMTUzLjMxODg2MiBDNjEuOTg3Nzk1OCwxNTYuMDY2Mjg4IDYxLjM5NDE0OTMsMTU4Ljc1ODYxMSA2MC44OTU4MjQsMTYxLjM4NDU3MiBDNTYuMTY5OTc5NiwxODYuMjc0NjkgNTkuODYwNTYyNCwyMDYuMDM4MzcyIDcxLjYwNTU5MzEsMjEyLjgxMjYxOSBDODMuNzM3MTM3NSwyMTkuODA4NDc4IDEwNC4wOTcyODIsMjEyLjYxNzU1MiAxMjMuOTIyOTAzLDE5NS4yODc1NzkgQzEyNS40ODk4NzMsMTkzLjkxNzY4NyAxMjcuMDYyNDczLDE5Mi40NjQ5NDMgMTI4LjYzNzg4OCwxOTAuOTQyMjE2IEMxMzAuNjc5ODU2LDE5Mi45MDg1NjkgMTMyLjcxODYwNCwxOTQuNzY5NTQ2IDEzNC43NDY0OTUsMTk2LjUxNTA5MiBDMTUzLjk0OTkxNCwyMTMuMDQwMjY0IDE3Mi45MTY0MzcsMjE5LjcxMzE1NyAxODQuNjUwNjA4LDIxMi45MjAwMDcgQzE5Ni43NzAwODYsMjA1LjkwNDAzNyAyMDAuNzA4ODI3LDE4NC42NzMxMzEgMTk1LjU5NTI2MSwxNTguODQyMjY5IEMxOTUuMjA0NzI1LDE1Ni44Njk0OCAxOTQuNzUwMjQsMTU0Ljg1NDA1OCAxOTQuMjM5ODQ5LDE1Mi44MDI4NDEgQzE5NS42Njk2NjgsMTUyLjM4MDEyOCAxOTcuMDczMzQ1LDE1MS45NDM3NDIgMTk4LjQ0MjAzLDE1MS40OTAwNjEgQzIyNC4zNDU2OTEsMTQyLjkwNzUyNiAyNDEuMTk5NDU5LDEyOS4wMzI4NDggMjQxLjE5OTQ1OSwxMTQuODQyNDQ0IEMyNDEuMTk5NDU5LDEwMS4yMzQ4MjggMjI1LjQyODgxMyw4OC4wNzUyNjE2IDIwMS4wMjQ1NTMsNzkuNjc0MTE3OCBMMjAxLjAyNDU1Myw3OS42NzQxMTc4IEwyMDEuMDI0NTUzLDc5LjY3NDExNzggWiIvPgogICAgPHBhdGggZmlsbD0iI0ZGRkZGRiIgZD0iTTE5NS40MDYyMjgsMTQyLjMyNzU1NCBDMTk0LjE3MDY3MSwxNDIuNzM2NTkgMTkyLjkwMjkzOCwxNDMuMTMxOTUzIDE5MS42MTEwNzMsMTQzLjUxNTI0OSBDMTg4Ljc1MTQzNSwxMzQuNDYyMTQgMTg0Ljg5MTkyOCwxMjQuODM1NDk0IDE4MC4xNjg4OTksMTE0Ljg4OTUwMiBDMTg0LjY3NTk0NywxMDUuMTgwNDA1IDE4OC4zODYyMzcsOTUuNjc2ODMyNyAxOTEuMTY1ODM4LDg2LjY4MjQ0NDYgQzE5My40NzcyNzksODcuMzUxMzAyNCAxOTUuNzIwNzQ4LDg4LjA1Njc2MDUgMTk3Ljg4MjU3MSw4OC44MDEyMzE4IEMyMTguNzkyMTE5LDk1Ljk5OTM5NjcgMjMxLjU0NjY3MSwxMDYuNjQxOTk4IDIzMS41NDY2NzEsMTE0Ljg0MjQ0NCBDMjMxLjU0NjY3MSwxMjMuNTc3NDE0IDIxNy43NzIxNDIsMTM0LjkxNjYyNSAxOTUuNDA2MjI4LDE0Mi4zMjc1NTQgTDE5NS40MDYyMjgsMTQyLjMyNzU1NCBMMTk1LjQwNjIyOCwxNDIuMzI3NTU0IFogTTE4Ni4xMjU4NzYsMTYwLjcxNjkyIEMxODguMzg3MDQxLDE3Mi4xMzg5ODUgMTg4LjcxMDAwNywxODIuNDY1ODYgMTg3LjIxMjIxNiwxOTAuNTM4ODA5IEMxODUuODY2NDU3LDE5Ny43OTI4OCAxODMuMTYwMDU2LDIwMi42MjkzMjkgMTc5LjgxMzc1NiwyMDQuNTY2MzIyIEMxNzIuNjkyODEzLDIwOC42ODgwNjMgMTU3LjQ2NDczNiwyMDMuMzMwMzYzIDE0MS4wNDE3MjIsMTg5LjE5Nzg3NiBDMTM5LjE1OTAyNiwxODcuNTc3ODE2IDEzNy4yNjI2NTUsMTg1Ljg0Nzk1NiAxMzUuMzYwMjUxLDE4NC4wMTcxNDMgQzE0MS43MjcwNywxNzcuMDUzODYzIDE0OC4wOTAyNjksMTY4Ljk1ODc5NCAxNTQuMzAwNjMyLDE1OS45Njg0MjcgQzE2NS4yMjM5NjgsMTU4Ljk5OTEyNyAxNzUuNTQ0MDA3LDE1Ny40MTQ0NiAxODQuOTAyNzg3LDE1NS4yNTEwMjkgQzE4NS4zNjM3MDgsMTU3LjExMDM5NyAxODUuNzczMTQ3LDE1OC45MzM5NyAxODYuMTI1ODc2LDE2MC43MTY5MiBMMTg2LjEyNTg3NiwxNjAuNzE2OTIgTDE4Ni4xMjU4NzYsMTYwLjcxNjkyIFogTTkyLjI3NjYzNzksMjAzLjg1NDAyNyBDODUuMzE5MzkwNCwyMDYuMzExMDY0IDc5Ljc3ODI4NzUsMjA2LjM4MTQ0OSA3Ni40Mjg3Njk4LDIwNC40NTAwODYgQzY5LjMwMTM5MiwyMDAuMzM5MjA1IDY2LjMzODM4ODEsMTg0LjQ3MDgyNSA3MC4zODAwOTExLDE2My4xODQ4MTcgQzcwLjg0MzAyMjgsMTYwLjc0NzA4NSA3MS4zOTQwMzYyLDE1OC4yNDI5OTIgNzIuMDI5MTA5MiwxNTUuNjgzMzk0IEM4MS4yODUzMjkxLDE1Ny43MzAxODcgOTEuNTI5NzUzMywxNTkuMjAzMDQxIDEwMi40NzkyMzMsMTYwLjA5MDY5NiBDMTA4LjczMTQyNSwxNjguODg4MDA3IDExNS4yNzg0MjksMTc2Ljk3NDIyOCAxMjEuODc2MTEsMTg0LjA1NDU0OCBDMTIwLjQzNDYyNywxODUuNDQ2MTU4IDExOC45OTg3NzQsMTg2Ljc3MTAwNCAxMTcuNTcwOTY2LDE4OC4wMTk0MzEgQzEwOC44MDQyMjMsMTk1LjY4MjUzOSAxMDAuMDE4OTc5LDIwMS4xMTk0NzIgOTIuMjc2NjM3OSwyMDMuODU0MDI3IEw5Mi4yNzY2Mzc5LDIwMy44NTQwMjcgTDkyLjI3NjYzNzksMjAzLjg1NDAyNyBaIE01OS42ODI3OTAzLDE0Mi4yNzQwNjEgQzQ4LjY2NDkzNjQsMTM4LjUwODI2NyAzOS41NjU5NzY1LDEzMy42MTM5MDEgMzMuMzI5MDY4MywxMjguMjczMDk0IEMyNy43MjQ4MjAyLDEyMy40NzM2NDcgMjQuODk1MzQ2NCwxMTguNzA4Nzg5IDI0Ljg5NTM0NjQsMTE0Ljg0MjQ0NCBDMjQuODk1MzQ2NCwxMDYuNjE0NjQ5IDM3LjE2MjAyOTksOTYuMTIwMDU2NSA1Ny42MjA3MTMzLDg4Ljk4NzA0NzkgQzYwLjEwMzA4ODgsODguMTIxNTE0NSA2Mi43MDE2OTk5LDg3LjMwNTg1MzkgNjUuMzk4NDQ3OCw4Ni41Mzk2NjM4IEM2OC4yMjU5MTA0LDk1LjczNzE2MjYgNzEuOTM0OTk0NSwxMDUuMzUzMzUxIDc2LjQxMTA3MzEsMTE1LjA3NzMyOSBDNzEuODc3MDc3OCwxMjQuOTQ1Njk2IDY4LjExNTMwNTYsMTM0LjcxNTEyNCA2NS4yNjAwOTExLDE0NC4wMjA0MTEgQzYzLjMzNzU3NzQsMTQzLjQ2Nzc4OSA2MS40NzQ5OTE0LDE0Mi44ODYyMDkgNTkuNjgyNzkwMywxNDIuMjc0MDYxIEw1OS42ODI3OTAzLDE0Mi4yNzQwNjEgTDU5LjY4Mjc5MDMsMTQyLjI3NDA2MSBaIE03MC42MDg1NDA1LDY3LjkwMzM0NjQgQzY2LjM2MjExNzgsNDYuMjAxNDY0MyA2OS4xODIzNDEsMjkuODMwMzM0NyA3Ni4yNzkxNTE2LDI1LjcyMjI2ODcgQzgzLjgzODQ5MTgsMjEuMzQ1OTM1NiAxMDAuNTU0MzA2LDI3LjU4NTY1OSAxMTguMTcyMjU1LDQzLjIyOTIwOTcgQzExOS4yOTg0MTMsNDQuMjI5MDc3OCAxMjAuNDI4OTk2LDQ1LjI3NTYwMDkgMTIxLjU2Mjc5Nyw0Ni4zNTgzMjIxIEMxMTQuOTk3Njk0LDUzLjQwNzY3MzIgMTA4LjUxMDYxOCw2MS40MzMxNjI2IDEwMi4zMTM5Myw3MC4xNzg1ODkxIEM5MS42ODcwMTMzLDcxLjE2MzU3NTggODEuNTE0NTgyOCw3Mi43NDU4Mjg4IDcyLjE2MTgzNTEsNzQuODY0NjE1OCBDNzEuNTczODE5Myw3Mi40OTkyODA0IDcxLjA1Mjk3MDksNzAuMTc1MzcxNiA3MC42MDg1NDA1LDY3LjkwMzM0NjQgTDcwLjYwODU0MDUsNjcuOTAzMzQ2NCBMNzAuNjA4NTQwNSw2Ny45MDMzNDY0IFogTTE2OC4wNzU5NjUsOTEuOTcwNTY0IEMxNjUuODQwMTM5LDg4LjEwODY0NDEgMTYzLjU0NDc4NSw4NC4zMzgwMjM1IDE2MS4yMDQ3ODksODAuNjcwMzY2MSBDMTY4LjQxNDIxNiw4MS41ODE3NTAyIDE3NS4zMjE1ODksODIuNzkxNTY2NCAxODEuODA4MjY0LDg0LjI3MjA2MjkgQzE3OS44NjA4MTMsOTAuNTEzMzk1MSAxNzcuNDMzNTQsOTcuMDM5MDgyNSAxNzQuNTc2MzE0LDEwMy43Mjg4NjcgQzE3Mi41MjY3MDYsOTkuODM3NTg2OCAxNzAuMzU4ODUsOTUuOTE0MTMwNCAxNjguMDc1OTY1LDkxLjk3MDU2NCBMMTY4LjA3NTk2NSw5MS45NzA1NjQgTDE2OC4wNzU5NjUsOTEuOTcwNTY0IFogTTEyOC4zMjg5OTksNTMuMjU2ODQ4NCBDMTMyLjc4MTM0OCw1OC4wODA0Mjc0IDEzNy4yNDAxMzIsNjMuNDY1ODc5IDE0MS42MjU3MTYsNjkuMzA5MDMzNyBDMTM3LjIwNjM0Nyw2OS4xMDAyOTIyIDEzMi43MzIyNzksNjguOTkxNjk4MyAxMjguMjIxMjEsNjguOTkxNjk4MyBDMTIzLjc1Mjc3Myw2OC45OTE2OTgzIDExOS4zMTE2ODYsNjkuMDk3ODc5IDExNC45MTk2NjcsNjkuMzAzMDAwNyBDMTE5LjMwOTY3NSw2My41MTQxNDI5IDEyMy44MDcwNyw1OC4xMzU5MzA4IDEyOC4zMjg5OTksNTMuMjU2ODQ4NCBMMTI4LjMyODk5OSw1My4yNTY4NDg0IEwxMjguMzI4OTk5LDUzLjI1Njg0ODQgWiBNODguMzI3NDQwNyw5Mi4wMzczMjkxIEM4Ni4wOTQwMjY3LDk1LjkxMDEwODQgODMuOTY2MzkxMiw5OS44MTIyNDgzIDgxLjk0ODk1ODQsMTAzLjcyMTYyOCBDNzkuMTM3OTg1OCw5Ny4wNTUxNzA1IDc2LjczMzIzNDksOTAuNDk5NzIwMyA3NC43Njg4OTI0LDg0LjE2OTkwNDEgQzgxLjIxNTc0ODYsODIuNzI3MjE0NCA4OC4wOTA1NDUyLDgxLjU0NzU2MzMgOTUuMjU0MTIxLDgwLjY1MzQ3MzcgQzkyLjg4MTE0MzgsODQuMzU0OTE1OSA5MC41NjY4ODc2LDg4LjE1MzI4ODMgODguMzI3NDQwNyw5Mi4wMzY1MjQ3IEw4OC4zMjc0NDA3LDkyLjAzNzMyOTEgTDg4LjMyNzQ0MDcsOTIuMDM3MzI5MSBaIE05NS40NjA0NDkzLDE0OS43MTk5ODEgQzg4LjA1OTE3MzYsMTQ4Ljg5NDI2NSA4MS4wODEwMTE4LDE0Ny43NzUzNDcgNzQuNjM1NzY0MywxNDYuMzcyNDc0IEM3Ni42MzE0Nzg0LDEzOS45Mjk2NCA3OS4wODkzMTk3LDEzMy4yMzQyMjUgODEuOTU5ODE3NywxMjYuNDI0MTgyIEM4My45ODI0NzkyLDEzMC4zMzA3NDYgODYuMTE4NTYwOSwxMzQuMjM0NDk1IDg4LjM2NTY0OTcsMTM4LjExNTcyMSBMODguMzY2MDUxOCwxMzguMTE1NzIxIEM5MC42NTQ5Njk0LDE0Mi4wNjk3NDQgOTMuMDI2MzM3OCwxNDUuOTQyOTI1IDk1LjQ2MDQ0OTMsMTQ5LjcxOTk4MSBMOTUuNDYwNDQ5MywxNDkuNzE5OTgxIEw5NS40NjA0NDkzLDE0OS43MTk5ODEgWiBNMTI4LjU5NjA2LDE3Ny4xMDg1NjIgQzEyNC4wMjEwNCwxNzIuMTcyMzY3IDExOS40NTc2ODQsMTY2LjcxMjEwNyAxMTUuMDAwOTExLDE2MC44Mzg3ODcgQzExOS4zMjczNzEsMTYxLjAwODUxNSAxMjMuNzM4MjkzLDE2MS4wOTUzOTEgMTI4LjIyMTIxLDE2MS4wOTUzOTEgQzEzMi44MjY3OTcsMTYxLjA5NTM5MSAxMzcuMzc5Njk1LDE2MC45OTE2MjMgMTQxLjg2MTAwMywxNjAuNzkyMTMyIEMxMzcuNDYwOTM5LDE2Ni43NzEyMzEgMTMzLjAxODI0NCwxNzIuMjM5OTM3IDEyOC41OTYwNiwxNzcuMTA4NTYyIEwxMjguNTk2MDYsMTc3LjEwODU2MiBMMTI4LjU5NjA2LDE3Ny4xMDg1NjIgWiBNMTc0LjY2ODQxOCwxMjYuMDc3MDg0IEMxNzcuNjg4NTM0LDEzMi45NjA3MjkgMTgwLjIzNDQ1NywxMzkuNjIxMTUzIDE4Mi4yNTU5MTIsMTQ1Ljk1NDE4NyBDMTc1LjcwNDQ4NCwxNDcuNDQ4NzYgMTY4LjYzMTAwMSwxNDguNjUyNTQ0IDE2MS4xNzgyNDQsMTQ5LjU0NzAzNiBDMTYzLjUyMzg3MiwxNDUuODI5OTA3IDE2NS44MzkzMzQsMTQxLjk5NDUzMiAxNjguMTE0NTc2LDEzOC4wNDkzNTcgQzE3MC40MTYzNjUsMTM0LjA1NzkzIDE3Mi42MDE5MTcsMTMwLjA2MDQ2OSAxNzQuNjY4NDE4LDEyNi4wNzcwODQgTDE3NC42Njg0MTgsMTI2LjA3NzA4NCBMMTc0LjY2ODQxOCwxMjYuMDc3MDg0IFogTTE1OS43NTMyNSwxMzMuMjI2OTg1IEMxNTYuMjIxMTM0LDEzOS4zNTEyNzcgMTUyLjU5NDkwMywxNDUuMTk3NjQ5IDE0OC45MTM1NzEsMTUwLjcxNjIzIEMxNDIuMjA4NTAyLDE1MS4xOTU2NTEgMTM1LjI4MTQyLDE1MS40NDI2MDIgMTI4LjIyMTIxLDE1MS40NDI2MDIgQzEyMS4xODk1NTYsMTUxLjQ0MjYwMiAxMTQuMzQ5NzUsMTUxLjIyNDIwNyAxMDcuNzYzMzMxLDE1MC43OTY2NjkgQzEwMy45MzM1ODcsMTQ1LjIwNTY5NCAxMDAuMjI4NTI1LDEzOS4zNDIwMjcgOTYuNzE4OTMxNywxMzMuMjc5NjczIEw5Ni43MTk3MzYxLDEzMy4yNzk2NzMgQzkzLjIxOTM5MzUsMTI3LjIzMzgxIDg5Ljk5Nzc3NTQsMTIxLjEzNjg2NyA4Ny4wNzg2MTEyLDExNS4wNzQxMTIgQzg5Ljk5Njk3MDksMTA4Ljk5NzI3OSA5My4yMTAxNDI5LDEwMi44OTM0OTkgOTYuNjkwMzc1NSw5Ni44NTg0OTQ5IEw5Ni42ODk1NzExLDk2Ljg1OTcwMTUgQzEwMC4xNzkwNTQsOTAuODA4NjA5NiAxMDMuODUxNTM4LDg0Ljk3MzQ5ODggMTA3LjY0NTg4OCw3OS40MTc1MTQ1IEMxMTQuMzY1ODM4LDc4LjkwOTUzNjYgMTIxLjI1NjcyMyw3OC42NDQ0ODcxIDEyOC4yMjA4MDgsNzguNjQ0NDg3MSBMMTI4LjIyMTIxLDc4LjY0NDQ4NzEgQzEzNS4yMTY2NjYsNzguNjQ0NDg3MSAxNDIuMTE2Mzk5LDc4LjkxMTU0NzUgMTQ4LjgzNDMzNyw3OS40MjM5NDk4IEMxNTIuNTcwNzcxLDg0LjkzOTMxMTkgMTU2LjIxODMxOSw5MC43NTU1MTkyIDE1OS43MjE0NzcsOTYuODA3NDE1NiBDMTYzLjI2NDQ1MywxMDIuOTI3Mjg0IDE2Ni41MTkwNTEsMTA4Ljk5MDQ0MSAxNjkuNDYyMzQ3LDExNC45MzY5NjIgQzE2Ni41Mjc5LDEyMC45ODU2NCAxNjMuMjgwNTQxLDEyNy4xMDk5MzMgMTU5Ljc1MzI1LDEzMy4yMjY5ODUgTDE1OS43NTMyNSwxMzMuMjI2OTg1IEwxNTkuNzUzMjUsMTMzLjIyNjk4NSBaIE0xNzkuNjY1NzQ3LDI1LjQzNTA5ODIgQzE4Ny4yMzIzMjcsMjkuNzk4NTYwOSAxOTAuMTc0ODE4LDQ3LjM5NjM5OTEgMTg1LjQyMDgyLDcwLjQ3MjU5NyBDMTg1LjExNzU2MSw3MS45NDUwNDk1IDE4NC43NzYwOTUsNzMuNDQ0ODUxNSAxODQuNDA1MjY2LDc0Ljk2NDc2MzUgQzE3NS4wMzA3OTksNzIuODAxNzM0NSAxNjQuODUxMTI5LDcxLjE5MjEzMiAxNTQuMTkzMjQ1LDcwLjE5MjI2MzkgQzE0Ny45ODQ0OSw2MS4zNTA3MTE3IDE0MS41NTA1MDQsNTMuMzEyNzU0MSAxMzUuMDkyMzg2LDQ2LjM1Mzg5NzggQzEzNi44Mjg2ODIsNDQuNjgzNTYzMyAxMzguNTYyNTY0LDQzLjA5MDg1MzEgMTQwLjI4OTIwNiw0MS41ODc4MzM1IEMxNTYuOTcwODM0LDI3LjA3MDQ0MTUgMTcyLjU2MjA5OSwyMS4zMzg2OTYgMTc5LjY2NTc0NywyNS40MzUwOTgyIEwxNzkuNjY1NzQ3LDI1LjQzNTA5ODIgTDE3OS42NjU3NDcsMjUuNDM1MDk4MiBaIi8+CiAgICA8cGF0aCBmaWxsPSIjNTNDMURFIiBkPSJNMTI4LjIyMTIxLDk0LjY2NTMwMDggQzEzOS4zNjQ1NSw5NC42NjUzMDA4IDE0OC4zOTgzNTMsMTAzLjY5ODcwMiAxNDguMzk4MzUzLDExNC44NDI0NDQgQzE0OC4zOTgzNTMsMTI1Ljk4NTc4NCAxMzkuMzY0NTUsMTM1LjAxOTU4OSAxMjguMjIxMjEsMTM1LjAxOTU4OSBDMTE3LjA3Nzg3LDEzNS4wMTk1ODkgMTA4LjA0NDA2NiwxMjUuOTg1Nzg0IDEwOC4wNDQwNjYsMTE0Ljg0MjQ0NCBDMTA4LjA0NDA2NiwxMDMuNjk4NzAyIDExNy4wNzc4Nyw5NC42NjUzMDA4IDEyOC4yMjEyMSw5NC42NjUzMDA4Ii8+Cjwvc3ZnPg==;html=1;labelPosition=center;align=center;spacingLeft=0;rounded=1;movable=1;resizable=1;rotatable=1;deletable=1;editable=1;connectable=1;" parent="101" vertex="1">
                    <mxGeometry x="3.263735636871754" y="375.3503028710291" width="56.59470213955764" height="51.01791613450951" as="geometry"/>
                </mxCell>
                <mxCell id="25" value="D3.js" style="shape=image;verticalLabelPosition=bottom;labelBackgroundColor=none;verticalAlign=top;aspect=fixed;imageAspect=0;image=data:image/svg+xml,PHN2ZyB4bWxuczp4bGluaz0iaHR0cDovL3d3dy53My5vcmcvMTk5OS94bGluayIgeG1sbnM9Imh0dHA6Ly93d3cudzMub3JnLzIwMDAvc3ZnIiBwcmVzZXJ2ZUFzcGVjdFJhdGlvPSJ4TWlkWU1pZCIgdmVyc2lvbj0iMS4xIiB2aWV3Qm94PSIwIDAgMjU1LjkxNzMyNzg4MDg1OTM4IDI0Mi40MTA2NTk3OTAwMzkwNiIgaGVpZ2h0PSIyNDIuNDEwNjU5NzkwMDM5MDYiIHdpZHRoPSIyNTUuOTE3MzI3ODgwODU5MzgiPgogICAgPGRlZnM+CiAgICAgICAgPGxpbmVhckdyYWRpZW50IGlkPSJsaW5lYXJHcmFkaWVudC0xIiB5Mj0iMTA2LjA0MTgyNiUiIHgyPSIxMDMuNzY3MzUzJSIgeTE9Ii05Mi44MTk4NzglIiB4MT0iLTgyLjYzNjcyNTglIj4KICAgICAgICAgICAgPHN0b3Agb2Zmc2V0PSIwJSIgc3RvcC1jb2xvcj0iI0Y5QTAzQyIvPgogICAgICAgICAgICA8c3RvcCBvZmZzZXQ9IjEwMCUiIHN0b3AtY29sb3I9IiNGNzk3NEUiLz4KICAgICAgICA8L2xpbmVhckdyYWRpZW50PgogICAgICAgIDxsaW5lYXJHcmFkaWVudCBpZD0ibGluZWFyR3JhZGllbnQtMiIgeTI9Ijk4Ljc2ODQ5MzclIiB4Mj0iOTcuNjIwMjQ3OSUiIHkxPSItMjQ4Ljk3MDI2MyUiIHgxPSItMjU4LjkyMzgyNSUiPgogICAgICAgICAgICA8c3RvcCBvZmZzZXQ9IjAlIiBzdG9wLWNvbG9yPSIjRjlBMDNDIi8+CiAgICAgICAgICAgIDxzdG9wIG9mZnNldD0iMTAwJSIgc3RvcC1jb2xvcj0iI0Y3OTc0RSIvPgogICAgICAgIDwvbGluZWFyR3JhZGllbnQ+CiAgICAgICAgPGxpbmVhckdyYWRpZW50IGlkPSJsaW5lYXJHcmFkaWVudC0zIiB5Mj0iMTAxLjY5MDgxOCUiIHgyPSI5NC4wMjgzMzc3JSIgeTE9Ii0yNjEuOTY3OTQ3JSIgeDE9Ii0yMjMuMTYyNjI5JSI+CiAgICAgICAgICAgIDxzdG9wIG9mZnNldD0iMCUiIHN0b3AtY29sb3I9IiNGOUEwM0MiLz4KICAgICAgICAgICAgPHN0b3Agb2Zmc2V0PSIxMDAlIiBzdG9wLWNvbG9yPSIjRjc5NzRFIi8+CiAgICAgICAgPC9saW5lYXJHcmFkaWVudD4KICAgICAgICA8bGluZWFyR3JhZGllbnQgaWQ9ImxpbmVhckdyYWRpZW50LTQiIHkyPSI5Mi4xMDY3NDc4JSIgeDI9IjgyLjQ5NjE5MyUiIHkxPSItMS44MjE2OTc3NCUiIHgxPSIxMS4zMzg3MTIzJSI+CiAgICAgICAgICAgIDxzdG9wIG9mZnNldD0iMCUiIHN0b3AtY29sb3I9IiNGMjZENTgiLz4KICAgICAgICAgICAgPHN0b3Agb2Zmc2V0PSIxMDAlIiBzdG9wLWNvbG9yPSIjRjlBMDNDIi8+CiAgICAgICAgPC9saW5lYXJHcmFkaWVudD4KICAgICAgICA8bGluZWFyR3JhZGllbnQgaWQ9ImxpbmVhckdyYWRpZW50LTUiIHkyPSI3Mi4zODAyNTc5JSIgeDI9IjEyMC4xMjYwOTElIiB5MT0iMy44NTgwMzExNCUiIHgxPSIxNS44NDM2NDczJSI+CiAgICAgICAgICAgIDxzdG9wIG9mZnNldD0iMCUiIHN0b3AtY29sb3I9IiNCODRFNTEiLz4KICAgICAgICAgICAgPHN0b3Agb2Zmc2V0PSIxMDAlIiBzdG9wLWNvbG9yPSIjRjY4RTQ4Ii8+CiAgICAgICAgPC9saW5lYXJHcmFkaWVudD4KICAgICAgICA8bGluZWFyR3JhZGllbnQgaWQ9ImxpbmVhckdyYWRpZW50LTYiIHkyPSIxNDcuMzkxMTc5JSIgeDI9IjUxLjg4MTAwMyUiIHkxPSIyMy40NjY0MzI1JSIgeDE9IjQ2Ljk4NDE3MDUlIj4KICAgICAgICAgICAgPHN0b3Agb2Zmc2V0PSIwJSIgc3RvcC1jb2xvcj0iI0Y5QTAzQyIvPgogICAgICAgICAgICA8c3RvcCBvZmZzZXQ9IjEwMCUiIHN0b3AtY29sb3I9IiNGNzk3NEUiLz4KICAgICAgICA8L2xpbmVhckdyYWRpZW50PgogICAgPC9kZWZzPgogICAgPGc+CiAgICAgICAgPHBhdGggZmlsbD0idXJsKCNsaW5lYXJHcmFkaWVudC0xKSIgZD0iTTI1NS41MiwxNzUuNjE4NjY3IEMyNTUuNjM0NjY3LDE3NC41MDQgMjU1LjcxNzMzMywxNzMuMzc4NjY3IDI1NS43ODEzMzMsMTcyLjI0OCBDMjU1Ljg1ODY2NywxNzAuOTA5MzMzIDE3NS4yMTg2NjcsOTQuMzk3MzMzMyAxNzUuMjE4NjY3LDk0LjM5NzMzMzMgTDE3My4yOTA2NjcsOTQuMzk3MzMzMyBDMTczLjI5MDY2Nyw5NC4zOTczMzMzIDI1NS4wMjY2NjcsMTgwLjYxMzMzMyAyNTUuNTIsMTc1LjYxODY2NyBMMjU1LjUyLDE3NS42MTg2NjcgTDI1NS41MiwxNzUuNjE4NjY3IFoiLz4KICAgICAgICA8cGF0aCBmaWxsPSJ1cmwoI2xpbmVhckdyYWRpZW50LTIpIiBkPSJNODMuNDcyLDE0OS4wNzczMzMgQzgzLjM2NTMzMzMsMTQ5LjMxMiA4My4yNTg2NjY3LDE0OS41NDY2NjcgODMuMTQ5MzMzMywxNDkuNzgxMzMzIEM4My4wMzQ2NjY3LDE1MC4wMjY2NjcgODIuOTE3MzMzMywxNTAuMjcyIDgyLjgsMTUwLjUxNDY2NyBDODAuMjI5MzMzMywxNTUuODc0NjY3IDExOC43ODY2NjcsMTkzLjU2OCAxMjEuODg4LDE4OC45ODkzMzMgQzEyMi4wMjkzMzMsMTg4Ljc4NjY2NyAxMjIuMTcwNjY3LDE4OC41NzMzMzMgMTIyLjMxMiwxODguMzcwNjY3IEMxMjIuNDY5MzMzLDE4OC4xMzA2NjcgMTIyLjYyNCwxODcuOTAxMzMzIDEyMi43Nzg2NjcsMTg3LjY2MTMzMyBDMTI1LjI1ODY2NywxODMuODk2IDg0LjU3MzMzMzMsMTQ2LjYyOTMzMyA4My40NzIsMTQ5LjA3NzMzMyBMODMuNDcyLDE0OS4wNzczMzMgTDgzLjQ3MiwxNDkuMDc3MzMzIFoiLz4KICAgICAgICA8cGF0aCBmaWxsPSJ1cmwoI2xpbmVhckdyYWRpZW50LTMpIiBkPSJNMTM3Ljk1NzMzMywyMDIuMDgyNjY3IEMxMzcuODQ4LDIwMi4zMjI2NjcgMTM3LjA3MiwyMDMuNjM0NjY3IDEzNi4zNjI2NjcsMjA0LjMyOCBDMTM2LjI0MjY2NywyMDQuNTY4IDE3NC4wMDI2NjcsMjQyLjAxNiAxNzQuMDAyNjY3LDI0Mi4wMTYgTDE3Ny40MDI2NjcsMjQyLjAxNiBDMTc3LjQwNTMzMywyNDIuMDE2IDE0MS45NTczMzMsMjAzLjY2NjY2NyAxMzcuOTU3MzMzLDIwMi4wODI2NjcgTDEzNy45NTczMzMsMjAyLjA4MjY2NyBMMTM3Ljk1NzMzMywyMDIuMDgyNjY3IFoiLz4KICAgICAgICA8cGF0aCBmaWxsPSJ1cmwoI2xpbmVhckdyYWRpZW50LTQpIiBkPSJNMjU1LjgzNDY2NywxNzEuNTY4IEMyNTQuMDY5MzMzLDIxMC43MTQ2NjcgMjIxLjY4MjY2NywyNDIuMDE2IDE4Mi4xMTQ2NjcsMjQyLjAxNiBMMTc2Ljc2NTMzMywyNDIuMDE2IEwxMzcuMjUwNjY3LDIwMy4wODggQzE0MC41MDEzMzMsMTk4LjUwNCAxNDMuNTIyNjY3LDE5My43NTQ2NjcgMTQ2LjIxMzMzMywxODguODAyNjY3IEwxODIuMTE0NjY3LDE4OC44MDI2NjcgQzE5My40NjkzMzMsMTg4LjgwMjY2NyAyMDIuNzA5MzMzLDE3OS41NjggMjAyLjcwOTMzMywxNjguMjA4IEMyMDIuNzA5MzMzLDE1Ni44NTMzMzMgMTkzLjQ2OTMzMywxNDcuNjEzMzMzIDE4Mi4xMTQ2NjcsMTQ3LjYxMzMzMyBMMTYwLjg2OTMzMywxNDcuNjEzMzMzIEMxNjIuNDg4LDEzOS4wNTYgMTYzLjM3MzMzMywxMzAuMjMyIDE2My4zNzMzMzMsMTIxLjIwNTMzMyBDMTYzLjM3MzMzMywxMTIuMDQgMTYyLjQ3MiwxMDMuMDkwNjY3IDE2MC43OTQ2NjcsOTQuMzk3MzMzMyBMMTczLjk5Miw5NC4zOTczMzMzIEwyNTUuNjAyNjY3LDE3NC44MTA2NjcgQzI1NS42OTg2NjcsMTczLjczMzMzMyAyNTUuNzc2LDE3Mi42NTYgMjU1LjgzNDY2NywxNzEuNTY4IEwyNTUuODM0NjY3LDE3MS41NjggTDI1NS44MzQ2NjcsMTcxLjU2OCBaIE0yMS40NjY2NjY3LDAgTDAsMCBMMCw1My4yMTMzMzMzIEwyMS40NjY2NjY3LDUzLjIxMzMzMzMgQzU4Ljk2LDUzLjIxMzMzMzMgODkuNDY2NjY2Nyw4My43MTIgODkuNDY2NjY2NywxMjEuMjA1MzMzIEM4OS40NjY2NjY3LDEzMS40MDUzMzMgODcuMTkyLDE0MS4wODggODMuMTQ5MzMzMywxNDkuNzgxMzMzIEwxMjIuMzEyLDE4OC4zNzA2NjcgQzEzNS4xNzA2NjcsMTY5LjEzMDY2NyAxNDIuNjg4LDE0Ni4wMzIgMTQyLjY4OCwxMjEuMjA1MzMzIEMxNDIuNjg4LDU0LjM3MzMzMzMgODguMzA2NjY2NywwIDIxLjQ2NjY2NjcsMCBMMjEuNDY2NjY2NywwIEwyMS40NjY2NjY3LDAgWiIvPgogICAgICAgIDxwYXRoIGZpbGw9InVybCgjbGluZWFyR3JhZGllbnQtNSkiIGQ9Ik0xODIuMTE0NjY3LDAgTDk1LjE4NjY2NjcsMCBDMTE2LjQxODY2NywxMi45NjI2NjY3IDEzNCwzMS4zNDQgMTQ1Ljk3ODY2Nyw1My4yMTMzMzMzIEwxODIuMTE0NjY3LDUzLjIxMzMzMzMgQzE5My40NjkzMzMsNTMuMjEzMzMzMyAyMDIuNzA5MzMzLDYyLjQ0OCAyMDIuNzA5MzMzLDczLjgwOCBDMjAyLjcwOTMzMyw4NS4xNjUzMzMzIDE5My40NjkzMzMsOTQuNCAxODIuMTE0NjY3LDk0LjQgTDE3My45OTQ2NjcsOTQuNCBMMjU1LjYwNTMzMywxNzQuODEzMzMzIEMyNTUuNzk3MzMzLDE3Mi42MzIgMjU1LjkxNzMzMywxNzAuNDM3MzMzIDI1NS45MTczMzMsMTY4LjIwOCBDMjU1LjkxNzMzMywxNTAuMjY5MzMzIDI0OS40OCwxMzMuODEzMzMzIDIzOC43OTIsMTIxLjAwNTMzMyBDMjQ5LjQ4LDEwOC4yMDI2NjcgMjU1LjkxNzMzMyw5MS43NDQgMjU1LjkxNzMzMyw3My44MDggQzI1NS45MTczMzMsMzMuMTEyIDIyMi44MTMzMzMsMCAxODIuMTE0NjY3LDAgTDE4Mi4xMTQ2NjcsMCBMMTgyLjExNDY2NywwIFoiLz4KICAgICAgICA8cGF0aCBmaWxsPSJ1cmwoI2xpbmVhckdyYWRpZW50LTYpIiBkPSJNMTc2Ljc2NTMzMywyNDIuMDE2IEw5NS44MDgsMjQyLjAxNiBDMTEyLjEwNCwyMzEuOTUyIDEyNi4xOTIsMjE4LjY2NjY2NyAxMzcuMjUwNjY3LDIwMy4wODggTDE3Ni43NjUzMzMsMjQyLjAxNiBMMTc2Ljc2NTMzMywyNDIuMDE2IFogTTEyMi4zMTIsMTg4LjM3MDY2NyBMODMuMTUyLDE0OS43ODEzMzMgQzcyLjMzMzMzMzMsMTczLjAzMiA0OC43NTczMzMzLDE4OS4yMDI2NjcgMjEuNDY2NjY2NywxODkuMjAyNjY3IEwwLDE4OS4yMDI2NjcgTDAsMjQyLjQxMDY2NyBMMjEuNDY2NjY2NywyNDIuNDEwNjY3IEM2My40NzczMzMzLDI0Mi40MTA2NjcgMTAwLjU1NzMzMywyMjAuOTIyNjY3IDEyMi4zMTIsMTg4LjM3MDY2NyBMMTIyLjMxMiwxODguMzcwNjY3IEwxMjIuMzEyLDE4OC4zNzA2NjcgWiIvPgogICAgPC9nPgo8L3N2Zz4=;html=1;rounded=1;movable=1;resizable=1;rotatable=1;deletable=1;editable=1;connectable=1;" parent="101" vertex="1">
                    <mxGeometry x="163.44391518363852" y="502.6242618739189" width="53.97343679333629" height="51.01791613450951" as="geometry"/>
                </mxCell>
                <mxCell id="26" value="Docker" style="shape=image;verticalLabelPosition=top;labelBackgroundColor=none;verticalAlign=bottom;aspect=fixed;imageAspect=0;image=data:image/svg+xml,PHN2ZyB4bWxucz0iaHR0cDovL3d3dy53My5vcmcvMjAwMC9zdmciIHZpZXdCb3g9IjAgMCAyNCAyNCIgaGVpZ2h0PSI4MDBweCIgd2lkdGg9IjgwMHB4Ij4KICA8cGF0aCBkPSJNNi45NDIyMTA5OSwxNC45MDAyMzQ0IEM2Ljk5ODA2MjEsMTQuOTAwMjM0NCA3LjA1MTI4MjExLDE0LjkxMDc1ODggNy4xMDA0MzU4NiwxNC45Mjk3NzQ1IEM3LjA0NzIxNTg2LDE0Ljk2MDYzMDIgNy4wMTEwOTgwMSwxNS4wMTgzMzUgNy4wMTEwOTgwMSwxNS4wODQyOTE5IEM3LjAxMTA5ODAxLDE1LjE4Mjg5ODQgNy4wOTA5ODc4MiwxNS4yNjI2Njg2IDcuMTg5NTk0MzIsMTUuMjYyNjY4NiBDNy4yNTcxMDU5OSwxNS4yNjI2Njg2IDcuMzE1NzA3NzksMTUuMjI1MTc1NCA3LjM0NjA4NTA2LDE1LjE2OTgwMjcgQzcuMzY3NDMyODYsMTUuMjIxNDA4MiA3LjM3OTM5MjQxLDE1LjI3ODAzNjcgNy4zNzkzOTI0MSwxNS4zMzc0NzU2IEM3LjM3OTM5MjQxLDE1LjU3ODkzOSA3LjE4MzYxNDU1LDE1Ljc3NDY1NyA2Ljk0MjIxMDk5LDE1Ljc3NDY1NyBDNi43MDA4MDc0NCwxNS43NzQ2NTcgNi41MDQ5Njk3OCwxNS41Nzg5MzkgNi41MDQ5Njk3OCwxNS4zMzc0NzU2IEM2LjUwNDk2OTc4LDE1LjA5NTk1MjUgNi43MDA4MDc0NCwxNC45MDAyMzQ0IDYuOTQyMjEwOTksMTQuOTAwMjM0NCBMNi45NDIyMTA5OSwxNC45MDAyMzQ0IFogTTYuOTQyMjEwOTksMTYuMDg1MzY2MiBDNi41Mjk3ODU4NSwxNi4wODUzNjYyIDYuMTk0MjAwODMsMTUuNzQ5OTAwOCA2LjE5NDIwMDgzLDE1LjMzNzQ3NTYgQzYuMTk0MjAwODMsMTQuOTI1MDUwNSA2LjUyOTc4NTg1LDE0LjU4OTUyNTMgNi45NDIyMTA5OSwxNC41ODk1MjUzIEM3LjM1NDU3NjM0LDE0LjU4OTUyNTMgNy42OTAxMDE1NiwxNC45MjUwNTA1IDcuNjkwMTAxNTYsMTUuMzM3NDc1NiBDNy42OTAxMDE1NiwxNS43NDk5MDA4IDcuMzU0NTc2MzQsMTYuMDg1MzY2MiA2Ljk0MjIxMDk5LDE2LjA4NTM2NjIgTDYuOTQyMjEwOTksMTYuMDg1MzY2MiBaIE0yMC4zODU5NDMxLDExLjE4MzgwMzcgQzE4LjI2MTk4NjUsMTYuODExNzg5NCAxMy40NjUzMDkzLDE5LjMxODYzMSA3LjgxMDIzNTI2LDE5LjMxODYzMSBDNS4xMzgyMzIyMiwxOS4zMTg2MzEgMy4wMDY1NjE3MiwxOC4zOTk1OTkyIDEuNjQzMjMyNjIsMTYuODY3MjIxOSBMMS42NTMyNzg2NSwxNi44NjA1ODQzIEMyLjA0NjA5MDEyLDE2Ljg4MDQ5NyAyLjM5NzU4MTM1LDE2Ljg4NzI1NDEgMi43NTQzOTQ1NywxNi44ODcyNTQxIEMzLjA4MDY1MTE0LDE2Ljg4NzI1NDEgMy4zOTk3OTE3OCwxNi44ODM4NDU3IDMuNjk1MzcyMSwxNi44NjcyMjE5IEMzLjcyMTA4NTE0LDE2Ljg2NTc4NjcgMy43NTMyNTYzMywxNi44NjIxOTg5IDMuNzc4Nzg5OTcsMTYuODYwNTg0MyBDMy43NzkwMjkxNiwxNi44NjA1MjQ1IDMuODY5OTgxNTUsMTYuODU0NjA0NiAzLjgyNTQ5MjAyLDE2Ljg1Mzg4NyBDNC41NzY2NzE0NiwxNi44MDc1NDM3IDUuMTU4OTIyMjQsMTYuNzAzMTM2OCA1LjcwMTg4NTg5LDE2LjU0ODIwMDggQzUuNzAyMDA1NDgsMTYuNTQ4MTQxIDUuNzAyMTI1MDgsMTYuNTQ4MTQxIDUuNzAyMjQ0NjcsMTYuNTQ4MDgxMiBDNS44MDA5MTA5OCwxNi41MTk4NTY3IDUuODk2NTg3MzksMTYuNDkwMTM3MiA1Ljk4ODI1NzM1LDE2LjQ1ODM4NDYgQzYuMDkwODEwNTEsMTYuNDIyODA0OSA2LjE0NTEwNjg3LDE2LjMxMDg2MzUgNi4xMDk1ODcsMTYuMjA4MzEwNCBDNi4wNzQwNjcxNCwxNi4xMDU2OTc0IDUuOTYyMTg1NTMsMTYuMDUxMjgxNSA1Ljg1OTU3MjU4LDE2LjA4Njk4MDcgQzUuMTY5OTI1MDMsMTYuMzI1OTMyNiA0LjI2MDEwMjEzLDE2LjQ1NzQ4NzYgMy4xNDUwNTMzMywxNi40ODIxODQxIEwzLjE0NDc1NDM0LDE2LjQ4MjE4NDEgQzIuNTc3MzkzMjEsMTYuNDk0NzQxNiAxLjk1NzE3MDg1LDE2LjQ3OTc5MjIgMS4yODQ1MDU4NywxNi40MzY1NTg0IEwxLjI4NDQ0NjA3LDE2LjQzNjU1ODQgQzEuMTQ1Mjk2NjksMTYuMjUwNzY2OCAxLjAxNjQ5MjMxLDE2LjA1NzY3OTggMC44OTg2OTA3MywxNS44NTc3MTYxIEwwLjcxMjQ4MDUxLDE1LjUxNzIyNzcgQzAuMTQ5OTAzMTk4LDE0LjQxMTIwODMgLTAuMDk2NDAzNzY5NiwxMy4xMTkxNTgyIDAuMDM0MzE0MTMwNSwxMS43MTYwMDM4IEwxNi4zOTY1MzU2LDExLjcxNjAwMzggQzE3Ljc0MDcyOTQsMTEuNzE2MDAzOCAxOS4wNTM0Njk2LDExLjIxNDM2MDQgMTkuNjc2NDQyNywxMC42NjA5OTE5IEMxOC41NjAxMzgxLDkuNzUzMzIxNzQgMTguNjcwNzY0LDcuNTk3MzEzNTYgMTkuMzgyMjM3Nyw2Ljc3NDYxNiBDMTkuOTk5NzA5Myw3LjI3MDc1OCAyMC45OTU0MDE4LDguMzE1ODQzNDIgMjAuODI0MTQxLDkuNjQ2MjIzOTYgQzIxLjYwMTE1MzEsOS4yNTU2MjUgMjIuOTUwNjA5MSw5LjA2MjU5NzgzIDI0LDkuNjY4MTY5NzMgQzIzLjM0MTE0ODMsMTAuOTU0MTgwMyAyMS44OTI5MDY0LDExLjMzODM4MDkgMjAuMzg1OTQzMSwxMS4xODM4MDM3IEwyMC4zODU5NDMxLDExLjE4MzgwMzcgWiBNMi4yNTUwODMyOSwxMS4zMTg4ODY5IEw0LjQ2NzcxOTk1LDExLjMxODg4NjkgTDQuNDY3NzE5OTUsOS4xMDYxMzA2IEwyLjI1NTA4MzI5LDkuMTA2MTMwNiBMMi4yNTUwODMyOSwxMS4zMTg4ODY5IFogTTQuODA4MDg4NzksMTEuMzE4ODg2OSBMNy4wMjA5NjQ2NCwxMS4zMTg4ODY5IEw3LjAyMDk2NDY0LDkuMTA2MTMwNiBMNC44MDgwODg3OSw5LjEwNjEzMDYgTDQuODA4MDg4NzksMTEuMzE4ODg2OSBaIE00LjgwODA4ODc5LDguNzY1NzYxNzYgTDcuMDIwOTY0NjQsOC43NjU3NjE3NiBMNy4wMjA5NjQ2NCw2LjU1MzA2NTMgTDQuODA4MDg4NzksNi41NTMwNjUzIEw0LjgwODA4ODc5LDguNzY1NzYxNzYgWiBNNy4zNjEyNzM2OSwxMS4zMTg4ODY5IEw5LjU3NDAyOTk0LDExLjMxODg4NjkgTDkuNTc0MDI5OTQsOS4xMDYxMzA2IEw3LjM2MTI3MzY5LDkuMTA2MTMwNiBMNy4zNjEyNzM2OSwxMS4zMTg4ODY5IFogTTcuMzYxMjczNjksOC43NjU3NjE3NiBMOS41NzQwMjk5NCw4Ljc2NTc2MTc2IEw5LjU3NDAyOTk0LDYuNTUzMDY1MyBMNy4zNjEyNzM2OSw2LjU1MzA2NTMgTDcuMzYxMjczNjksOC43NjU3NjE3NiBaIE05LjkxNDMzODk5LDExLjMxODg4NjkgTDEyLjEyNzA5NTIsMTEuMzE4ODg2OSBMMTIuMTI3MDk1Miw5LjEwNjEzMDYgTDkuOTE0MzM4OTksOS4xMDYxMzA2IEw5LjkxNDMzODk5LDExLjMxODg4NjkgWiBNOS45MTQzMzg5OSw4Ljc2NTc2MTc2IEwxMi4xMjcwOTUyLDguNzY1NzYxNzYgTDEyLjEyNzA5NTIsNi41NTMwNjUzIEw5LjkxNDMzODk5LDYuNTUzMDY1MyBMOS45MTQzMzg5OSw4Ljc2NTc2MTc2IFogTTkuOTE0MzM4OTksNi4yMTI3NTYyNiBMMTIuMTI3MDk1Miw2LjIxMjc1NjI2IEwxMi4xMjcwOTUyLDQgTDkuOTE0MzM4OTksNCBMOS45MTQzMzg5OSw2LjIxMjc1NjI2IFogTTEyLjQ2NzQwNDMsMTEuMzE4ODg2OSBMMTQuNjgwMTYwNSwxMS4zMTg4ODY5IEwxNC42ODAxNjA1LDkuMTA2MTMwNiBMMTIuNDY3NDA0Myw5LjEwNjEzMDYgTDEyLjQ2NzQwNDMsMTEuMzE4ODg2OSBaIiBmaWxsLXJ1bGU9ImV2ZW5vZGQiIGZpbGw9IiMwREI3RUQiLz4KPC9zdmc+;html=1;labelPosition=center;align=center;rounded=1;movable=1;resizable=1;rotatable=1;deletable=1;editable=1;connectable=1;" parent="101" vertex="1">
                    <mxGeometry x="785.3844451096099" y="657.1141935172512" width="66.61657542393044" height="66.61657542393044" as="geometry"/>
                </mxCell>
                <mxCell id="27" value="Export" style="shape=image;verticalLabelPosition=bottom;labelBackgroundColor=none;verticalAlign=top;aspect=fixed;imageAspect=0;image=data:image/svg+xml,PHN2ZyB4bWxucz0iaHR0cDovL3d3dy53My5vcmcvMjAwMC9zdmciIHdpZHRoPSIyMDIzIiB2aWV3Qm94PSIzOS45NyAyNi43NSAyMDguMDYgMjM0LjUiIGhlaWdodD0iMjUwMCI+PHBhdGggc3Ryb2tlLXdpZHRoPSIxMCIgc3Ryb2tlLW1pdGVybGltaXQ9IjEwIiBzdHJva2U9IiMwMjAyMDIiIGZpbGw9IiNlMGUwZTAiIGQ9Im0yMjcuODIgNjkuNjl2MTkxLjU2aC0xNjcuNjR2LTIzNC41aDEzMS40OHoiLz48cGF0aCBzdHJva2Utd2lkdGg9IjEwIiBzdHJva2UtbWl0ZXJsaW1pdD0iMTAiIHN0cm9rZT0iIzAyMDIwMiIgZmlsbD0iI2ZmZTA4MyIgZD0ibTM5Ljk3IDEyOS43OGgyMDguMDZ2OTIuM2gtMjA4LjA2eiIvPjxwYXRoIGZpbGw9IiNmZmUwODMiIGQ9Im0xODYuMTYgMjguNXMtOS40OCA1Ny40MyA0MC42NiA0NC4xOHoiLz48ZyBmaWxsPSIjMDIwMjAyIj48cGF0aCBkPSJtMTgzLjE3IDI3LjUgNDMuNCA0OC44OSAzLTUuNDgtMzcuOTEtNDQuMTZ6Ii8+PHBhdGggZD0ibTIyMy41OCA3My4wMnYuNjJsLjc1LjAxdi0xbC0uNzUuMTV6Ii8+PHJlY3QgeT0iNjQuNjciIHg9Ijg3LjM3IiB3aWR0aD0iODMuMDciIHJ4PSIzLjYyIiBoZWlnaHQ9IjcuMjMiLz48cmVjdCB5PSI4My44OCIgeD0iODcuMzciIHdpZHRoPSIxMTMuMjYiIHJ4PSIzLjQ5IiBoZWlnaHQ9IjYuOTkiLz48cmVjdCB5PSIxMDIuMzQiIHg9Ijg3LjM3IiB3aWR0aD0iMTEzLjI2IiByeD0iMy43NCIgaGVpZ2h0PSI3LjQ4Ii8+PC9nPjxwYXRoIHN0cm9rZS13aWR0aD0iMTAiIHN0cm9rZS1taXRlcmxpbWl0PSIxMCIgc3Ryb2tlPSIjMDIwMjAyIiBmaWxsPSJub25lIiBkPSJtMTg2LjY2IDMwcy0xMCA1NC4zOSAzNy42NyA0My42NiIvPjxnIGZpbGw9IiMwMjAyMDIiPjxwYXRoIGQ9Im04MS4zOCAxNTQuMjNoMTBsMjguNjcgNDMuMTZoLTkuNDV6Ii8+PHBhdGggZD0ibTEwOC44MyAxNTQuMjMtMjguODQgNDMuMTZoMTAuODhsMjkuMTgtNDMuMTZ6bTE2LjcgMGgxMi42NWw4LjU2IDMwLjQzIDcuNjMtMzAuNDNoMTMuMTV2NDMuMTZoLTcuNTlsLS4yMS0zNC42OC04LjM5IDM0LjY4aC05LjFsLTguNDYtMzMuNjgtLjE1IDMzLjY4aC04LjA5em01MS42MSAwaDguNnYzNi4yOGgyMi4wMXY2Ljg4aC0zMC42MXoiLz48L2c+PC9zdmc+;html=1;rounded=1;movable=1;resizable=1;rotatable=1;deletable=1;editable=1;connectable=1;" parent="101" vertex="1">
                    <mxGeometry x="282.5114922512545" y="500.2610013778629" width="42.97819624710579" height="53.09381754963784" as="geometry"/>
                </mxCell>
                <mxCell id="28" value="TypeScript" style="shape=image;verticalLabelPosition=bottom;labelBackgroundColor=none;verticalAlign=top;aspect=fixed;imageAspect=0;image=data:image/svg+xml,PHN2ZyB4bWxuczp4bGluaz0iaHR0cDovL3d3dy53My5vcmcvMTk5OS94bGluayIgeG1sbnM9Imh0dHA6Ly93d3cudzMub3JnLzIwMDAvc3ZnIiBwcmVzZXJ2ZUFzcGVjdFJhdGlvPSJ4TWlkWU1pZCIgdmVyc2lvbj0iMS4xIiB2aWV3Qm94PSIwIDAgMjU2IDI1NiIgaGVpZ2h0PSIyNTYiIHdpZHRoPSIyNTYiPgoJPGc+CgkJPHBvbHlnb24gcG9pbnRzPSIwIDEyOCAwIDAgMTI4IDAgMjU2IDAgMjU2IDEyOCAyNTYgMjU2IDEyOCAyNTYgMCAyNTYiIHRyYW5zZm9ybT0idHJhbnNsYXRlKDEyOC4wMDAwMDAsIDEyOC4wMDAwMDApIHNjYWxlKDEsIC0xKSB0cmFuc2xhdGUoLTEyOC4wMDAwMDAsIC0xMjguMDAwMDAwKSIgZmlsbD0iIzAwN0FDQyIvPgoJCTxwYXRoIHRyYW5zZm9ybT0idHJhbnNsYXRlKDEwMS42MzQ2NDAsIDE3Ni4xNDI5OTMpIHJvdGF0ZSgtMTgwLjAwMDAwMCkgdHJhbnNsYXRlKC0xMDEuNjM0NjQwLCAtMTc2LjE0Mjk5MykiIGZpbGw9IiNGRkZGRkYiIGQ9Ik0xNDYuNjU4MTMyLDIyMy40MzY4NjMgTDE0Ni43Mzk0MDEsMjEyLjk1MzA1NCBMMTMwLjA3OTA4NCwyMTIuOTUzMDU0IEwxMTMuNDE4NzY3LDIxMi45NTMwNTQgTDExMy40MTg3NjcsMTY1LjYxMzM3MSBMMTEzLjQxODc2NywxMTguMjczNjg5IEwxMDEuNjM0NjQsMTE4LjI3MzY4OSBMODkuODUwNTEyNiwxMTguMjczNjg5IEw4OS44NTA1MTI2LDE2NS42MTMzNzEgTDg5Ljg1MDUxMjYsMjEyLjk1MzA1NCBMNzMuMTkwMTk1MSwyMTIuOTUzMDU0IEw1Ni41Mjk4Nzc2LDIxMi45NTMwNTQgTDU2LjUyOTg3NzYsMjIzLjIzMzY4OSBDNTYuNTI5ODc3NiwyMjguOTIyNTc3IDU2LjY1MTc4MjQsMjMzLjY3Njg2MyA1Ni44MTQzMjIxLDIzMy43OTg3NjggQzU2LjkzNjIyNjksMjMzLjk2MTMwOCA3Ny4yMTMwNTIyLDIzNC4wNDI1NzcgMTAxLjc5NzE3OSwyMzQuMDAxOTQzIEwxNDYuNTM2MjI3LDIzMy44ODAwMzggTDE0Ni42NTgxMzIsMjIzLjQzNjg2MyBaIi8+CgkJPHBhdGggdHJhbnNmb3JtPSJ0cmFuc2xhdGUoMTk0LjU3ODUwNywgMTc2LjE5MDI0MCkgc2NhbGUoMSwgLTEpIHRyYW5zbGF0ZSgtMTk0LjU3ODUwNywgLTE3Ni4xOTAyNDApIiBmaWxsPSIjRkZGRkZGIiBkPSJNMjA2LjU2NjYzMSwyMzQuMjcyMTQ1IEMyMTMuMDY4MjE5LDIzMi42NDY3NDggMjE4LjAyNTY3OSwyMjkuNzYxNjY4IDIyMi41NzY3OSwyMjUuMDQ4MDE4IEMyMjQuOTMzNjE2LDIyMi41Mjg2NTMgMjI4LjQyODIxOSwyMTcuOTM2OTA3IDIyOC43MTI2NjMsMjE2LjgzOTc2NCBDMjI4Ljc5MzkzMywyMTYuNTE0Njg0IDIxNy42NTk5NjUsMjA5LjAzNzg1OSAyMTAuOTE0NTY4LDIwNC44NTI0NjIgQzIxMC42NzA3NTgsMjA0LjY4OTkyMiAyMDkuNjk1NTIsMjA1Ljc0NjQzIDIwOC41OTgzNzcsMjA3LjM3MTgyNyBDMjA1LjMwNjk0OSwyMTIuMTY2NzQ4IDIwMS44NTI5ODEsMjE0LjIzOTEyOSAxOTYuNTcwNDQxLDIxNC42MDQ4NDMgQzE4OC44MDkxNzEsMjE1LjEzMzA5NyAxODMuODExMDc2LDIxMS4wNjk2MDUgMTgzLjg1MTcxMSwyMDQuMjgzNTczIEMxODMuODUxNzExLDIwMi4yOTI0NjIgMTg0LjEzNjE1NSwyMDEuMTE0MDQ5IDE4NC45NDg4NTQsMTk5LjQ4ODY1MyBDMTg2LjY1NTUyLDE5NS45NTM0MTQgMTg5LjgyNTA0NCwxOTMuODQwMzk5IDE5OS43ODA2LDE4OS41MzMwOTcgQzIxOC4xMDY5NDksMTgxLjY0OTkyMiAyMjUuOTQ5NDg5LDE3Ni40NDg2NTMgMjMwLjgyNTY3OSwxNjkuMDUzMDk3IEMyMzYuMjcwNzU4LDE2MC44MDQyMDggMjM3LjQ4OTgwNiwxNDcuNjM4NDk0IDIzMy43OTIwMjgsMTM3Ljg0NTQ3OCBDMjI5LjcyODUzNiwxMjcuMTk5MTI5IDIxOS42NTEwNzYsMTE5Ljk2NjExMyAyMDUuNDY5NDg5LDExNy41Njg2NTMgQzIwMS4wODA5MTcsMTE2Ljc5NjU4OSAxOTAuNjc4Mzc3LDExNi45MTg0OTQgMTg1Ljk2NDcyNywxMTcuNzcxODI3IEMxNzUuNjg0MDkyLDExOS42MDAzOTkgMTY1LjkzMTcxMSwxMjQuNjc5NzY0IDE1OS45MTc3NDMsMTMxLjM0Mzg5MSBDMTU3LjU2MDkxNywxMzMuOTQ0NTI2IDE1Mi45NjkxNzEsMTQwLjczMDU1NyAxNTMuMjUzNjE2LDE0MS4yMTgxNzYgQzE1My4zNzU1MiwxNDEuMzgwNzE2IDE1NC40MzIwMjgsMTQyLjAzMDg3NSAxNTUuNjEwNDQxLDE0Mi43MjE2NjggQzE1Ni43NDgyMTksMTQzLjM3MTgyNyAxNjEuMDU1NTIsMTQ1Ljg1MDU1NyAxNjUuMTE5MDEyLDE0OC4yMDczODMgTDE3Mi40NzM5MzMsMTUyLjQ3NDA0OSBMMTc0LjAxODA2LDE1MC4xOTg0OTQgQzE3Ni4xNzE3MTEsMTQ2LjkwNzA2NSAxODAuODg1MzYyLDE0Mi4zOTY1ODkgMTgzLjcyOTgwNiwxNDAuODkzMDk3IEMxOTEuODk3NDI1LDEzNi41ODU3OTUgMjAzLjExMjY2MywxMzcuMTk1MzE5IDIwOC42MzkwMTIsMTQyLjE1Mjc4IEMyMTAuOTk1ODM4LDE0NC4zMDY0MyAyMTEuOTcxMDc2LDE0Ni41NDEzNTEgMjExLjk3MTA3NiwxNDkuODMyNzggQzIxMS45NzEwNzYsMTUyLjc5OTEyOSAyMTEuNjA1MzYyLDE1NC4wOTk0NDYgMjEwLjA2MTIzNSwxNTYuMzM0MzY3IEMyMDguMDcwMTIzLDE1OS4xNzg4MTEgMjA0LjAwNjYzMSwxNjEuNTc2MjcyIDE5Mi40NjYzMTQsMTY2LjU3NDM2NyBDMTc5LjI1OTk2NSwxNzIuMjYzMjU2IDE3My41NzEwNzYsMTc1Ljc5ODQ5NCAxNjguMzY5ODA2LDE4MS40MDYxMTMgQzE2NS4zNjI4MjIsMTg0LjY1NjkwNyAxNjIuNTE4Mzc3LDE4OS44NTgxNzYgMTYxLjMzOTk2NSwxOTQuMjA2MTEzIEMxNjAuMzY0NzI3LDE5Ny44MjI2MjEgMTYwLjEyMDkxNywyMDYuODg0MjA4IDE2MC44OTI5ODEsMjEwLjU0MTM1MSBDMTYzLjYxNTUyLDIyMy4zMDA3MTYgMTczLjI0NTk5NiwyMzIuMTk5NzY0IDE4Ny4xNDMxMzksMjM0Ljg0MTAzNCBDMTkxLjY1MzYxNiwyMzUuNjk0MzY3IDIwMi4xMzc0MjUsMjM1LjM2OTI4NyAyMDYuNTY2NjMxLDIzNC4yNzIxNDUgWiIvPgoJPC9nPgo8L3N2Zz4=;html=1;rounded=1;movable=1;resizable=1;rotatable=1;deletable=1;editable=1;connectable=1;" parent="101" vertex="1">
                    <mxGeometry x="910.0015519579329" y="40.456843875755155" width="54.97620273115251" height="54.97620273115251" as="geometry"/>
                </mxCell>
                <mxCell id="29" value="TailwindCSS" style="shape=image;verticalLabelPosition=top;labelBackgroundColor=none;verticalAlign=bottom;aspect=fixed;imageAspect=0;image=data:image/svg+xml,PHN2ZyB4bWxuczp4bGluaz0iaHR0cDovL3d3dy53My5vcmcvMTk5OS94bGluayIgeG1sbnM9Imh0dHA6Ly93d3cudzMub3JnLzIwMDAvc3ZnIiBwcmVzZXJ2ZUFzcGVjdFJhdGlvPSJ4TWlkWU1pZCIgdmVyc2lvbj0iMS4xIiB2aWV3Qm94PSIwIC0xLjA2NTgxNDEwMzY0MDE1MDNlLTE0IDI1NiAxNTMuNjAwMDA2MTAzNTE1NjIiIGhlaWdodD0iMTUzLjYwMDAwNjEwMzUxNTYyIiB3aWR0aD0iMjU2Ij4KICAgIDxkZWZzPgogICAgICAgIDxsaW5lYXJHcmFkaWVudCBpZD0ibGluZWFyR3JhZGllbnQtMSIgeTI9IjY3LjU1NTU1NTYlIiB4Mj0iMTAwJSIgeTE9IjMyJSIgeDE9Ii0yLjc3Nzc3Nzc4JSI+CiAgICAgICAgICAgIDxzdG9wIG9mZnNldD0iMCUiIHN0b3AtY29sb3I9IiMyMjk4QkQiLz4KICAgICAgICAgICAgPHN0b3Agb2Zmc2V0PSIxMDAlIiBzdG9wLWNvbG9yPSIjMEVEN0I1Ii8+CiAgICAgICAgPC9saW5lYXJHcmFkaWVudD4KICAgIDwvZGVmcz4KICAgIDxnPgogICAgICAgIDxwYXRoIGZpbGw9InVybCgjbGluZWFyR3JhZGllbnQtMSkiIGQ9Ik0xMjgsLTEuMDY1ODE0MWUtMTQgQzkzLjg2NjY2NjcsLTEuMDY1ODE0MWUtMTQgNzIuNTMzMzMzMywxNy4wNjY2NjY3IDY0LDUxLjIgQzc2LjgsMzQuMTMzMzMzMyA5MS43MzMzMzMzLDI3LjczMzMzMzMgMTA4LjgsMzIgQzExOC41Mzc0ODEsMzQuNDM0MzcwNCAxMjUuNDk3MzYzLDQxLjQ5ODU0ODEgMTMzLjIwMTA2Nyw0OS4zMTg0IEMxNDUuNzUwNzU2LDYyLjA1Njc3MDQgMTYwLjI3NTQzNyw3Ni44IDE5Miw3Ni44IEMyMjYuMTMzMzMzLDc2LjggMjQ3LjQ2NjY2Nyw1OS43MzMzMzMzIDI1NiwyNS42IEMyNDMuMiw0Mi42NjY2NjY3IDIyOC4yNjY2NjcsNDkuMDY2NjY2NyAyMTEuMiw0NC44IEMyMDEuNDYyNTE5LDQyLjM2NTYyOTYgMTk0LjUwMjYzNywzNS4zMDE0NTE5IDE4Ni43OTg5MzMsMjcuNDgxNiBDMTc0LjI0OTI0NCwxNC43NDMyMjk2IDE1OS43MjQ1NjMsLTEuMDY1ODE0MWUtMTQgMTI4LC0xLjA2NTgxNDFlLTE0IFogTTY0LDc2LjggQzI5Ljg2NjY2NjcsNzYuOCA4LjUzMzMzMzMzLDkzLjg2NjY2NjcgMCwxMjggQzEyLjgsMTEwLjkzMzMzMyAyNy43MzMzMzMzLDEwNC41MzMzMzMgNDQuOCwxMDguOCBDNTQuNTM3NDgxNSwxMTEuMjM0MzcgNjEuNDk3MzYzLDExOC4yOTg1NDggNjkuMjAxMDY2NywxMjYuMTE4NCBDODEuNzUwNzU1NiwxMzguODU2NzcgOTYuMjc1NDM3LDE1My42IDEyOCwxNTMuNiBDMTYyLjEzMzMzMywxNTMuNiAxODMuNDY2NjY3LDEzNi41MzMzMzMgMTkyLDEwMi40IEMxNzkuMiwxMTkuNDY2NjY3IDE2NC4yNjY2NjcsMTI1Ljg2NjY2NyAxNDcuMiwxMjEuNiBDMTM3LjQ2MjUxOSwxMTkuMTY1NjMgMTMwLjUwMjYzNywxMTIuMTAxNDUyIDEyMi43OTg5MzMsMTA0LjI4MTYgQzExMC4yNDkyNDQsOTEuNTQzMjI5NiA5NS43MjQ1NjMsNzYuOCA2NCw3Ni44IFoiLz4KICAgIDwvZz4KPC9zdmc+;html=1;labelPosition=center;align=center;rounded=1;movable=1;resizable=1;rotatable=1;deletable=1;editable=1;connectable=1;" parent="101" vertex="1">
                    <mxGeometry x="153.71627609193897" y="264.9725226195013" width="75.82317880680554" height="45.617053978201106" as="geometry"/>
                </mxCell>
                <mxCell id="47" value="Node.js" style="shape=image;verticalLabelPosition=top;labelBackgroundColor=none;verticalAlign=bottom;aspect=fixed;imageAspect=0;image=data:image/svg+xml,PHN2ZyB4bWxuczp4bGluaz0iaHR0cDovL3d3dy53My5vcmcvMTk5OS94bGluayIgeG1sbnM9Imh0dHA6Ly93d3cudzMub3JnLzIwMDAvc3ZnIiBwcmVzZXJ2ZUFzcGVjdFJhdGlvPSJ4TWlkWU1pZCIgdmVyc2lvbj0iMS4xIiB2aWV3Qm94PSI1LjY4NDM0MTg4NjA4MDgwMmUtMTQgMCAyNTYgMjg4LjQ2Mzc3NTYzNDc2NTYiIGhlaWdodD0iMjg4LjQ2Mzc3NTYzNDc2NTYiIHdpZHRoPSIyNTYiPgogICAgPGc+CiAgICAgICAgPHBhdGggZmlsbD0iIzUzOUU0MyIgZD0iTTEyNy45OTk5OTksMjg4LjQ2Mzc3MSBDMTI0LjAyNDg0NCwyODguNDYzNzcxIDEyMC4zMTQ2OTksMjg3LjQwMzcyOCAxMTYuODY5NTY0LDI4NS41NDg2NTYgTDgxLjYyMzE4ODQsMjY0LjYxMjgzOCBDNzYuMzIyOTgsMjYxLjY5NzcyNCA3OC45NzMwODU0LDI2MC42Mzc2ODIgODAuNTYzMTQ1OCwyNjAuMTA3NjYxIEM4Ny43MTg0MjU5LDI1Ny43MjI1NyA4OS4wNDM0Nzc1LDI1Ny4xOTI1NDcgOTYuNDYzNzY4OCwyNTIuOTUyMzgxIEM5Ny4yNTg3OTc5LDI1Mi40MjIzNjEgOTguMzE4ODQwNSwyNTIuNjg3MzcyIDk5LjExMzg3MTgsMjUzLjIxNzM5MiBMMTI2LjE0NDkyNywyNjkuMzgzMDI0IEMxMjcuMjA0OTcsMjY5LjkxMzA0NSAxMjguNTMwMDIxLDI2OS45MTMwNDUgMTI5LjMyNTA1MywyNjkuMzgzMDI0IEwyMzUuMDY0MTgyLDIwOC4xNjU2MzQgQzIzNi4xMjQyMjUsMjA3LjYzNTYxMSAyMzYuNjU0MjQ1LDIwNi41NzU1NzEgMjM2LjY1NDI0NSwyMDUuMjUwNTE5IEwyMzYuNjU0MjQ1LDgzLjA4MDc0NjcgQzIzNi42NTQyNDUsODEuNzU1NjkyOSAyMzYuMTI0MjI1LDgwLjY5NTY1MjYgMjM1LjA2NDE4Miw4MC4xNjU2MzI0IEwxMjkuMzI1MDUzLDE5LjIxMzI1MDYgQzEyOC4yNjUwMSwxOC42ODMyMzA1IDEyNi45Mzk5NTksMTguNjgzMjMwNSAxMjYuMTQ0OTI3LDE5LjIxMzI1MDYgTDIwLjQwNTc5NTQsODAuMTY1NjMyNCBDMTkuMzQ1NzU1MSw4MC42OTU2NTI2IDE4LjgxNTczNDksODIuMDIwNzA0MSAxOC44MTU3MzQ5LDgzLjA4MDc0NjcgTDE4LjgxNTczNDksMjA1LjI1MDUxOSBDMTguODE1NzM0OSwyMDYuMzEwNTYgMTkuMzQ1NzU1MSwyMDcuNjM1NjExIDIwLjQwNTc5NTQsMjA4LjE2NTYzNCBMNDkuMjkxOTI0NywyMjQuODYxMjg2IEM2NC45Mjc1MzY0LDIzMi44MTE1OTUgNzQuNzMyOTE5NiwyMjMuNTM2MjM0IDc0LjczMjkxOTYsMjE0LjI2MDg3MSBMNzQuNzMyOTE5Niw5My42ODExNTkgQzc0LjczMjkxOTYsOTIuMDkxMDk4NSA3Ni4wNTc5NzExLDkwLjUwMTAzNTggNzcuOTEzMDQyOCw5MC41MDEwMzU4IEw5MS40Mjg1NzE2LDkwLjUwMTAzNTggQzkzLjAxODYzNDMsOTAuNTAxMDM1OCA5NC42MDg2OTQ4LDkxLjgyNjA4NzMgOTQuNjA4Njk0OCw5My42ODExNTkgTDk0LjYwODY5NDgsMjE0LjI2MDg3MSBDOTQuNjA4Njk0OCwyMzUuMTk2Njg5IDgzLjIxMzI1MTIsMjQ3LjM4NzE2NCA2My4zMzc0NzM3LDI0Ny4zODcxNjQgQzU3LjI0MjIzNjIsMjQ3LjM4NzE2NCA1Mi40NzIwNTAyLDI0Ny4zODcxNjQgMzguOTU2NTIxNCwyNDAuNzYxOTA2IEwxMS4xMzA0MzQ3LDIyNC44NjEyODYgQzQuMjQwMTY1ODEsMjIwLjg4NjEyOSA1LjY4NDM0MTg5ZS0xNCwyMTMuNDY1ODQgNS42ODQzNDE4OWUtMTQsMjA1LjUxNTUyOCBMNS42ODQzNDE4OWUtMTQsODMuMzQ1NzU1NyBDNS42ODQzNDE4OWUtMTQsNzUuMzk1NDQ2NSA0LjI0MDE2NTgxLDY3Ljk3NTE1NTIgMTEuMTMwNDM0Nyw2NC4wMDAwMDA2IEwxMTYuODY5NTY0LDIuNzgyNjA3NTIgQzEyMy40OTQ4MjQsLTAuOTI3NTM1ODQxIDEzMi41MDUxNzYsLTAuOTI3NTM1ODQxIDEzOS4xMzA0MzYsMi43ODI2MDc1MiBMMjQ0Ljg2OTU2NSw2NC4wMDAwMDA2IEMyNTEuNzU5ODM0LDY3Ljk3NTE1NTIgMjU2LDc1LjM5NTQ0NjUgMjU2LDgzLjM0NTc1NTcgTDI1NiwyMDUuNTE1NTI4IEMyNTYsMjEzLjQ2NTg0IDI1MS43NTk4MzQsMjIwLjg4NjEyOSAyNDQuODY5NTY1LDIyNC44NjEyODYgTDEzOS4xMzA0MzYsMjg2LjA3ODY3NiBDMTM1LjY4NTI5OSwyODcuNjY4NzM5IDEzMS43MTAxNDUsMjg4LjQ2Mzc3MSAxMjcuOTk5OTk5LDI4OC40NjM3NzEgTDEyNy45OTk5OTksMjg4LjQ2Mzc3MSBaIE0xNjAuNTk2Mjc0LDIwNC40NTU0ODggQzExNC4yMTk0NjEsMjA0LjQ1NTQ4OCAxMDQuNjc5MDg5LDE4My4yNTQ2NTkgMTA0LjY3OTA4OSwxNjUuMjMzOTU1IEMxMDQuNjc5MDg5LDE2My42NDM4OTMgMTA2LjAwNDE0MSwxNjIuMDUzODMyIDEwNy44NTkyMTIsMTYyLjA1MzgzMiBMMTIxLjYzOTc1MiwxNjIuMDUzODMyIEMxMjMuMjI5ODEzLDE2Mi4wNTM4MzIgMTI0LjU1NDg2NCwxNjMuMTEzODcyIDEyNC41NTQ4NjQsMTY0LjcwMzkzNSBDMTI2LjY3NDk0NywxNzguNzQ5NDg0IDEzMi43NzAxODcsMTg1LjYzOTc1MyAxNjAuODYxMjgzLDE4NS42Mzk3NTMgQzE4My4xMjIxNTQsMTg1LjYzOTc1MyAxOTIuNjYyNTI2LDE4MC42MDQ1NTYgMTkyLjY2MjUyNiwxNjguNjc5MDkgQzE5Mi42NjI1MjYsMTYxLjc4ODgyMSAxOTAuMDEyNDIzLDE1Ni43NTM2MjQgMTU1LjI5NjA2NSwxNTMuMzA4NDg5IEMxMjYuNDA5OTM4LDE1MC4zOTMzNzUgMTA4LjM4OTIzNSwxNDQuMDMzMTI2IDEwOC4zODkyMzUsMTIwLjk3NzIyNiBDMTA4LjM4OTIzNSw5OS41MTEzODc1IDEyNi40MDk5MzgsODYuNzkwODkwMSAxNTYuNjIxMTE5LDg2Ljc5MDg5MDEgQzE5MC41NDI0NDMsODYuNzkwODkwMSAyMDcuMjM4MDk1LDk4LjQ1MTM0NzIgMjA5LjM1ODE3OCwxMjMuODkyMzQgQzIwOS4zNTgxNzgsMTI0LjY4NzM3MSAyMDkuMDkzMTY3LDEyNS40ODI0MDMgMjA4LjU2MzE0NywxMjYuMjc3NDM0IEMyMDguMDMzMTI3LDEyNi44MDc0NTQgMjA3LjIzODA5NSwxMjcuMzM3NDc0IDIwNi40NDMwNjQsMTI3LjMzNzQ3NCBMMTkyLjY2MjUyNiwxMjcuMzM3NDc0IEMxOTEuMzM3NDc1LDEyNy4zMzc0NzQgMTkwLjAxMjQyMywxMjYuMjc3NDM0IDE4OS43NDc0MTIsMTI0Ljk1MjM4MiBDMTg2LjU2NzI4OSwxMTAuMzc2ODEzIDE3OC4zNTE5NjYsMTA1LjYwNjYyNSAxNTYuNjIxMTE5LDEwNS42MDY2MjUgQzEzMi4yNDAxNjUsMTA1LjYwNjYyNSAxMjkuMzI1MDUzLDExNC4wODY5NTcgMTI5LjMyNTA1MywxMjAuNDQ3MjA1IEMxMjkuMzI1MDUzLDEyOC4xMzI1MDYgMTMyLjc3MDE4NywxMzAuNTE3NiAxNjUuNjMxNDcxLDEzNC43NTc3NjYgQzE5OC4yMjc3NDQsMTM4Ljk5NzkzMSAyMTMuNTk4MzQ0LDE0NS4wOTMxNjkgMjEzLjU5ODM0NCwxNjcuODg0MDU4IEMyMTMuMzMzMzMzLDE5MS4yMDQ5NyAxOTQuMjUyNTg5LDIwNC40NTU0ODggMTYwLjU5NjI3NCwyMDQuNDU1NDg4IEwxNjAuNTk2Mjc0LDIwNC40NTU0ODggWiIvPgogICAgPC9nPgo8L3N2Zz4=;whiteSpace=wrap;html=1;labelPosition=center;align=center;rounded=1;movable=1;resizable=1;rotatable=1;deletable=1;editable=1;connectable=1;" parent="101" vertex="1">
                    <mxGeometry x="552.3919190200259" y="264.9721920359153" width="54.72990934291694" height="61.573347058890825" as="geometry"/>
                </mxCell>
                <mxCell id="51" value="" style="group;movable=1;resizable=1;rotatable=1;deletable=1;editable=1;connectable=1;labelBorderColor=none;rounded=1;shadow=1;" parent="101" vertex="1" connectable="0">
                    <mxGeometry x="23" y="49" width="436.4080794445662" height="161.81507910590253" as="geometry"/>
                </mxCell>
                <mxCell id="49" value="&lt;b&gt;&lt;font style=&quot;font-size: 40px;&quot;&gt;SiteMapper&lt;/font&gt;&lt;/b&gt;" style="text;html=1;align=center;verticalAlign=middle;resizable=1;points=[];autosize=1;strokeColor=none;fillColor=none;fontSize=12;fontFamily=Helvetica;hachureGap=4;fontSource=https%3A%2F%2Ffonts.googleapis.com%2Fcss%3Ffamily%3DArchitects%2BDaughter;movable=1;rotatable=1;deletable=1;editable=1;connectable=1;rounded=1;shadow=1;fontColor=#D9D9D9;" parent="51" vertex="1">
                    <mxGeometry x="56" y="20" width="234" height="60" as="geometry"/>
                </mxCell>
                <mxCell id="50" value="&lt;font style=&quot;font-size: 12px;&quot;&gt;Generate a complete sitemap of domain&lt;/font&gt;" style="text;html=1;align=center;verticalAlign=middle;resizable=1;points=[];autosize=1;strokeColor=none;fillColor=none;fontSize=30;fontFamily=Helvetica;hachureGap=4;fontSource=https%3A%2F%2Ffonts.googleapis.com%2Fcss%3Ffamily%3DArchitects%2BDaughter;movable=1;rotatable=1;deletable=1;editable=1;connectable=1;rounded=1;fontColor=#F0F0F0;" parent="51" vertex="1">
                    <mxGeometry y="52.99360369339163" width="340.90071227162525" height="79.49040554008747" as="geometry"/>
                </mxCell>
                <mxCell id="54" value="P-Queue" style="shape=image;verticalLabelPosition=bottom;labelBackgroundColor=none;verticalAlign=top;aspect=fixed;imageAspect=0;image=data:image/svg+xml,PHN2ZyB4bWxuczp4bGluaz0iaHR0cDovL3d3dy53My5vcmcvMTk5OS94bGluayIgeG1sbnM9Imh0dHA6Ly93d3cudzMub3JnLzIwMDAvc3ZnIiB4bWw6c3BhY2U9InByZXNlcnZlIiBzdHlsZT0iZW5hYmxlLWJhY2tncm91bmQ6bmV3IDAgMCA1MTIgNTEyOyIgdmlld0JveD0iMCAwIDUxMiA1MTIiIHk9IjBweCIgeD0iMHB4IiBpZD0iTGF5ZXJfMSIgdmVyc2lvbj0iMS4xIj4KPHN0eWxlIHR5cGU9InRleHQvY3NzIj4KCS5zdDB7ZmlsbDojRkZDMTFFO30KCS5zdDF7ZmlsbDojMDQyNTVDO30KCS5zdDJ7ZmlsbDojRkM2RTZCO30KCS5zdDN7ZmlsbDojRkZGRkZGO30KCS5zdDR7ZmlsbDojRUYxMTYxO30KPC9zdHlsZT4KPGc+Cgk8cGF0aCBkPSJNMTQzLjcxLDE1Ny42MWwxMjYuNS03Mi45OWMxLjI1LTAuNzIsMi4wMi0yLjA1LDIuMDItMy41bDAuMDEtNDMuNzdjMC02LjQ4LTIuNjYtMTIuOS03LjgzLTE2LjgxJiMxMDsmIzk7JiM5O2MtNi42OS01LjA2LTE1LjI4LTUuNTYtMjIuMzMtMS40OEw2NS4xMywxMjEuMTdjLTYuMjIsMy41OS0xMC4wNiwxMC4yMy0xMC4wNiwxNy40MUw1NSwzNjkuMThjMCw2LjQ3LDIuNjUsMTIuODksNy44MSwxNi44MSYjMTA7JiM5OyYjOTtjNi42OCw1LjA3LDE1LjI5LDUuNTcsMjIuMzUsMS40OWwzNy40OC0yMS42MmMxLjI1LTAuNzIsMi4wMi0yLjA1LDIuMDItMy41bDAuMDUtMTcxLjg1QzEyNC43MSwxNzYuOTMsMTMxLjk1LDE2NC40LDE0My43MSwxNTcuNjEmIzEwOyYjOTsmIzk7eiIgY2xhc3M9InN0MCIvPgoJPHBhdGggZD0iTTQ0Ni45NSwxMjQuNTNjLTMuMTUtMS44Mi02LjYxLTIuNzMtMTAuMDYtMi43M2MtMy40NSwwLTYuOSwwLjkxLTEwLjA1LDIuNzNsLTE3Ni45NiwxMDIuMSYjMTA7JiM5OyYjOTtjLTYuMiwzLjU4LTEwLjA2LDEwLjI1LTEwLjA2LDE3LjQxbC0wLjA3LDIzMS40N2MwLDcuMjcsMy43NiwxMy43OCwxMC4wNSwxNy40MmM2LjMsMy42NCwxMy44MSwzLjY0LDIwLjExLDBsMTc2Ljk1LTEwMi4xMSYjMTA7JiM5OyYjOTtjNi4yLTMuNTgsMTAuMDYtMTAuMjUsMTAuMDYtMTcuNDFMNDU3LDE0MS45NUM0NTcsMTM0LjY4LDQ1My4yNCwxMjguMTYsNDQ2Ljk1LDEyNC41M3oiIGNsYXNzPSJzdDQiLz4KCTxwYXRoIGQ9Ik0yNDAuOTUsMjExLjE0bDExNi43OC02Ny4zOGMxLjI1LTAuNzIsMi4wMi0yLjA1LDIuMDItMy41bDAuMDItNTAuOThjMC02LjQ4LTIuNjYtMTIuOS03LjgzLTE2LjgxJiMxMDsmIzk7JiM5O2MtNi42OS01LjA2LTE1LjI3LTUuNTUtMjIuMzMtMS40OGwtNDguNDMsMjcuOTVMMTUyLjY0LDE3My4xYy02LjIyLDMuNTktMTAuMDYsMTAuMjMtMTAuMDYsMTcuNDFsLTAuMDUsMTc0LjE4bC0wLjAyLDU2LjQxJiMxMDsmIzk7JiM5O2MwLDYuNDgsMi42NSwxMi44OSw3LjgxLDE2LjgxYzYuNjksNS4wNywxNS4yOSw1LjU3LDIyLjM1LDEuNDlsNDcuMi0yNy4yNGMxLjI1LTAuNzIsMi4wMi0yLjA1LDIuMDItMy41bDAuMDUtMTY0LjY0JiMxMDsmIzk7JiM5O0MyMjEuOTUsMjMwLjQ2LDIyOS4xOSwyMTcuOTIsMjQwLjk1LDIxMS4xNHoiIGNsYXNzPSJzdDIiLz4KPC9nPgo8L3N2Zz4=;html=1;movable=1;resizable=1;rotatable=1;deletable=1;editable=1;connectable=1;labelBorderColor=none;" parent="101" vertex="1">
                    <mxGeometry x="675.151354864231" y="483.8968177820401" width="52.656218812692494" height="52.656218812692494" as="geometry"/>
                </mxCell>
                <mxCell id="58" value="Vitest" style="shape=image;verticalLabelPosition=bottom;labelBackgroundColor=none;verticalAlign=top;aspect=fixed;imageAspect=0;image=data:image/svg+xml,PHN2ZyB4bWxuczp4bGluaz0iaHR0cDovL3d3dy53My5vcmcvMTk5OS94bGluayIgeG1sbnM9Imh0dHA6Ly93d3cudzMub3JnLzIwMDAvc3ZnIiBwcmVzZXJ2ZUFzcGVjdFJhdGlvPSJ4TWlkWU1pZCIgdmVyc2lvbj0iMS4xIiB2aWV3Qm94PSItMC4wMDAxMDEyOTY2MzEzMjgyOTU5MiAwIDI1Ni4wMDAxODMxMDU0Njg3NSAyMzMuNTM3MTcwNDEwMTU2MjUiIGhlaWdodD0iMjMzLjUzNzE3MDQxMDE1NjI1IiB3aWR0aD0iMjU2LjAwMDE4MzEwNTQ2ODc1Ij4KICAgIDx0aXRsZT52aXRlc3Q8L3RpdGxlPgogICAgPGc+CiAgICAgICAgPHBhdGggZmlsbD0iI0ZDQzcyQiIgZD0iTTE5Mi4xMTUwMTgsNzAuODA4MzgyMSBMMTMwLjkxNDM1OCwxNTkuMjk2MzI3IEMxMzAuMjY1NTY4LDE2MC4yMzQ1NDEgMTI5LjMyNzE4NSwxNjAuOTM3MzU0IDEyOC4yNDE2MzQsMTYxLjI5ODA3NSBDMTI3LjE1NjA4NCwxNjEuNjU4Nzk2IDEyNS45ODI2MzksMTYxLjY1NTQwOSAxMjQuODk5MjkxLDE2MS4yOTI5OTUgQzEyMy44MTU5NDIsMTYwLjkyODg4NiAxMjIuODgxOTYyLDE2MC4yMjI2ODYgMTIyLjIzODc2LDE1OS4yODI3NzkgQzEyMS41OTU3MjgsMTU4LjM0MTE3OCAxMjEuMjc4NTMxLDE1Ny4yMTY2NzYgMTIxLjMzNTc3MiwxNTYuMDgwMzIgTDEyMy43ODUxMiwxMDcuMjI1ODA2IEw4NC4yNDI5Njk0LDk4LjgzOTgwMiBDODMuMzk3ODk5Nyw5OC42NjA3OTYyIDgyLjYxMDU3OTIsOTguMjc2ODczOCA4MS45NTA2MTIsOTcuNzIyMjQzOCBDODEuMjkwNjQ0Nyw5Ny4xNjc3ODMzIDgwLjc3ODM1MjksOTYuNDU5NTUwNSA4MC40NTkyOTI1LDk1LjY2MDM3NTMgQzgwLjE0MDIzMjEsOTQuODYxMjAwMiA4MC4wMjQyMjU2LDkzLjk5NTgwODEgODAuMTIxNDM0LDkzLjE0MDc0NjYgQzgwLjIxODY0MjQsOTIuMjg1ODU0NCA4MC41MjYwMTc1LDkxLjQ2NzU0MjQgODEuMDE2NDYyNyw5MC43NTg0NjI5IEwxNDIuMjE3ODAxLDIuMjcwMzQ4ODEgQzE0Mi44NjY3NiwxLjMzMTYyNzA3IDE0My44MDUxNDMsMC42Mjg5ODI5MjggMTQ0Ljg5MDY5MywwLjI2ODc2OTg0MyBDMTQ1Ljk3NjQxMywtMC4wOTE0NDMyNDIzIDE0Ny4xNDk4NTgsLTAuMDg5NTgwMzYzMSAxNDguMjMzMzc2LDAuMjc0MzU4NDggQzE0OS4zMTY3MjUsMC42MzgxMjc5NzEgMTUwLjI1MDg3NCwxLjM0Mzk4OTgxIDE1MC44OTM5MDYsMi4yODQ5MTMxMyBDMTUxLjUzNjkzOCwzLjIyNTY2NzEgMTUxLjg1Mzk2Niw0LjM0OTk5OTM0IDE1MS43OTY1NTYsNS40ODczNzE3MyBMMTQ5LjM0NzIwOCw1NC4zNDIzOTM0IEwxODguODg4ODUsNjIuNzI3NzIwNCBDMTg5LjczMzkyLDYyLjkwNjcyNjIgMTkwLjUyMTQxLDYzLjI5MDY0ODYgMTkxLjE4MTg4NSw2My44NDUxMDkyIEMxOTEuODQyMzYxLDY0LjM5OTczOTEgMTkyLjM1MzgwNiw2NS4xMDc5NzE5IDE5Mi42NzIxODksNjUuOTA3MTQ3MSBDMTkyLjk5MjI2NSw2Ni43MDYzMjIyIDE5My4xMDc0MjUsNjcuNTcxNzE0MyAxOTMuMDEwODk0LDY4LjQyNjYwNjQgQzE5Mi45MTQzNjMsNjkuMjgxNjY4IDE5Mi42MDYxNDEsNzAuMDk5OTggMTkyLjExNTAxOCw3MC44MDkwNTk1IEwxOTIuMTE1MDE4LDcwLjgwODM4MjEgWiIvPgogICAgICAgIDxwYXRoIGZpbGw9IiM3MjlCMUIiIGQ9Ik0xMjguMDI0NTI0LDIzMy41MzcxNDggQzEyNi4zOTY3MDcsMjMzLjUzODgzNSAxMjQuNzg0NjM5LDIzMy4yMjA0NTIgMTIzLjI4MDc4NywyMzIuNTk3MjM0IEMxMjEuNzc2OTM2LDIzMS45NzQwMTYgMTIwLjQxMDkzNywyMzEuMDU5NTEyIDExOS4yNjE1NDEsMjI5LjkwNzkxNCBMNjEuNDMzNzA3OSwxNzIuMDg0MTQ1IEM1OS4xMjAzNTA3LDE2OS43NTg5MzQgNTcuODIzNjE3NCwxNjYuNjEwNjY4IDU3LjgyNzg0MDksMTYzLjMzMDMwNyBDNTcuODMyMjU0NCwxNjAuMDQ5OTQ2IDU5LjEzNzI4NTksMTU2LjkwMzM3NCA2MS40NTcwNzg1LDE1NC41ODQ5MzYgQzYzLjc3NjcwMTgsMTUyLjI2NDgwNSA2Ni45MjE3NDk4LDE1MC45NTkwOTYgNzAuMjAyMjgsMTUwLjk1NDAxNSBDNzMuNDgyOTc5NSwxNTAuOTUwNjI4IDc2LjYzMTU4NCwxNTIuMjQ2MTc2IDc4Ljk1NzY0MjYsMTU0LjU1OTUzMyBMMTI4LjAyNDUyNCwyMDMuNjIwOTk2IEwyMzQuOTE3MjA3LDk2LjczMzM5MzcgQzIzNy4yNDc0OTksOTQuNDQwNjk3NSAyNDAuMzg4OTkxLDkzLjE2MTc0NjMgMjQzLjY1NzQ5Nyw5My4xNzUwMjEzIEMyNDYuOTI3Njk3LDkzLjE4ODMzNDcgMjUwLjA1OTAyNyw5NC40OTI4NTgyIDI1Mi4zNjg5OTcsOTYuODA0MzUyNSBDMjU0LjY4MDY2MSw5OS4xMTYwMTYxIDI1NS45ODYzNywxMDIuMjQ3MTc3IDI1NiwxMDUuNTE2MTkxIEMyNTYuMDExNzczLDEwOC43ODUyMDYgMjU0LjczMzE2LDExMS45MjcwMzYgMjUyLjQ0MDEyNiwxMTQuMjU3MTU5IEwxMzYuNzg1MzA2LDIyOS45MDc5MTQgQzEzNS42MzYwNzksMjMxLjA2MTIwNiAxMzQuMjcwNDE5LDIzMS45NzQwMTYgMTMyLjc2NjkwNywyMzIuNTk3MjM0IEMxMzEuMjYzNTYzLDIzMy4yMjA0NTIgMTI5LjY1MTgzNCwyMzMuNTM4ODM1IDEyOC4wMjQ1MjQsMjMzLjUzNzE0OCBaIi8+CiAgICAgICAgPHBhdGggZmlsbD0iIzcyOUIxQiIgZmlsbC1vcGFjaXR5PSIwLjUiIGQ9Ik0xMjcuOTc0NzM1LDIzMy41MzcxNDggQzEyOS42MDI1NTIsMjMzLjUzODgzNSAxMzEuMjE0NjIsMjMzLjIyMDQ1MiAxMzIuNzE4NDcyLDIzMi41OTcyMzQgQzEzNC4yMjIzMjMsMjMxLjk3NDAxNiAxMzUuNTg4MTUyLDIzMS4wNTk1MTIgMTM2LjczNzcxOCwyMjkuOTA3OTE0IEwxOTQuNTY1NTUxLDE3Mi4wODQxNDUgQzE5Ni44Nzg5MDgsMTY5Ljc1ODkzNCAxOTguMTc2MTUsMTY2LjYxMDY2OCAxOTguMTcxMDg0LDE2My4zMzAzMDcgQzE5OC4xNjc2ODIsMTYwLjA0OTk0NiAxOTYuODYxOTczLDE1Ni45MDMzNzQgMTk0LjU0MTg0MiwxNTQuNTg0OTM2IEMxOTIuMjIxNzExLDE1Mi4yNjQ4MDUgMTg5LjA3NjgzMiwxNTAuOTU5MDk2IDE4NS43OTY0NzEsMTUwLjk1NDAxNSBDMTgyLjUxNjExLDE1MC45NTA2MjggMTc5LjM2Nzg0NCwxNTIuMjQ2MTc2IDE3Ny4wNDA5MzksMTU0LjU1OTUzMyBMMTI3Ljk3NDczNSwyMDMuNjIwOTk2IEwyMS4wODIyMjE1LDk2LjczMzM5MzcgQzE4Ljc1MTkyOSw5NC40NDA2OTc1IDE1LjYxMDA5ODYsOTMuMTYxNzQ2MyAxMi4zNDEyNTM4LDkzLjE3NTAyMTMgQzkuMDcyMjM5NjIsOTMuMTg4MzM0NyA1Ljk0MDkwOTEzLDk0LjQ5Mjg1ODIgMy42Mjk0MzE3Niw5Ni44MDQzNTI1IEMxLjMxNzkwMzU4LDk5LjExNjAxNjEgMC4wMTM0MTM5OTEsMTAyLjI0NzE3NyAtMS4yMDMzMjI5NWUtMTQsMTA1LjUxNjE5MSBDLTAuMDEzMjA4MjQ1NSwxMDguNzg1MjA2IDEuMjY1NzQyOTYsMTExLjkyNzAzNiAzLjU1ODM3MTM5LDExNC4yNTcxNTkgTDExOS4yMTM3ODMsMjI5LjkwNzkxNCBDMTIwLjM2MzE4LDIzMS4wNjEyMDYgMTIxLjcyODg0LDIzMS45NzQwMTYgMTIzLjIzMjE4MywyMzIuNTk3MjM0IEMxMjQuNzM1Njk2LDIzMy4yMjA0NTIgMTI2LjM0NzQyNSwyMzMuNTM4ODM1IDEyNy45NzQ3MzUsMjMzLjUzNzE0OCBaIi8+CiAgICA8L2c+Cjwvc3ZnPg==;html=1;movable=1;resizable=1;rotatable=1;deletable=1;editable=1;connectable=1;" parent="101" vertex="1">
                    <mxGeometry x="1011.9844685827239" y="39.00432758196371" width="61.307306627690686" height="56.04228173808625" as="geometry"/>
                </mxCell>
                <mxCell id="53" value="Tanstack Query" style="shape=image;verticalLabelPosition=bottom;labelBackgroundColor=none;verticalAlign=top;aspect=fixed;imageAspect=0;image=data:image/svg+xml,PHN2ZyB4bWxuczp4bGluaz0iaHR0cDovL3d3dy53My5vcmcvMTk5OS94bGluayIgeG1sbnM9Imh0dHA6Ly93d3cudzMub3JnLzIwMDAvc3ZnIiBwcmVzZXJ2ZUFzcGVjdFJhdGlvPSJ4TWlkWU1pZCIgdmVyc2lvbj0iMS4xIiB2aWV3Qm94PSIyLjk4MDIzMjIzODc2OTUzMTJlLTggMCAyNTYgMjI5LjI5NDk2NzY1MTM2NzIiIGhlaWdodD0iMjI5LjI5NDk2NzY1MTM2NzIiIHdpZHRoPSIyNTYiPgogICAgPHRpdGxlPlJlYWN0IFF1ZXJ5PC90aXRsZT4KICAgIDxnPgogICAgICAgIDxwYXRoIGZpbGw9IiMwMDQzNUIiIGQ9Ik0xNTcuOTgwMDg2LDE0Mi40ODcwMjIgTDE1My4wNjk2NDQsMTUxLjAxMzc3OCBDMTUxLjU5MDM1OSwxNTMuNTgyNDIgMTQ4Ljg1MTg3OSwxNTUuMTY1NDY4IDE0NS44ODc3MjUsMTU1LjE2NTQ2OCBMMTA4LjI3MDU0OCwxNTUuMTY1NDY4IEMxMDUuMzA2Mzk1LDE1NS4xNjU0NjggMTAyLjU2NzkxNCwxNTMuNTgyNDIgMTAxLjA4ODYyOSwxNTEuMDEzNzc4IEw5Ni4xNzc3MjY2LDE0Mi40ODcwMjIgTDE1Ny45ODAwODYsMTQyLjQ4NzAyMiBaIE0xNzEuNzI3MTk0LDExOC42MTY4NjMgTDE2My4wNjg3NzcsMTMzLjY1MDg3OCBMOTEuMDg5MDM1OSwxMzMuNjUwODc4IEw4Mi40MzEwNzkxLDExOC42MTY4NjMgTDE3MS43MjcxOTQsMTE4LjYxNjg2MyBaIE0xNjMuMzg2OTM1LDk1LjI3NDgyMDEgTDE3MS43NDEwMDcsMTA5Ljc4MTE4IEw4Mi40MTcyNjYyLDEwOS43ODExOCBMOTAuNzcxMzM4MSw5NS4yNzQ4MjAxIEwxNjMuMzg2OTM1LDk1LjI3NDgyMDEgWiBNMTQ1Ljg4NzcyNSw3My4yMDg2MzMxIEMxNDguODUxODc5LDczLjIwODYzMzEgMTUxLjU5MDM1OSw3NC43OTE2ODA0IDE1My4wNjk2NDQsNzcuMzYwMzIyNyBMMTU4LjI5ODI0NSw4Ni40Mzg2NzYyIEw5NS44NjAwMjg3LDg2LjQzODY3NjIgTDEwMS4wODg2MjksNzcuMzYwMzIyNyBDMTAyLjU2NzkxNCw3NC43OTE2ODA0IDEwNS4zMDYzOTUsNzMuMjA4NjMzMSAxMDguMjcwNTQ4LDczLjIwODYzMzEgTDE0NS44ODc3MjUsNzMuMjA4NjMzMSBaIi8+CiAgICAgICAgPHBhdGggZmlsbD0iIzAwMkIzQiIgZD0iTTUzLjUyMjgyNDMsNjkuMjUxOTY2NiBDNDkuMzU1NzU0Myw0OS4wNDYwMjcgNDguNDYxNDg4OCwzMy41NDgyNDM2IDUxLjE1NTA0MjUsMjIuMjk0NjkzNCBDNTIuNzU3MDE0MSwxNS42MDE3MjU0IDU1LjY4NTgwNTYsMTAuMTQxNjk1NSA2MC4xMzkyNTk0LDYuMjAyMzc4OTYgQzY0Ljg0MDk0NTcsMi4wNDM0ODcyIDcwLjc4NTM5MTQsMC4wMDI3MTM5OTY2OSA3Ny40NjQ1OTksMC4wMDI3MTM5OTY2OSBDODguNDgzMzAyNiwwLjAwMjcxMzk5NjY5IDEwMC4wNjY3MDgsNS4wMjczODg0NSAxMTIuNDQ1NjA4LDE0LjU3Mjk0NDUgQzExNy40OTQ3MzEsMTguNDY2Mzk5MSAxMjIuNzM1MDczLDIzLjE1OTM0NTggMTI4LjE3NzM4MywyOC42NTQ0MTc5IEMxMjguNjEwNTQ3LDI4LjA5Njc2MTUgMTI5LjEwMDE4MywyNy41NzA3NTc0IDEyOS42NDU3MTYsMjcuMDg0NjExNCBDMTQ1LjAzMjA1OCwxMy4zNzMyNTMyIDE1Ny45ODYwMTQsNC44NTQyMTEwNCAxNjkuMDY1NjQ1LDEuNTY5NTI0OTQgQzE3NS42NTM1OTEsLTAuMzgzNTQ4NDM3IDE4MS44Mzg4NTcsLTAuNTY5NjE5OTE0IDE4Ny40NzE0MDksMS4zMjU5MDYyNSBDMTkzLjQxNjkzNSwzLjMyNjc1NzU5IDE5OC4xNTQzMiw3LjQ2MjgwNzcxIDIwMS40OTY2NzUsMTMuMjU2MDkzNyBDMjA3LjAxMjc2NywyMi44MTcxMDYxIDIwOC40Njc0MjYsMzUuMzgwMzQ1NSAyMDYuNDEwOTA3LDUwLjg5MjcyNDUgQzIwNS41NzI2NDksNTcuMjE1NzE3NyAyMDQuMTM5NTg3LDY0LjEwMzI5NiAyMDIuMTE0ODIyLDcxLjU2NjA4MTQgQzIwMi44Nzg3MTMsNzEuNjU4MzI5OCAyMDMuNjQ0NTE4LDcxLjgyNzcwMDUgMjA0LjQwMjU4Miw3Mi4wNzg5MTIgQzIyMy45MjQ0NTUsNzguNTQ4MTgzNSAyMzcuNzQ3OTg0LDg1LjUwNTA5ODYgMjQ2LjExNzA4MSw5My40NTU2MTUgQzI1MS4wOTY0OCw5OC4xODU5NjkyIDI1NC4zNDgwODksMTAzLjQ1MjI4MiAyNTUuNTIzNTIzLDEwOS4yODE3MzggQzI1Ni43NjQxOTUsMTE1LjQzNDczOSAyNTUuNTU0NDQzLDEyMS42MDYzNTcgMjUyLjIxNTk4LDEyNy4zOTUzMzMgQzI0Ni43MTAxNzksMTM2Ljk0MjUyNSAyMzYuNTg2NjM1LDE0NC40NzIyOTYgMjIyLjE2NDMyOCwxNTAuNDM2NDIxIEMyMTYuMzczMjksMTUyLjgzMTIxNiAyMDkuODIxMDc0LDE1NS4wMDAxMDMgMjAyLjUwMDM5MiwxNTYuOTUwNzE1IEMyMDIuODM0NDI3LDE1Ny43MDQ5MjIgMjAzLjA5MzU4NiwxNTguNTA1ODg4IDIwMy4yNjY4ODEsMTU5LjM0NjE4NiBDMjA3LjQzMzk1MSwxNzkuNTUyMTI2IDIwOC4zMjgyMTcsMTk1LjA0OTkwOSAyMDUuNjM0NjYzLDIwNi4zMDM0NTkgQzIwNC4wMzI2OTEsMjEyLjk5NjQyNyAyMDEuMTAzOSwyMTguNDU2NDU3IDE5Ni42NTA0NDYsMjIyLjM5NTc3NCBDMTkxLjk0ODc2LDIyNi41NTQ2NjYgMTg2LjAwNDMxNCwyMjguNTk1NDM5IDE3OS4zMjUxMDcsMjI4LjU5NTQzOSBDMTY4LjMwNjQwMywyMjguNTk1NDM5IDE1Ni43MjI5OTcsMjIzLjU3MDc2NCAxNDQuMzQ0MDk4LDIxNC4wMjUyMDkgQzEzOS4yNDEyMzUsMjEwLjA5MDMxNCAxMzMuOTQzMDYxLDIwNS4zMzg4MTggMTI4LjQzODQ3OSwxOTkuNzY4MDAzIEMxMjcuODcyMTAxLDIwMC42NTM5NjUgMTI3LjE3NjcxNSwyMDEuNDc3NDUzIDEyNi4zNTQyODQsMjAyLjIxMDM1MyBDMTEwLjk2Nzk0MiwyMTUuOTIxNzExIDk4LjAxMzk4NTYsMjI0LjQ0MDc1MyA4Ni45MzQzNTQ4LDIyNy43MjU0MzkgQzgwLjM0NjQwOTQsMjI5LjY3ODUxMiA3NC4xNjExNDMyLDIyOS44NjQ1ODQgNjguNTI4NTkxMiwyMjcuOTY5MDU4IEM2Mi41ODMwNjUzLDIyNS45NjgyMDYgNTcuODQ1Njc5OSwyMjEuODMyMTU2IDU0LjUwMzMyNDUsMjE2LjAzODg3IEM0OC45ODcyMzI3LDIwNi40Nzc4NTggNDcuNTMyNTczOSwxOTMuOTE0NjE4IDQ5LjU4OTA5MzMsMTc4LjQwMjIzOSBDNTAuNDU3NjUxMSwxNzEuODUwNjg3IDUxLjk2NDc5MzEsMTY0LjY5Mjk5NCA1NC4xMDcwNjc0LDE1Ni45MTczNDYgQzUzLjI2OTY5ODMsMTU2LjgzMjUwMSA1Mi40Mjg5MDE3LDE1Ni42NTU0MiA1MS41OTc0MTgzLDE1Ni4zNzk4NzkgQzMyLjA3NTU0NDgsMTQ5LjkxMDYwNyAxOC4yNTIwMTYzLDE0Mi45NTM2OTIgOS44ODI5MTg5NSwxMzUuMDAzMTc2IEM0LjkwMzUxOTk1LDEzMC4yNzI4MjEgMS42NTE5MTA3NiwxMjUuMDA2NTA5IDAuNDc2NDc2OTQ4LDExOS4xNzcwNTMgQy0wLjc2NDE5NTQ4LDExMy4wMjQwNTIgMC40NDU1NTY2NTYsMTA2Ljg1MjQzNCAzLjc4NDAyMDAyLDEwMS4wNjM0NTcgQzkuMjg5ODIwNDUsOTEuNTE2MjY1OSAxOS40MTMzNjQ2LDgzLjk4NjQ5NDEgMzMuODM1NjcyNiw3OC4wMjIzNjkxIEMzOS43OTkyNjEzLDc1LjU1NjIxOCA0Ni41NzAwNjU5LDczLjMyOTYzODIgNTQuMTU2MDQ0OSw3MS4zMzQyOTM2IEM1My44ODU3NjIzLDcwLjY3MjY0MjMgNTMuNjcyMzM2Niw2OS45NzY5NDM0IDUzLjUyMjgyNDMsNjkuMjUxOTY2NiBaIi8+CiAgICAgICAgPHBhdGggZmlsbD0iI0ZGNDE1NCIgZD0iTTE4OS42NDcwODIsMTYxLjMzMjU1MiBDMTkxLjU4ODExNywxNjAuOTg4NTU5IDE5My40NDgxNTQsMTYyLjIzMjk2NSAxOTMuODgxNTE5LDE2NC4xNDIxNjQgTDE5My45MDUzNTUsMTY0LjI1NTIzIEwxOTQuMTEyMTg1LDE2NS4zMjk2MTkgQzIwMC44MjIwNiwyMDAuNjA2Mjc2IDE5Ni4wOTU0OTMsMjE4LjI0NDYwNCAxNzkuOTMyNDgzLDIxOC4yNDQ2MDQgQzE2NC4xMTg2MDMsMjE4LjI0NDYwNCAxNDMuOTg3NzUzLDIwMy4xOTM3OTkgMTE5LjUzOTkzMywxNzMuMDkyMTkgQzExOC45OTk3NjQsMTcyLjQyNzEwMSAxMTguNzA4MzUsMTcxLjU5NDUwOCAxMTguNzE1NTc2LDE3MC43Mzc3MjkgQzExOC43MzMzMzEsMTY4Ljc0MTg3NCAxMjAuMzM1LDE2Ny4xMzA2ODggMTIyLjMxNjY4NCwxNjcuMDg3NDI1IEwxMjIuNDMxNDI1LDE2Ny4wODY2NzggTDEyMy43MTg4ODYsMTY3LjA5NTgwOCBDMTM0LjAwNjY0LDE2Ny4xNTE1ODEgMTQ0LjAwNzg3OSwxNjYuNzkyODc5IDE1My43MjI2MDIsMTY2LjAxOTcwMSBDMTY1LjE5MDMsMTY1LjEwNzAwNyAxNzcuMTY1MTI2LDE2My41NDQ2MjMgMTg5LjY0NzA4MiwxNjEuMzMyNTUyIFogTTc4LjY0NTg2MzMsMTM0LjY2Njg5OCBMNzguNzA3ODQ0NiwxMzQuNzcxNTE5IEw3OS4zNTM4MjMyLDEzNS44OTg5MTggQzg0LjUzMDY2MTYsMTQ0Ljg5OTA0IDg5LjkyNDI0NzksMTUzLjQ0MTI0NCA5NS41MzQ1ODA5LDE2MS41MjU1MyBDMTAyLjE0MTcyNCwxNzEuMDQ2MTggMTA5LjU3MTc2OSwxODAuNjg0MzQxIDExNy44MjQ3MTcsMTkwLjQ0MDAxMiBDMTE5LjEwMTQ1NSwxOTEuOTQ5MjIyIDExOC45NTU2OTksMTk0LjE4OTM3MiAxMTcuNTE1MzM0LDE5NS41MjE2MzYgTDExNy40MjE2MzksMTk1LjYwNTQyNSBMMTE2LjU5MTI1OCwxOTYuMzIwMTQ5IEM4OS4yODUyODY1LDIxOS43MTY5NTUgNzEuNTM3NDYzMiwyMjQuMzg3NzM2IDYzLjM0Nzc4ODQsMjEwLjMzMjQ5MiBDNTUuMzMxMzUxNSwxOTYuNTc0NTYzIDU4LjIzNzc1NzcsMTcxLjU1ODgxNiA3Mi4wNjcwMDY2LDEzNS4yODUyNTEgQzcyLjM3MDg5NjEsMTM0LjQ4ODE2MiA3Mi45NDIwMjQ3LDEzMy44MjEyNTkgNzMuNjgyODkyOSwxMzMuMzk4Mzk0IEM3NS40MTQzMzcxLDEzMi40MTAxMzkgNzcuNjA5NjIzOCwxMzIuOTgwNzk4IDc4LjY0NTg2MzMsMTM0LjY2Njg5OCBaIE0yMDMuNTAzNDAzLDgyLjYxMzEzNDMgTDIwMy42MTUyOTYsODIuNjQ5NTQ4NCBMMjA0LjY0MzA0OCw4My4wMDQ0ODQ2IEMyMzguMzQ3ODA3LDk0LjcyOTAyNCAyNTEuMTUzMTIzLDEwNy42MTM4MjkgMjQzLjA1ODk5NiwxMjEuNjU4ODk5IEMyMzUuMTQyNjg5LDEzNS4zOTU0MTUgMjEyLjEyODk4MywxNDUuMzk2NzY5IDE3NC4wMTc4ODEsMTUxLjY2Mjk2IEMxNzMuMTY3OTk5LDE1MS44MDI2OTcgMTcyLjI5NjAyMSwxNTEuNjQwMTkxIDE3MS41NTM1MjgsMTUxLjIwMzY5NCBDMTY5Ljc5OTgxLDE1MC4xNzI3MTggMTY5LjIxMzkxMiwxNDcuOTE1Mjc3IDE3MC4yNDQ4ODksMTQ2LjE2MTU2IEMxNzUuNzAzNDYxLDEzNi44NzYzODcgMTgwLjYxOTY5NiwxMjcuNjM3NTM4IDE4NC45OTM1OTQsMTE4LjQ0NTAxNCBDMTg5Ljk1NDExMSwxMDguMDE5NjA1IDE5NC42MDkzMDYsOTYuODI5NDA4MiAxOTguOTU5MTc4LDg0Ljg3NDQyMzcgQzE5OS42MTg2ODMsODMuMDYxODcxIDIwMS41NTYwMDgsODIuMDc3NDE5NyAyMDMuMzkxMTg1LDgyLjU4MDQ3MSBMMjAzLjUwMzQwMyw4Mi42MTMxMzQzIFogTTg0LjQ0NjQ3MjMsNzYuNzA5OTc0NSBDODYuMjAwMTkwMSw3Ny43NDA5NTEgODYuNzg2MDg3Niw3OS45OTgzOTE3IDg1Ljc1NTExMTEsODEuNzUyMTA5MSBDODAuMjk2NTM5MSw5MS4wMzcyODE2IDc1LjM4MDMwNDEsMTAwLjI3NjEzIDcxLjAwNjQwNiwxMDkuNDY4NjU1IEM2Ni4wNDU4ODg5LDExOS44OTQwNjQgNjEuMzkwNjk0MiwxMzEuMDg0MjYxIDU3LjA0MDgyMTksMTQzLjAzOTI0NSBDNTYuMzY3ODU3NywxNDQuODg4Nzg5IDU0LjM2NDM4NTQsMTQ1Ljg3NjA4NiA1Mi40OTY1OTY4LDE0NS4zMDA1MzUgTDUyLjM4NDcwNCwxNDUuMjY0MTIxIEw1MS4zNTY5NTE0LDE0NC45MDkxODQgQzE3LjY1MjE5MjgsMTMzLjE4NDY0NSA0Ljg0Njg3Njg3LDEyMC4yOTk4NCAxMi45NDEwMDMzLDEwNi4yNTQ3NyBDMjAuODU3MzExNCw5Mi41MTgyNTM2IDQzLjg3MTAxNjUsODIuNTE2ODk5OSA4MS45ODIxMTg2LDc2LjI1MDcwOTIgQzgyLjgzMjAwMDQsNzYuMTEwOTcyMyA4My43MDM5NzkzLDc2LjI3MzQ3NzUgODQuNDQ2NDcyMyw3Ni43MDk5NzQ1IFogTTE5Mi42NTIyMTIsMTguOTYyNDcxNiBDMjAwLjY2ODY0OCwzMi43MjA0MDA3IDE5Ny43NjIyNDIsNTcuNzM2MTQ3OCAxODMuOTMyOTkzLDk0LjAwOTcxMjggQzE4My42MjkxMDQsOTQuODA2ODAyNCAxODMuMDU3OTc1LDk1LjQ3MzcwNDUgMTgyLjMxNzEwNyw5NS44OTY1Njk1IEMxODAuNTg1NjYzLDk2Ljg4NDgyNTEgMTc4LjM5MDM3Niw5Ni4zMTQxNjYyIDE3Ny4zNTQxMzcsOTQuNjI4MDY1NSBMMTc3LjI5MjE1NSw5NC41MjM0NDQ5IEwxNzYuNjQ2MTc3LDkzLjM5NjA0NiBDMTcxLjQ2OTMzOCw4NC4zOTU5MjM1IDE2Ni4wNzU3NTIsNzUuODUzNzE5NiAxNjAuNDY1NDE5LDY3Ljc2OTQzNDIgQzE1My44NTgyNzYsNTguMjQ4NzgzNiAxNDYuNDI4MjMxLDQ4LjYxMDYyMjYgMTM4LjE3NTI4MywzOC44NTQ5NTIxIEMxMzYuODk4NTQ1LDM3LjM0NTc0MjEgMTM3LjA0NDMwMSwzNS4xMDU1OTIyIDEzOC40ODQ2NjYsMzMuNzczMzI4MSBMMTM4LjU3ODM2MSwzMy42ODk1Mzg3IEwxMzkuNDA4NzQyLDMyLjk3NDgxNDYgQzE2Ni43MTQ3MTMsOS41NzgwMDkyIDE4NC40NjI1MzcsNC45MDcyMjgyMSAxOTIuNjUyMjEyLDE4Ljk2MjQ3MTYgWiBNNzcuNDQ4ODEyMiwxMC41ODk5MjgxIEM5My4yNjI2OTE5LDEwLjU4OTkyODEgMTEzLjM5MzU0MSwyNS42NDA3MzI5IDEzNy44NDEzNjIsNTUuNzQyMzQyNCBDMTM4LjM4MTUzMSw1Ni40MDc0MzEzIDEzOC42NzI5NDUsNTcuMjQwMDI0NCAxMzguNjY1NzE5LDU4LjA5NjgwMzQgQzEzOC42NDc5NjQsNjAuMDkyNjU3OSAxMzcuMDQ2Mjk1LDYxLjcwMzg0NDcgMTM1LjA2NDYxMSw2MS43NDcxMDY4IEwxMzQuOTQ5ODcsNjEuNzQ3ODU0NyBMMTMzLjY2MjQwOCw2MS43Mzg3MjQ3IEMxMjMuMzc0NjU0LDYxLjY4Mjk1MTEgMTEzLjM3MzQxNiw2Mi4wNDE2NTMyIDEwMy42NTg2OTMsNjIuODE0ODMxNCBDOTIuMTkwOTk1Myw2My43Mjc1MjU3IDgwLjIxNjE2ODUsNjUuMjg5OTA4OSA2Ny43MzQyMTI2LDY3LjUwMTk4MDEgQzY1Ljc5MzE3NzUsNjcuODQ1OTczNSA2My45MzMxNDEsNjYuNjAxNTY3IDYzLjQ5OTc3NTgsNjQuNjkyMzY3OCBMNjMuNDc1OTM5NCw2NC41NzkzMDIyIEw2My4yNjkxMTAyLDYzLjUwNDkxMzYgQzU2LjU1OTIzNDcsMjguMjI4MjU2NSA2MS4yODU4MDIsMTAuNTg5OTI4MSA3Ny40NDg4MTIyLDEwLjU4OTkyODEgWiIvPgogICAgICAgIDxnIGZpbGw9IiNGRkQ5NEMiIHRyYW5zZm9ybT0idHJhbnNsYXRlKDgwLjU3NTU0MCwgNzMuNjY5MDY1KSI+CiAgICAgICAgICAgIDxwYXRoIGQ9Ik0zMC43MTg5ODYxLC0xLjM5OTg5NjgxZS0yMyBMNjIuMjk0OTMwOSwtMS4zOTk4OTY4MWUtMjMgQzY2LjkxMjc1MDUsLTEuMzk5ODk2ODFlLTIzIDcxLjE3Nzg5NDcsMi40Njk4NDU3MiA3My40NzY0NDgyLDYuNDc0OTU2MjkgTDg5LjMzMTA5MzEsMzQuMTAwODU1NiBDOTEuNjExODUxNSwzOC4wNzQ5NTk0IDkxLjYxMTg1MTUsNDIuOTYxMDExOCA4OS4zMzEwOTMxLDQ2LjkzNTExNTUgTDczLjQ3NjQ0ODIsNzQuNTYxMDE0OCBDNzEuMTc3ODk0Nyw3OC41NjYxMjU2IDY2LjkxMjc1MDUsODEuMDM1OTcxMiA2Mi4yOTQ5MzA5LDgxLjAzNTk3MTIgTDMwLjcxODk4NjEsODEuMDM1OTcxMiBDMjYuMTAxMTY2NCw4MS4wMzU5NzEyIDIxLjgzNjAyMjEsNzguNTY2MTI1NiAxOS41Mzc0Njg2LDc0LjU2MTAxNDggTDMuNjgyODIzNzUsNDYuOTM1MTE1NSBDMS40MDIwNjUyMiw0Mi45NjEwMTE4IDEuNDAyMDY1MjIsMzguMDc0OTU5NCAzLjY4MjgyMzc1LDM0LjEwMDg1NTYgTDE5LjUzNzQ2ODYsNi40NzQ5NTYyOSBDMjEuODM2MDIyMSwyLjQ2OTg0NTcyIDI2LjEwMTE2NjQsLTEuMzk5ODk2ODFlLTIzIDMwLjcxODk4NjEsLTEuMzk5ODk2ODFlLTIzIFogTTU3LjQ4MjQ1NTUsOC4zMzgxMDYzOCBDNjIuMTAyNzE0LDguMzM4MTA2MzggNjYuMzY5NzIyLDEwLjgxMDUzOTUgNjguNjY3MzY4LDE0LjgxODk4MiBMNzkuNzIzMTYzMSwzNC4xMDY3NzUgQzgxLjk5OTM5NSwzOC4wNzc4NTg1IDgxLjk5OTM5NSw0Mi45NTgxMTI3IDc5LjcyMzE2MzEsNDYuOTI5MTk2MiBMNjguNjY3MzY4LDY2LjIxNjk4OSBDNjYuMzY5NzIyLDcwLjIyNTQzMTkgNjIuMTAyNzE0LDcyLjY5Nzg2NDcgNTcuNDgyNDU1NSw3Mi42OTc4NjQ3IEwzNS41MzE0NjEyLDcyLjY5Nzg2NDcgQzMwLjkxMTIwMjYsNzIuNjk3ODY0NyAyNi42NDQxOTQ3LDcwLjIyNTQzMTkgMjQuMzQ2NTQ4Nyw2Ni4yMTY5ODkgTDEzLjI5MDc1MzMsNDYuOTI5MTk2MiBDMTEuMDE0NTIxNiw0Mi45NTgxMTI3IDExLjAxNDUyMTYsMzguMDc3ODU4NSAxMy4yOTA3NTMzLDM0LjEwNjc3NSBMMjQuMzQ2NTQ4NywxNC44MTg5ODIgQzI2LjY0NDE5NDcsMTAuODEwNTM5NSAzMC45MTEyMDI2LDguMzM4MTA2MzggMzUuNTMxNDYxMiw4LjMzODEwNjM4IEw1Ny40ODI0NTU1LDguMzM4MTA2MzggWiBNNTIuMjk1MzgzLDE3LjQ1NzkxMDIgTDQwLjcxODUzMzYsMTcuNDU3OTEwMiBDMzYuMTAzMDE3NywxNy40NTc5MTAyIDMxLjgzOTYzNDQsMTkuOTI1MzEzIDI5LjU0MDIyNjMsMjMuOTI3Mjc2MiBMMjkuNTQwMjI2MywyMy45MjcyNzYyIEwyMy42OTgwMDQ1LDM0LjA5NTI2NTIgQzIxLjQxMjk2NTgsMzguMDcyMjE5NiAyMS40MTI5NjU4LDQyLjk2Mzc1MTYgMjMuNjk4MDA0NSw0Ni45NDA3MDYxIEwyMy42OTgwMDQ1LDQ2Ljk0MDcwNjEgTDI5LjU0MDIyNjMsNTcuMTA4Njk1IEMzMS44Mzk2MzQ0LDYxLjExMDY1ODMgMzYuMTAzMDE3Nyw2My41NzgwNjA5IDQwLjcxODUzMzYsNjMuNTc4MDYwOSBMNDAuNzE4NTMzNiw2My41NzgwNjA5IEw1Mi4yOTUzODMsNjMuNTc4MDYwOSBDNTYuOTEwODk5MSw2My41NzgwNjA5IDYxLjE3NDI4MjEsNjEuMTEwNjU4MyA2My40NzM2OTAyLDU3LjEwODY5NSBMNjMuNDczNjkwMiw1Ny4xMDg2OTUgTDY5LjMxNTkxMjMsNDYuOTQwNzA2MSBDNzEuNjAwOTUwOCw0Mi45NjM3NTE2IDcxLjYwMDk1MDgsMzguMDcyMjE5NiA2OS4zMTU5MTIzLDM0LjA5NTI2NTIgTDY5LjMxNTkxMjMsMzQuMDk1MjY1MiBMNjMuNDczNjkwMiwyMy45MjcyNzYyIEM2MS4xNzQyODIxLDE5LjkyNTMxMyA1Ni45MTA4OTkxLDE3LjQ1NzkxMDIgNTIuMjk1MzgzLDE3LjQ1NzkxMDIgTDUyLjI5NTM4MywxNy40NTc5MTAyIFogTTQ3LjMwMDc1MzksMjYuMTg2ODY1MyBDNTEuOTEyODEyNiwyNi4xODY4NjUzIDU2LjE3MzU1MjMsMjguNjUwNjA0NSA1OC40NzQyMzg2LDMyLjY0Nzg0NDcgTDU5LjMwMjUwMTMsMzQuMDg2ODc4NyBDNjEuNTkzOTcwNiwzOC4wNjgxMDU2IDYxLjU5Mzk3MDYsNDIuOTY3ODY1NiA1OS4zMDI1MDEzLDQ2Ljk0OTA5MjQgTDU4LjQ3NDIzODYsNDguMzg4MTI2NCBDNTYuMTczNTUyMyw1Mi4zODUzNjY1IDUxLjkxMjgxMjYsNTQuODQ5MTA1OSA0Ny4zMDA3NTM5LDU0Ljg0OTEwNTkgTDQ1LjcxMzE2MjcsNTQuODQ5MTA1OSBDNDEuMTAxMTA0LDU0Ljg0OTEwNTkgMzYuODQwMzY0NCw1Mi4zODUzNjY1IDM0LjUzOTY3ODMsNDguMzg4MTI2NCBMMzMuNzExNDE1Niw0Ni45NDkwOTI0IEMzMS40MTk5NDYzLDQyLjk2Nzg2NTYgMzEuNDE5OTQ2MywzOC4wNjgxMDU2IDMzLjcxMTQxNTYsMzQuMDg2ODc4NyBMMzQuNTM5Njc4MywzMi42NDc4NDQ3IEMzNi44NDAzNjQ0LDI4LjY1MDYwNDUgNDEuMTAxMTA0LDI2LjE4Njg2NTMgNDUuNzEzMTYyNywyNi4xODY4NjUzIEw0Ny4zMDA3NTM5LDI2LjE4Njg2NTMgWiBNNDYuNTA5MDQwOCwzNC43ODU1Mzc1IEM0NC40NTYzMjQ5LDM0Ljc4NTUzNzUgNDIuNTYzMjY3NywzNS44NzgwMzYzIDQxLjUzODM0NzgsMzcuNjUxNzYxNSBDNDAuNTEzNjAwNywzOS40MjUxODc4IDQwLjUxMzYwMDcsNDEuNjEwNzgzNCA0MS41MzgzNDc4LDQzLjM4NDIwOTcgQzQyLjU2MzI2NzcsNDUuMTU3OTM0OSA0NC40NTYzMjQ5LDQ2LjI1MDQzMzggNDYuNTA0ODc2Miw0Ni4yNTA0MzM4IEw0Ni41MDQ4NzYyLDQ2LjI1MDQzMzggQzQ4LjU1NzU5MTksNDYuMjUwNDMzOCA1MC40NTA2NDg4LDQ1LjE1NzkzNDkgNTEuNDc1NTY4OCw0My4zODQyMDk3IEM1Mi41MDAzMTYxLDQxLjYxMDc4MzQgNTIuNTAwMzE2MSwzOS40MjUxODc4IDUxLjQ3NTU2ODgsMzcuNjUxNzYxNSBDNTAuNDUwNjQ4OCwzNS44NzgwMzYzIDQ4LjU1NzU5MTksMzQuNzg1NTM3NSA0Ni41MDkwNDA4LDM0Ljc4NTUzNzUgTDQ2LjUwOTA0MDgsMzQuNzg1NTM3NSBaIE0yLjAxMTI0ODQ5ZS0yMiw0MC41MTc5ODU2IEwxMC4zMjA4MjcxLDQwLjUxNzk4NTYiLz4KICAgICAgICA8L2c+CiAgICA8L2c+Cjwvc3ZnPg==;html=1;whiteSpace=wrap;movable=1;resizable=1;rotatable=1;deletable=1;editable=1;connectable=1;" parent="101" vertex="1">
                    <mxGeometry x="39.063346613545825" y="497.80992903094943" width="61.77924163180087" height="55.26063938752874" as="geometry"/>
                </mxCell>
                <mxCell id="91" value="Worker2" style="rounded=1;whiteSpace=wrap;html=1;fillColor=#008a00;fontColor=#ffffff;strokeColor=#005700;movable=1;resizable=1;rotatable=1;deletable=1;editable=1;connectable=1;" parent="101" vertex="1">
                    <mxGeometry x="900.3278220451529" y="358.20995263625633" width="159.32158034528555" height="92.25096290987997" as="geometry"/>
                </mxCell>
                <mxCell id="92" value="WorkerN" style="rounded=1;whiteSpace=wrap;html=1;fillColor=#008a00;fontColor=#ffffff;strokeColor=#005700;movable=1;resizable=1;rotatable=1;deletable=1;editable=1;connectable=1;" parent="101" vertex="1">
                    <mxGeometry x="900.3278220451529" y="469.26643523815767" width="159.32158034528555" height="92.25096290987997" as="geometry"/>
                </mxCell>
                <mxCell id="94" value="Axios&amp;nbsp; Sisyphus" style="shape=image;verticalLabelPosition=top;labelBackgroundColor=none;verticalAlign=bottom;aspect=fixed;imageAspect=0;image=data:image/svg+xml,PHN2ZyB4bWxucz0iaHR0cDovL3d3dy53My5vcmcvMjAwMC9zdmciIHhtbG5zOnhsaW5rPSJodHRwOi8vd3d3LnczLm9yZy8xOTk5L3hsaW5rIiB2aWV3Qm94PSIwIDAgMTIyIDExNCIgaGVpZ2h0PSIxMTQiIHdpZHRoPSIxMjIiIGlkPSJzdmc4ODYiIHZlcnNpb249IjEuMSI+CiAgPGRlZnMgaWQ9ImRlZnM4OTAiLz4KICAKICA8ZyBpZD0iZzg5MiI+CiAgICA8aW1hZ2UgaWQ9ImltYWdlODk0IiB4bGluazpocmVmPSJkYXRhOmltYWdlL3BuZztiYXNlNjQsaVZCT1J3MEtHZ29BQUFBTlNVaEVVZ0FBQUhvQUFBQnlDQVlBQUFDY0NzV0pBQUFBQVhOU1IwSUFyczRjNlFBQUFBUm5RVTFCQUFDeCYjMTA7and2OFlRVUFBQUFKY0VoWmN3QUFEc0VBQUE3QkFiaVJhKzBBQUZINVNVUkJWSGhlN2IwRmdGWFYrajc4bk03cGhBbUc3aTZSRWtVUiYjMTA7QkxIMTJzbTF1eHNGNDZvb2RuZUNnb3FGU2ltS0lDRU5Bd3c5RE5OeDV2VForM3ZldGVkdzhWNUtTdTcvKzcydzU5U090ZGJ6eHZPdSYjMTA7dGZiYStELzVQL2wvVWpwMTZsTGo5U2JxQ1FsSitsRkhIYTJiVFRaZms1eWM1YjI2ZGV6ZnNNdi95Zit5M0h2djZLcms1QlRkWnJYcCYjMTA7SmtCdEZvdEZCeXg4YjlMdEZsTXNOY2w3MmRGSEg1M1FjTWoveWYrU25IdnVSWDJIRHo5WjkzcTl1c2xrVWdCYkxRVFdadEZ0M0JvMSYjMTA7eWxhQVd5MVczVXpBTTlQU3hnOFpPTENnNGZEL2svOFZTVTFOTDNXNzNickpERDA3TzAxL2RPeDkrdklsOC9YdEpTdjF5dklpL2NPUCYjMTA7M3RLSERUdEJkenFkVkFLemJqVmI5QVNYYThiZ3dRTXZiempGLzhtUktxTkhqem4xa2tzdTA1T1NrbldyMWFyYkhWYTlSOCtPK25kVCYjMTA7SitrYjFpMGl3QnNJOUFxK3J0TzNGcS9XMTZ4WnJOOTU1ODE2WmtZYVk3YUp4NWgxbDlOWjNiVlQyOWZvMitrRS92ZmxiNjFFUVVFTCYjMTA7dmF5OERKNWtCendKSHJScjNoYXBLV25Jejg5SHk1WXR0MTk4OGNYWkRiditKUmt6WnN5MmYvM3J5ZXphMmxva0pYa3g0dVNodVBXMiYjMTA7RzVHZGxVNmJqVUxUZFZqTUR2ajhJWGc5RnBqRjNFMFdmRGJwYzR4NTZFbHMzbElNcTlVT3F3VmFXbXJxWndsSjVxdFdyU3F1YURqOSYjMTA7dm9pTld6STN0OFdDRm5vTTNSZzIwdXhXczludGNmL2NQRDFyMXJ5MWErdjRPL1hvLzNFWjgvQlkzVzUzc3FKbXRqRTNzU0szVS9kNCYjMTA7M0xURUpMclp4bnFMRnEzMHBnVXRLa2VNT0dYanUrOThXTnR3NkY0bHUxRmp1bXFUM3FRZ1YzL2lYdy9vaGF2bjZlVmxoWHJKdGhWNiYjMTA7V2NscWZkdldGVHRjZHhrdHU3Umt1Ykx3aW9vaS9kdHZQdFg3OU9xaDNEaG8zWGFiVGZjNG5WT1NrNU03bm5ubW1aYUdTL3luaU1GayYjMTA7Y09zRGkvME13SG9IbFdjQno2R1pUUlo2Q2RaUDZrbmlaMk81R21XbVA5K3VYYnRVZGVSaGtyL05vc2x1OWQ5K202dmVKeWNub0thMiYjMTA7RGxvc3BncGt0VmtRaldyUU5iNm5XWGs4WG00ZTBCb1ljMU9SazV1RFNaOU4ybVhaenp6cmJQMnp6eWFpWGJ2V3VQZWVPOUNuVHc5YSYjMTA7clJPUlNJam5zaUlXMWRWck5CYUd6ZXBBTEJhaGhmTkNGSG14MjEwb1hGMkU4YysraUk4bWZLYXMzV0ltVFRPYjUrYm5aRCsvZHYybSYjMTA7OTlYT2hxUnhPNTRGT1pvYW04ZkN0K09PVFV3YUhMUmcyR2pYdVhrNXlNek1RakFReHVyVmhRZ0VRbkE2N1hyM3JoMWZiWlJiY1AzRSYjMTA7aVJQRHhxa09yZnh0UUpQOFJEVXRhb2xFWTNqampaZlJybjBiMkN4bWhFSmhsSmVYWThPR2pWaTFhalVXTGx6STEwTFUxZGJ6S05YZyYjMTA7Y0RnY1BONmxOcGZMeGM5TzVPWGxFeVFiWnMyYURwNFhwNTErTWg1N2RBeDBQUUtyR1loRUNhek5UbVhTdVo5ZEFSMkxhUVRSeXZQUyYjMTA7ZUhsZTdzeGpCU0E3eXNvcThNSEhrL0RRUTJQWlNOSk1KamwvWlNRUzJjd1BBVjNUUEh5MWM4c2dwdUttelZhYkZWbVpHVGp1dUlFWSYjMTA7ZE94QWRPM2FtUW9iaHBuK094UU1ZL3d6TCtMalR6N25aVFNrSmlaRWhnOGIzT21kanlhdDRyR0hYUDQyb00xbXM2WXpNaVludVRGNyYjMTA7OWd4a1ptVkFpMFpVZ1RSTlU1b2ZDQVFJUmd3MU5UVUVmaE9XTEZ1SlJYOHN3WklseTFDNnZkdzRFWVg0RUFTSHN0UmdvQjQ5ZW5iRiYjMTA7d3cvZmo2NWRPdko4RWdZMTJCMTIvaGFnTjZheUVCbGwwVFE1WFdNZ3BtS0lzRXpxZWxJSVhaWE9pdSsvL3hIMzNQTWd0cGRXMGh0byYjMTA7dklhTlNrUGxvVkphMUdaQmNsSUNqaG5ZRnhlY2Z5NTY5dXpPNDJNSWg4TXNrNVZYajZuNjBHMWowYUxGdVBlK1I3RDRqNVc4ZmhROSYjMTA7dTNldFB2R2tFUm1qUjQ4MkNuQUk1VzhCK3NFSEg5UWZlZVFSUk5nWUp3NDlCcysvTUo2V2FZTkYzSjI0VnkxR1M0aXBScFRHajBaaSYjMTA7eXZycTZ1dFI3dy95dUNoS1M4dXdkT2x5L1BycnIxZ3dmeEUvVnlqQXUzYnRoRHZ1dkJrREIvVGo4WVNZd01YWXFBS3FpSUFzRFcrMSYjMTA7TllES3lDbkhpZWg4bzF5dTNVSlhUNWRPQlRCYjdGaTJiQlhlZXZ0OUFyVk1IU3RLbVpmYm1JU3hPYnAzNzRaMmJWc2hLY0ZMQldCNCYjMTA7NEVVRjFDakxHeFdGRUhlaW10bXM2dkx5SzIvanFYSFBvNmE2V2wzMzlOTkczdnJwcEMrZVVnVTRoUEszQU4ydlh6Lzl0MS9uS0cyLyYjMTA7Nzc3YmNkR0YvMEJDb291L21GVGpTNFBFQVpIR2w4L3lXL3k5TkZDRTRBZjhBVlJWVlN2UWx5OWZnZUxpWXZRK3FqZU82dDJMN3R3TyYjMTA7aTVVVVNLeFQ3UjlWTGx2T0VRcUZGSmpLaFVlanRGNDZaMTVQOWxOQ2l6U0VYK2k4SGtFS01xUnNaRGlSOGpWdjBSd2VyMGNCU1JldSYjMTA7cmtIZXB2YlhxS1Jhekt3OFRMejhPMHRsdFEvWDMzQXJwazJicGJ4RzQ2eXM2blBPTzZQSGswOCt0NjVobDBNaWZ3dlEwdGRjNy9PeCYjMTA7Y1RUOE1IVUsybmRvUmVzajdMUUNCYXBxZEZwWHcvN3h4dUxYaWpnSktMSXBLMkZhSkkwdnFWUXdHRUppWWlKanQ0T1dhQ0s0NGo1dCYjMTA7YkhBQnJPRnNCRVJjdk1acnlYRW1NejJIbWU0NEl0ZTJLSGNzYmxjVVFkT2tyNnloTEx5ZUVEZXhVSjM1RXZlV2t5bGRpSmRITmtuZCYjMTA7d0hySk5lVTRpNFhYSXVETUFxUWlQTWFNNlRObTQ4WWI3bEFLYWpWYm92MzY5dnhreGs5enpsZmxPMFFpcFQzc1VrOFhMQ0k1TTFNbyYjMTA7QXpScEgya1V4bEJOR2xkZVdUelZvQVRBUkhCTWZCVmdaUlAzS05Za0ZpVGdKQ1o2NlZMVEZjanlXU3hNblZZMXJxNHNWNzZYOXhJeSYjMTA7NUd1MWFRYklDbnllS3c2cVdESi81TjRTczQxWE00OVhPc05yQzBIalh1b2E4bzBRTERsZWptR2hXV3FXa0hYZ2w2cVJUVHhRako2bCYjMTA7eDBsRGhxQlY2d0xXbDU0bXBsbC8vbVZlbjN0dnY2bWpuT2xRaVpUaHNJdlJtRHE2ZEd2SHhoTWVJcTBuVGNNR2tkLzRtVm1zZW8xdiYjMTA7MHNJQ2pQcFdkbGNmVkNzYkZpTWtTLzRKUnZ5Tlg5RkNTWWJFa25sdThSU3lYMHdMSytzU0RpRHBsVGdRNFFJU2syMU02NHp6U1Z5UCYjMTA7dSsrREs4SVhnaUUvZWNxOWNERnJFQ1ZpQ0NuNGZ0cjBzVS9kZEpQRXIwTWloeDNvazA4K1JRWVIrRTdId0lIOWxEczBzK0dOOU1hQSYjMTA7em9CUEFHNTRMNWdhNk1xbkhhSXNieGVpbEVDZGk3ODNIQktQN1ZhemcwaGE0TEE3RmZNVk05TjB3OXBGT2NUeUhjcjFHOGNkYkRHdSYjMTA7RTBXM3JsM0lWWHFyOGdXQ1FmUEc5WnZiTHlyWk9LeGh0NE11aHgxb1lja0dTUkZTMWxlNVdoWGJwSlhqcUJ3eUVlaWRqTThFbEJaTSYjMTA7YnM5eUdHVXhtc0prcEU5azlaSnZId29SaXhiR0h3ejY4ZERvKytTU1N1cER3U1p6NXMwLy9vRUhIbkFhM3h4Y09leEFWMVJJbDdHTyYjMTA7dExRa05HMWFRTklqN3BWdVdZQSsxRGhUQkVBVGlackdrR0Z6TXRaU3lhd1dtM0w5MElXTTJaVExkempjRFVjY1hMRUkxK0ExTFl4TiYjMTA7cmR1MHhJRCtmVlQ5L1lHZ0pSS09uYkZzMGJ3TEduWTlxSEpZZ0Q3N3JMTUM1NTU3bnY3QUF3K3lUc0o2TFdqZnZyM3F4QkJtTE45SiYjMTA7NzFGY3V3K2RTRGlJd21TakZWc1poNWtlaVhXemdiRmgvV2I4ODU5WG8xRjJjM3cxNVZzRUFzR0dZdzZ1U0dZaHZYOENkbjF0RGU2KyYjMTA7K3c1NFBDN1ZCdHRMUzlQbXpadmYrNXdSSTdJYWRqOW9ja2lBdnZ6eUt6YXhJc1pBUDdjSkV5YzZQL3JvUXp6MDBHaFcwRWc3Qmg3VCYjMTA7bjFiTTlJYVdKSitsNG9jZWFlSE96SDFOVWNVTlFPc08wNFZQKzNFbUxyOTBGS1o4K1IzU1daWjg3bWM1WkxRSUpJSFNjd3JGQlZxMyYjMTA7YXE0NmQ2UnNFakxxZytFTDV5MWRkRWVMRmkxa2tPU2d5UUcxN0lRSkUwb1cvN0hZbEpXZGxUbHo1c3p3NU1tVGpScnNRZGlPak10MiYjMTA7ZlAzMVoyalR0am5jVGl0Q1FaSWhrNDBBSFBvNEhXT05UWG9ZVnI3cXNPR2R0ejdCaTgrL2dVM2JOc0hCK1B6NmFTZmdwSWZ1Um0xUyYjMTA7S3V6TW93KzJpRUliZWJXaDhHYldlK21TbGJqOXRudXhhUEVTbFVMYWJOYTZhRFQ4VTZJbjhjbUttcHBaUE95QUcrVXZBWDM5OWRmciYjMTA7VlZWVnFtZko3L2VyUG1qcHFKQk5ZbTlkWFowcXZJaGhvUUtzOFRuT2V1WHJsaTJiNGNjZnZ5YmdacnJQRUg5ampDUVQxbmYwU0IwYSYjMTA7b1h0QmpQSFh6dkxiMlhZaHh1UG1MWHJTaW56SWRUbnh4Q1Y5TWVqS1IySE5zYVBlNTRERFpwUTlYb2VESVhJcXlka2prU0JKbWVUdSYjMTA7eHRqNDBpWEw4TVFUNC9IdDFHbnFlaGF6UldjOHJ3cUhRM1g4L2ZGQnh3MTQ5NGNmZmpBNklQWkQ5aG5vZ2YwSDZiL1AvNTA1WUVCOSYjMTA7VmwxL2toWko0ekh1Q0lBV2Z2WjZQY2pOelVWQlFUNGFOODZHTjhGTHBhaFhJMUtoWUJDWldaazQ1cGlCR0RKa01Ja1ArSjJjejZ3SSYjMTA7RVJNZGRlNzlGbHFnbVlUS3pQZ2JZU3lPc2t3T1dHR05NRFRRZ2dJbVlkcHVnc3hJWGJVZFQ0NS9IYys5L2hZNkptaDR1bDBLZWo0KyYjMTA7QWVVZDgrQ29pTUtlYUVjNGVvRGwyWVZJcUpJVXp1NndxaTVVc1c3cGh6ZWJyUERWQmZIVjExUHg5anZ2WU4yNkRUUWtuK3FnVVQxNyYjMTA7SmxPQTFPYnpwS1RrY1R4K0hZMnNocWZiNXdMdUU5Q0RCdy8rNlpkZjV2UVBCVU04UWk0cXBFWkhTbklTbWpUSlIwWkdCaG8zYW9SbSYjMTA7QlFWSXowaEZlbm82V1hVS1VsS1RWSDl5aU1vaEhrQUFseTdLMXExYnE4K2kyWWFpeE5SNzBlUURzUjZ4V0NtWGhTbE1qRjQzVEM5aSYjMTA7NWh1WHprWmxYSTY2K0psVktONjZGczg4L2hhKytHWUtUa21NNGRZQ0I1b01aUXA3MWsyb1NraEVvaU1NWDhBTG0vbmZnMHB4RDNXZyYjMTA7SXFCSm05QlNTVURKdnBsWFMyZU5uTi9vOURFakZJN2d0N256OEFPNXc0cmxoVmkyZkRtcWErZ3RlYXhNZGJMYjdOL1IwRDVOdE5tKyYjMTA7S2ZQN3QvTzBlMjIwZlNvOU5lNWxXdTAvUllIUzAxTnBrZjNScTNjUEpDVjZrVXl3WlV0UEk3aXBxZkM0M2NwTlIyVkFuMlNMMEttTCYjMTA7U1BjaGtWQ2dPcDFPTlFRcEhTZXlIYXhlcUNpQjBjMFJ1R09rQ2hwanYzVEMwTXRvVVpJK2FWQnlnS0tWSy9ITXVHY3c1ZXRmWUdXNCYjMTA7V0gxc0l2SVNrbEV6Nm5hRU9uZWtWM0pEanprUmRjUmdJMTg3MkNKNkxQM2ZFdjVrNEVVNmF3UW0xWE9uY25vWjFKSGVHZ2wxSm16ZiYjMTA7WG9iZmY1K1BYMy83bldUeFc1U1dsYk51TWxoam9zUFN2KzNTb2NPTjg1Y3VMVExPdm52WnAvNmZ0TFMwNGJxdTlSRHc4dkp6Y000NSYjMTA7WitDODg4NUdodzV0a0p2WEdKbVphUXAwTmZTblNldEkzN0QwL1VhVmU3ZlE1eWd3eFJrMFdMQUFITGZlK091QldvMGNMWDNnSU5DYSYjMTA7NU1TOHJxNkZhZFZNcWNpd0Y4MWJqS2VmZmhFL0VPUVU4b083VzFseFlpcVpidS9lQ0I5MUdpeU9IRnB4Qk5ZWXZZdEpoaHp0Q29ELyYjMTA7TEplVWQzL0xLc2VKVll1N2xtNVlBWFBId0ljNnA5R1ZLNTlsWm92WDQwYmJOcTNRcTJkM0hIZnM4V3JFYnUyNkloNnJzV2ptMW5sTiYjMTA7R2c4ZGR0S0lWeFlzV0xCSE43NVB0SExvMEtGSE9lelNkV2dpUVhHb1BscXgxaURqcThaR2xPazJVc2o0cTR3blMyTVlIUkV5Q21SMCYjMTA7U2tpakNjQVNvK1M5N0JPdm9IdytVTEhRUlZ1alRxb1lBWlp4WUxFV3hzRVlYZUdNNmJQeDlMZ1hNUDI3bVdodHMrT1JOcW00cGptdiYjMTA7YlN1QXBWVmZPRE9Tb05rcTRZc2tVR0Z0cUsycndMang3K0hra2VmajIyK21zVzZHOTJGVnBOZkR1T0IraVNpSjFGdmFRQ3laelNySiYjMTA7dlB4aTZMdDZGVGN1YlNOdEpJYmhaYTdkb1gwQlhuMWxIRzY0anM2VjU0alMrc3ZMeWx0bEpMb3VObzdjdmV4cjZ3YWxhMURzUldaSCYjMTA7cWtGOEZrQjB6OUl3bWlRREJ5eVhZVkZxZ01Mb1paTDN4c1NCUDhkZkFYZG5nSGYrYlg5RmpTQ1JoR21Xc0xKSTBBTUZBMUY4K3RWVSYjMTA7akh2eFpjeis5V2YweU5CeFQxc2JaSDZwZzVZYjZ0QUl3WUxHOE5YNllDM3pJMm5OVkN4NThCTGMyV2NFbmh3N0dwdlhyeVVwcXVUNSYjMTA7bU9kU2FXVGNpcHJjY01YREtXeXJCaU1SSHBTU2tpU05pSEptTzFhNzlieUduWFlyK3dTMGc4SEVpQnZpWnJnUkhPVmtxSFhpZXFKUiYjMTA7MFZBRFNPVnlXQ0FCVUVpR05EN3pRdTV0YUtic0k0b1NCMVplRHdiSUl0UXBobVp5QXdUSnZxTmsrdFY0OStQSmVQR2xON0J1NFVJYyYjMTA7bTI3RDNTMWNPQzJmZFRFSDVaNGNXTGJWd1A3VkpDUzlPUmJSdDUvQjZ6ZmRoa3ZlbW82dmFrTG8wS29aSGhwOUw0YWZQSlJzbmVHRyYjMTA7OVpDeGFnZUo0OThoa3VsSVc2VWtwNmpKa2lKQlpqTDBYMDNWaHozSVBnRk4wTlRna3NSZXhicFphV0czRW9kbGt6Z3N3RW9Lby9hVCYjMTA7OFZ1NkZkbFBabXZJQkFQUkUxRUFFZGxYUVA5M1hEcFlJdEdON3BzdWZPdW1Fcno2eG9kNCtkVzNVYjV1SGM3SVNjQWRCUWtZa3VvUyYjMTA7bmFPYlp4aVJPTDU5UFR3TFptSHhENy9pMG8rL3hNUExmZGdjY3VEeVRxbDQ0Zmx4R0Q1c0NCeE91N0ptbVZRZ0V4a2laTXgvaDhUTiYjMTA7d2NZeUNQOWdJeXVqbzdNMFVOK0Q3QlBRSzFhc1dHdGpTaUFpVTNMQzNNUkpDckJDcGtVQnlBTFY3d0tjRVZzRVhDTm1xM3hSeUJnbCYjMTA7YnNHeWoxSU8vaTdidmxnMWorQS9LeXc4bGlkZ3hYbWMyU2lIZkM5Y1FHZVlXTGR5RThZOTl5YmVlTzhqaEV1MzRjSWNONjV0NXNUQSYjMTA7RlBJTTVxdG11UmJkdGlVZzZockMyNnZxY05iU1VueTMxWXg4a3NuVlExUHdkQ2N2V3JadERRc2JWYm9zcldZYllpUlBBcmJOeWZNYyYjMTA7Ym1IelNudEpPNG5CV01rVDVMUDZRVktNdmNnK0FaMlVsR1IzTTIyU3ZEMFFDTk5kMENXckMvQUxXcmdCSE4vVGpVc2Iwcjc1R3dzbCYjMTA7eklXV28zcStKSTQzaU93ZkIxa0FGNUgzZXhPeDF4ZzlCQzhEVWp2KzR6ZlNRYUowS0FwZnlJZWY1djZDWjhhL2lna2ZUMEZTcUJZMyYjMTA7TjdYaGhoWU9kTER6T2xiWmthKzh2azV5R1dLUmJsNnM0OFlOR29IMDRyYldJY3dla29Xc2hCUkV6aDhEM1dGRG1FUkpPSWFWWWNxbSYjMTA7Nm1CQ01ISllwbUwvV2FSNVdXN0RjS1N2WHJ5bFRHUmsyK29XdzRyMklQc0U5TUNCQTF0NnZWNTFFWi9QaDNwL3ZZclBNdFBSQUUwQSYjMTA7TmdBN2xHTFdRZ1NaSG9XTW1zbUZBbHg0RVowd0tzcEs4YzBYVS9Ec00yL2k2NisrUlFkbkJMYzFNK1BxQWh2eW5DUlNqQjBSTmFEaCYjMTA7WjJ5MkU3d3d2cW9LNGZVU0gvcWxtUEJxMnlnZWFPeUVzM2xMMUY5eUYrbzZkVkhaZzJyaEJ1VXd2QmlWVTMxM2VFVUNwWlJIMmpyTSYjMTA7TEVMeEh4WkxjTkgwV0ZYRGJydVZmUUw2dHR0dWE1ZVNJblBVZ2NxcUt0U1JvVnJJd3FXblJzQ1BhOXFoRm8wdTJpWXhPR1pDUU9aTyYjMTA7YzR0WlFpamNYSVIzMzUyRWw1NTlCNnZtTE1DQVZETnVicUhqeWp3YjdBUTR4cnlhaHMrNEl3NmVGc2tZL2xseEhSNWZWWXZybWlmZyYjMTA7aFc0Sk9JNHhITWVkZzhyTDcwVzR5MEFxc1pGVjJPZ2lwV01qcGh2ZGxjb1RTV1p4bUVWYVYzclM1STBRc0hEWTZHanh1Qm1lTlcydiYjMTA7TndIc0U5QWlhV2x5OTRrT2YzMEFGUlhWa081UWc2RVpBQXZZaDFyTUZpZTFXa0tGVkpoMkhBdGo3YkpDUFBmaUczamxqYmNSMkxhViYjMTA7cE11Q20xcFkrWm9JcSthQVEyZUtKMXlCeGluVDZTdERicnhUNHNmRFJRSG9JVHNlYnFvaHl4NUM3VDl1UVBBZnQ4Q2UwUncxU2VXZyYjMTA7UjhUVTczL0czZmMraE04Ly81b1ZwSUlSOUREclRaYmJVS0xES0RRa1kxS2s0VldsWjAzRTVYYlJvclVGNnNNZVpKK0JacHh1ZUFjMSYjMTA7UUZGU1VzcHJHekVyRHZZaEYzRmRjbWVGRkpzRWI4bUM1WGgrM0Z1WS9NbFhTTlhyY0ZWVEsrNXM3c0xBZEEvQjRENTJsa3RqcWhVTCYjMTA7SWtKcjNFSzIvT0s2RU1ZVVZpUFg2OEVkTFVpMHpBNVkrNXdQZTh0ZTBFdVdJdmJHUXlpOWFCVE83REFjRjExME9TWk4raEtsWlJXcSYjMTA7VDBBOG1KMnA0V0dxN1o5RURNa1lQREtyV2JReVZpRGgwdU9WTGx0dFRzTnV1NVY5Qm5yejVpMnFNMTVpeE5hdFc3RisvUWFsWFFwayYjMTA7S3ZqaGNOMG1MVXBDeEVMVGJjMmR1d0JQalg4WjMzNzNQVnE2VGJpaGVTS3VhT0pBRTZkRWJNWmtna3VYUmpPTzBsV0hNSzhtZ0dmVyYjMTA7bVRCdVV4MU84Tmp4WUVzSFRtdk9UQ0kxRTVFRUsyby9meGN6YjcwT043LzJKZnA5T2grL2xtMVN1ZXFwcDU2S0VjT0hxOHhCeGVjRyYjMTA7OG5qNHhXaHJtWjFTVzF1bkNKazB2QXdTNlhwa3NkcGxEN0xQUUVzbmgzUVdpSWRldDdZSWE5YXNWVFJmTkUwNXNzUGd1aVZDVjRkcSYjMTA7TU9PWG4vRGN1TmZ3eTR6WmFFTWlkUU90K1BJTUcxS0VKdEd0YTdwTTZYVWdHSE5oZWEwTGIyeW1GYThKWVVKSkVPZmtlVEM2alFOOSYjMTA7SEQ0Mld5TGpYUTNtZlA0Rjducm5DMXl6c0F6dmJmUERDYnVhM25QMVZSZmp1dXRHSVN1TFlVdjFCN0FNL0NOenp3KzNLSmdaS21YUyYjMTA7ZjNGeENkdENyRXZteGlmR2JFbUZaY1pldTVkOUx2RXh4eHlqWGdYWTRtM2JzSWtXTHJlMkdtbVY4TkFEMTNSeHlxb3Jocm11VWhzSiYjMTA7ckh3bmY2V2Z4aGVJNGNlZjVtTGM4eTlnM20vejBNM3J3dTFORW5GV1k4WlBhNEFXVEJCb2RSRXF4TVo2RFIvUWVoOHBET0hCbFlLUSYjMTA7RzljVmVQQjRhenR5a2lMVVhCZWlZUTMzTGFqREpUOFg0N1BOZFNoaGZXelJNTTVKVGNTY0cwL0VqVGRjaWF5TVpESmNHVkkxc3h3YSYjMTA7b2d3ZjZxNkx3eXpTSGhJNnhKdHUzYkpGQVMrWkR5M2FUM1RVUG51U2ZRYjZzODhtTVdlVENlZlNwNjNURXNJa1pITDNJeTlKTnJ4VCYjMTA7bXJ6L1FvVlJRRXR1TEdmV21UTmJORVRrOXBwQUJITm0vSXBYbm4wVGZ5eFlnbDVNQXU1dDRjS1pXWXl6V2xqRmJZMmtxeUlZdzR5dCYjMTA7WVR5eExveDcxdFZoRmIzUUJibFdqRzFoeDgydDNIQTZJb2d5Z1M0T212RjVlUlRQcks5RldjUUdoOVdMMDFLdG1ET2tFVjRaZHpuYyYjMTA7MTQwaCtaUEpFTklQSUxmYnNqeFVKSnQwOFRWMC9oeE9ZYXN3MTlkUVVWbUZyU1hibGVlU1czUlptdTN0MjY5UWRyRW4yU1BRUFhzZSYjMTA7OVV6SERoMjFuSndjZmZic254RU9CUmlueldvcVVMdTJiZUFtNHhOeUlQM2dCOE56aDNRN0hLeVF4UlNDZzIxcGk5b1FaVTEwUkRGdiYjMTA7M2tLODlOSkxXTFI0QWJvbVdYQkxuZ1VuWk5MR2xDVkg0WTlZc2JBNmpGYzIrSEhmNmdpK0wvZmpwQXpHNGpaV1BOWEJqWjZaMG9VWiYjMTA7UWlUb3dkeFNDNTdmWk1KVmk3Y2p3V25GTVNrYVh1L2x4QnVqVGtEeisxNUE5UW5YSU5sLytNSGNxOUNhNU9iQ2NNTXNVcEVvVEdVVCYjMTA7SjZxM2U1VGQydUdZTVdNM2J0cTBhY2ppeFgrWWFtcXFHWStCdkx3YzlPM2JHeGVjZnc2R25uaThtdVFuUTJ3cXYxUVhQakNYWmpZNSYjMTA7cWJVeStrUlBJY1BhVmdkQ1BQL0srVXZ3MUxNdjRmZmZGNkJaZ2dPMzVqc3hNc01xbWtBdDBGRWJzMkZtaFU0ckR1TFR5aENhTWJVOCYjMTA7TDllTlc1Z2pkM1liL2VvUmN3VGJ3anErTFhiZ2tZMCtUQ3lyZzhucHhxTUZTYmgrU0dlME92OFM2S2RjQVMwOUIxcWtCbUVTTWZQZiYjMTA7TWtxMWU1RzRMRk9PbGkxZnBlNFhsOGtiV2xUMzlHM2Q1dmxadi8rK3grNjYvd0o2L1BqeEkzSnltdnd3WmNvWCtYOHNXcWdhU1dhViYjMTA7ZE9uU0h1ZWRmeGF1dXZJSzlPN2RFMjZYUXpXeXNQRDRJUHFCTW05VGlER2ZwdzB4UCthSkdXc3RXTGxrTFo1Lzhubk0rWDB1TWgxUiYjMTA7WEplYmdsTlRIWEE3ekhUckxsUkhkTXdzaWVDRm9qQ1dCSUk0UGN1SmUxb2s0ZVJNS2czTFk2UDc5WVhOK0szS2lmZTNCbkJ2WVJWSyYjMTA7R1p0Yk5XK05JY09HNFk1aFBXQS8vMnFZV25aQk5FWi9JdjNtak45Z0dZeXM0a2dSbG9iZU16a2xsVzlOV0xwa0NXcHE2bEJUWGVVeSYjMTA7dXoxZDE2MWYvMEhEanJ1VS93SzZSWXNXcXlkUC9peHBXM0d4QXJGcFFST01ISGtTYnJ6cFdndytmaERacUZ2RkM1bVRMYmVYeE1FViYjMTA7aFRBNjJmZGZyTkxiWmJQQWFuTUlmOGJLWllWNGJPd3ptUDdMTDhqVUl4alYxSWF6R3p1UTdiQktTazNBVEpoYUZjT0xtL3hZNFF2aiYjMTA7M0VaMjNOSGNnK1llSzh4Ukg2MDRoS0tnamk5THpIaG1yUStUU2tQcUxvMEVsd2YzUDNnM2JyejFXcUI5TzdhQ0UxRVR3NFpMWm5VayYjMTA7d1I4TUlJRXhPU285VVVlWXlLU0ZEaDA2WUd2eEZpeGJ1cHdHcG1QTnVxS1dRNDRiK01mNUYxNjBadGFzV2JzTW9uOENlc1NJay9YUCYjMTA7UDUrTTZxb3FOUnpYdmwwcnBoZi9WRGVxNStSa2t4enhITnlNR2FER2JCRngyOExFZHg1ajNsL1JXSm93WTVCWk4yUGpoaTE0NVA1SCYjMTA7TVdmdVBIZ3RKRlNOM2Jnb3c0RThXclZ1am1FcjkzdTN1QjdQcnZPak9CVERQeHJiY1cyZUhibE9GYmNRdEZyd1c1MGZ6MjBJNDdHTiYjMTA7ZFNobWd3aXB5bUxlMmYzb0hyajlwbEd3NmZVSUNnK3cyWm1mRTlpSUNUNXpMZXdrZFZaNkN4bURQcUtrWWQ2N0dOcFJSeDJGOHZKSyYjMTA7TEYrK2trYW1ZK1BHRFVQWHJsbFRlT1BOTjYvZUZkZzdnRzdYdnBNK2YvNThCdnFReWlINzlqMEtkOTU1TTQ0YlBCQTJxM1FVQ0I4bSYjMTA7Rjk3SlBRdXc4bGsyc2VpZGY5c2ZNWlBWbTNtZW1zb0tQUFhFODVneDZ4ZFlnajZjbWVlZ05YdlJJc0dDRUdQVStub1RubDhmd010MCYjMTA7eFQ1YTN0bVpFbzg5S0VoZ1dzYXkxa1hzK0g1ekdQOWFDMHhsaG1sbUF6bEpaRnEzTHNDcEkwL0RQUS9Ua3Uxc04rYlpNbWxRSmlsWSYjMTA7ZUYxWldnTWtoRVFaZW9RazcyL0lsL2Nva21PeWlPSnB4ZEI2OXVpaGhvMFh6UDlEa2x0bmJWMXQvemx6ZnF1Nit1cXJWOHliTis5UCYjMTA7V3FxQTd0eXR1NzZtc0ZBTnFLZW5wK0RZWXdmZ2pqdHVWdXVCNkpxeE1Jc3dhK2tVRXFPVkM0bEk3NHhjVUhYMDd4UElvbWhHSVhjTSYjMTA7RVBDNHVNTElraEFTRWlaT25JRFBKbnlKVW5xVzR6TXN1TDRnQmUzZHNycFBFSVYxd0tPcmcvaGdheFIyQW5GU09uQjVyZzF0RTV6USYjMTA7Q1hwbDBJSVBTOE1ZdTY0YXkrdko2QWg4c2lVSlBYcDN4aDIzWElsTEwvc0hVeVF2VENSNlRCQ1pjUnY5eCtyR2UybEVsbEdXMFRuaSYjMTA7UUtiRWw4a1NUeXBsbGhXWnVuYnBBcS9YaFo5bXp4RmNFbWh3L1JZdlhoeTc1NTVUZjU4MWE4VU9zQzNuWFh5Ui90dnMyV3JPZFFJUCYjMTA7T091c2tiamxsbXZRdkZtdVNsdlV1WFZqL3JVQXRUT2VBcFRJUHJ0c0hpdk1VUVlIUkVtTVZRYWswOFZZY2NEQ0dMMXk1UmFNZWZ3cCYjMTA7Yk4yd0dVMjhab3hwbG9pakUzbCtrdXdBbGUzbDlSbyszaExpNXdoT3BidSt0YWtIM1JKcGdiVGFhczJNaWZ6dGtiVzFLSWs0Q0ZnTSYjMTA7VHBMRy9rZjN3WDBQMzRiZXZYb2pHQ2I0dEF5WmZDQWpZZjlMSXJORlpXQkQ3Z2lWZm05cHc4VEVCTHJ4WHZUQ0NaZ3hmWlkwc0lzbSYjMTA7TTNqaG9zMlJPKzY0OHplNmNRVzJKUzBqNDhFdEd6ZXAyUlA1K1htNDQ4N2IwYnBOSytXS0RXQ3A2V3dVd1hLZmpIWVBJZ1VWZGk0RiYjMTA7bElrTWNnMDFCOHRoTE96aUp3aTMzSDBQVmk5WnptdEZjVytCRjhlbXUrR3lNbTViNjdFczdNZUhXelFzcndINnA5cHdUWDRpZXFTNCYjMTA7NlcxTjhFZk4rR3hyQ0dNMzFxQ2VSVy9rdFBEVmlkWWRDdkRFbUx2UW9rTkxwbW9oR2VSc1VOci9QWkZPRWpFcTJjVEl4TEpsSFRNaCYjMTA7YUIwN2RZREZhc2J5RmF2VTVCQXRHaHUwZU9FQ2M2dnM3SVhiYTJxQzVrNmRPcW1HbG00OW1TODhmLzVDVkZaVTAvam94SGhpNlYrMSYjMTA7V1cxcVd0Q0JpZ3lXeTJ4U0thU0FMVUNMKzRrVHVxbWYvNEFWeTViRHg0SU84dG93SUVsREduTmkwZUpZbGdrekNkNHl1WkdjS1ZEbiYjMTA7UkN0YUo0WVEwK21BeWJobmJxdkE2OFYrMUVkc09DN1ZoWlBUdlhCNEU5QzFXeGUwNzlTT2Jwb05RdUQvbDBVNmcyWEVhc2NZZzdJKyYjMTA7Y2VreE9PeG1qTHJpRWx4eXlRVjA1VzYxbWtNd0hMeW5wTDd1VVRuVy9PeFQ0MHhOQzVvcW55OEF2UHJhNjFpOFpDa1pxQXlKU1FnbiYjMTA7R3hVWHJpYjdIWmpJK2FSczRxWUZaTG1lRkZiNnpHVjc1ZmszVWJhdERNbTA1bXNMa2xHUTdPQzFaVGd1Qmw5ekZ4YjR6ZGhVcWNGQiYjMTA7Qzg5ejZFZ2xXMmJreGdxbVVCOXMxN0RVcCtQVWRDZHVJRHRmV2wyRHBybHBPUCtVMDFET3ROeEswdUtLSmUwSUZmOXpRa0ROVlBENCYjMTA7VEI3aFRPS1poQzlKRzRwVkp5UzRjTVdvaTNIeEplZXE0VXQvTUF4ZmZmQ2Zhbi81czNEUlFsTkthZ29iTzRhMWF6ZGdGdGx1V1VVbCYjMTA7TmNXWURDZ3g3V0M0T3ltVW5FWUtKbmQwaUdaS0VXUk5ybmZmZlI5YnFxcFpCalBPeUxDaFpZSVBEbnFVcUc1RExGWEhxb2dQSmZVayYjMTA7Y0JFcjJycXRhT1oxd3FIWlVPbVA0b1BpTUNZVlc5SGNZY2VnTEEwK2V6MlcrNEhFN0NTMDdkMFZpUXdaZGd2UEV6TnVFUHlmRkxhWiYjMTA7c3VhR0RNaFFXSDRuRXlJYmZnTXRQaU16R1NlUEhFcFAxa0Vaa2ovSW5KR3l3eC8zNnQxTDNSTWxsdjNoQng5aDhlSmxLdWhMZml4NyYjMTA7eGhuZmdZaEswZVJrYXNoUENteTRiQi96M1RkZWZ4ZWxGZHVSU0d1OXNIVXFzcE05YXVxTVhXZktsUlBEdXBvWVNxdEo1TWdaY3VrWiYjMTA7TW1WZzJoN0N6TW9hVE5yR2lscWNhT3FLb0xQSGhock5pV29xVDNwV0dqeFIxb2o1Y3Axd0EzdVZ1dTdPU2l1elNHWFRXQ1oxZjdhayYjMTA7TUd3VjZiRFJhRFdTVkJwc1Jkd2tGWjVXcFFaeEdzNFJyNFB5RW5Lc3luVVBoZkI2Sk1XNnVtZmJNSmg0TmFSYk5DWXBBOXRMUEtVcyYjMTA7UWJuZzl4VUt2NnpNUkdNZjlaZnk5VmRmbTVxMWFLNnNyRUlhYjlJWFdGdTBYazFFRTMvZmNNNERFdEZHV1VaUnRFOG1NVWpqaUJmNSYjMTA7NG91dkNIWTlyNkhoakR3N0dwdDhzUGxGU3lNd2hZT0laSVN3MlU4QXE0QXdDVlZDb2dPSkhtb3l2Y0wycUFYYm9oR2tNUFhxN0xVaiYjMTA7andDWDFZZVI3TGFqVlVwalJBUVl1bTYzTzFuTklQMFR5QVRJSExOVDc4aG1OVHNidzdpenhOQnBFNnhhbUNrY013SkNMYmNFSzY3QSYjMTA7RkU3alB0SXJxUEpaeFYzMGhublcvSCtvY042TFdHUmdpVXF3YWVOV1RKOCtReTF4SlVYcjFhT2J6RkQ0TjlBaXZYcjFnbHZ1QUdDQiYjMTA7UDUvOEZYNzhjUWI4Z1lDS3FUdlU1MC95MStBWEs1R0YxZVN3TUFHVThWU0h6WVhYMzNnYmxWVzFjT3BSWEppZGdGUVNOSjF1aHdrWCYjMTA7ZzJzSWtjWlJsSVF0OFB2SU5IbE1xaVVHZDh5UFVOVEdlSjZFTko0djE2T2pRNm9KWVJOcGw2enVSMFhTVXp6d0VNU2dMWkgxaVBLOSYjMTA7b2Qwc2dTRUUya1R3NmRtWlYrc0lVQW5MYXF0UVdsT0ptbUM5QWxRMm05MHRPOGhFZWU1dlZvMG1CaUhXSTdGUlBJL3dDTU5iL0tsSiYjMTA7RDZ0SWQrank1YXN4KytkZlZOM3k4M0xRS0x2UlRQbnRUNlY2KzgyM1REMTc5R0lsREpiOXdvc3Y0L3RwTTJsRnJJamFWU29paEVvcSYjMTA7SnJmbnFQNFd2aGZpcHQ3dVZxUnhnL3pyaWlRZ1FCTnpFUWhUeEl5cDMvNkF6YVUxeWhKNk1SL09salU2TGJSdXN3OHhucjQra2FHRCYjMTA7K1hSWldSQTF0ZlFzdWdXTldMNGNxeE82clI0UmE3bTYvVFhCNG9ETXoyZmdobWEzd2hGZ3ZsbFhSL2RPb0dqNUpyazVudFlwZy9jUiYjMTA7NXFDUzFsVlhsbVBPL1BsNGVNeWpHREhzVkF3NjZuZ01IM2d5VGgxNENvYjFHWWJ1dlFlajMzRW40NHh6TDhQOUQvOEwzM3o3STVXdCYjMTA7SHRRSldqT3RYeFNSN1NDZVNVQVhFUy94ZDRnb21XUkxYMzcralpyQUtkM1UzYnAwMWpNejAvOGx2LytYK2syYjlvTkpibFNYOGxaWCYjMTA7MVRCMnZvM1pQODFSbjJVMUliRkx1Uk5RTkZubVVVbWFKS1JnYjVvc2V1QXhFVFNlUTBnQ0hUaWlMaXMrL2VCakJHdnFFTFZvT0NzdiYjMTA7QmNtT0VDMDlDOVcrUm9qNjNIRG5SQkN1SlBsZzdpeGhTQklCM1JORjJNMzRiVTJqaDBoUW1teGxHV0lSSFNsUkI1clN1aXBOVmRnVyYjMTA7cTBESUZGUlRnKzFoOGFsUmxJVmkyRkMwRVRmZGVpY0dEVHNiSTRkZmlQSGozOEZ2djY5Q1VYRUYxcGRXWWUzMktxd3JxY1RXTGR0USYjMTA7dUtJUVAwNmRpVmRlZWhPWFhYWU4yclR0Z29zdUhZVmZaditPZ0YvVy9CYlE2WHVvOUpJK3l1dk80ZUZ3Q1JrRzFyTmVVNlo4U3p4TSYjMTA7YU5XeUFBNlgrV1Z6MksvbWsrMFNuYUZEVDBSNmVxYXF4TUtGUy9EQkJ4T3hmTmxLTmNWVUtoSHYwWkw4V3pvKzR1blNua1NxYnFFbCYjMTA7eWVJU3doU2pQTS9tcWpMTW1UY1BPdDA0d3k0R0pHdkljTG14cHJRY0krWVg0V3U2VUw4cmhFMUJEVlZCYWRFWWtoSUlKa3R0cjZPViYjMTA7MXRTREdTTWM3akRKVmhEK3NJazVQOE9CM1lZd3JiOWtqUitPR0VPQUhvQy96b2RwQ3hiZ3lUdnV4REg5aDJMcWhCOVF2Nm1ZQlJOWCYjMTA7YklLVHlwQnNqaUNYYVZ1QlcwY1RaeFJwTkZvUEZkc215cTJtVFFsSHNPQ3JiMy9DbVdlY2kzK2NjeUcrKzI2YU1naXhiTGx0S1U3TyYjMTA7RHJmVTEvdng0b3V2S016c1REdHpzeHZYWkdWbGZUZjZxWmRMNWZkZEF0MlRzWHJ3NE1FRWtveVhzVW5XM1pyMCtaY29xNncwY21yRiYjMTA7VGpYVSs0MzV4ZkY4ZUU4aXY4cnRMVEpaU0ZJZEs0bkQxQ2xUQ0U2WURsREg0SFFUVW1TbUV0MzZWenpuRmpiWTZnREpCVjF4aGNPQyYjMTA7b0VNRlVqZ0RiSGcydHNsRDErODB3OGxJN3VMNXRqR1dyZzFTczdVQVV0T2phRWVsQ2RUVVlHdEpIZVo4dHhqSGpqZ1BaNCs4R0c5UCYjMTA7bnNFNk1SN0xHcVJ1Qjg3TE4rSEJObDQ4M3lFUkwzZDA0YVV1SHJ6V09SV3ZkRWpEazEyY0dOOHhHVSswVE1Tb1hDZmFKMXVwU0JhVyYjMTA7MTBuMzc4SWZDLzdBcmJmY2hSZGZlRjJ0Rng1bVdER3hqaktJSW5Qb2pIWmhzWldGeXh0cGhUMjMwNTdFT0k5QUZ2Y1lSZ2VLNU5RLyYjMTA7Ly9RN1NkaFAzRWRIbzBhWlNNOU0rOXJsdGUyWUhicExvTTgrNjB6VGh4KytieG82ZENnL1NRd0NYbjNsVFV5ZTlDVU5RUHFIamZncyYjMTA7bXFNdVNiZHBiMWc3YTNjaTFZc3dKUkwyYWpmYkNZNFRYNzd6RVFJUmpXNWN3em1abVhCTGpsaHZvdHNFUWlSZkFlYkkxa1FYdkU0VCYjMTA7WENFeVd6MEJ3WWlMakZKdXJva2lTSWF0U1V6bnVhdnFyZGpnb3lLeFhHM3FMTGpVbFlFbDgrWmdhTWZ1T1AzU3k3QnA3VGE0WlVLLyYjMTA7Rm9USFpjTHBaTzBsSitSamZPdEUzTjdNamt2emJUZ3IyNHFUa3FJWW5PekhFREw5ODlLY09MOVJGRmUzdHVQUmpuWk02ZW5BNTFTRSYjMTA7b1NsaG1LMWtHZ1MycnJvV3I3N3pQbDU1NFMwRXk4cWhVeUdwYzJ4OFk0eGV3Rkc4WmtjcjdMK29pWmdVVVNBaGdMS3FrWnhmUXNjOSYjMTA7OTR4V056ZkliYzA1dVkwaUxWcTFtVysxWnNoaklaVHNFdWk0VEo3OG1hbGZQMW5KWHZwVVRmamgrMW5VbkRuTXo0U01OZXhFa1RnZCYjMTA7YkxoellMZENqZEFKc29Jb0ZLVTd0R0hEbXEwSXF4NDRvTHZMakdTbUxKckRUV2J0UW9qZUpFcFhpbUF0T3FmcnlFNmtqVER1VmhOZyYjMTA7Y2RpMnNBMU9Yck96SzRpdWJpb0x5N00yWU1MTDZ3TzRkSFVON3E2b1FiMDVGVVhtS0Z3T3Bsc2VIMGJtUlRHNXJZYTFSNlhpM1JPeSYjMTA7cUNqMVNMU0Y2ZHJwNzNUR0Rrc0syWG9LUWhZM2dxVGlHaFhQVGxadjQ4bFQ2TW55cWN3blpycnc1Y0IwZkh0ME5qSzhNYldjVmF3MiYjMTA7Z3VmZmZSTnZmZncrb3VVK2FPUUs0Z25GalNzakZPczIzaHlRU005WXZDZE0xaktWMVExbEtjdUhSaitDTFZ1MnFOOGFOY3BHcy96YyYjMTA7ajZPNi85M1JvMGNMTVZHeVI2QkYrdlRwclVaSTVPUy96cG5MbEd1bVdoWko1WnRzWE5FdVdRckN3ZmkwSnhHdlpXR2NrOVdDWWdSMyYjMTA7ZTFVVmd0S2x4eUprZU9SKzMzckVwSzF0RVN4anpLNlZ0YjlpNmN5WFhTanpSSkRhUWtOT3Nsd3Zoc1YxdFNpczlxdGpNeE84eUU5MiYjMTA7a2FFSDhTTy91MzUxR0YrWE9lZ04vTXlOeTVGT2k3OHFNd2tMZW1majlmWjJER2lSZ3RRa0YyejFFU1Q0cXFsVXpLSHRKcGJMVDNkYyYjMTA7eldOQ2F2alRxck5NakxzeFp4QXhGeTNTbkVTWExZdThzNXlCT2d4aW1YN3BuSVh1ekJSaTNNOU94WHZ4eGZjdytZZVpkSERpQlkzTyYjMTA7cGpnakY3dlkyVGorcWtoTEdVdUdDRmRnZUtEeE9ld3VGRy9kcnJ5dFdMYWRGbDZRMTZpeVZhdldDeDk3N0lVL1BhZHJyMEEvOXRoaiYjMTA7cG9FREIxQWpKYTJ5WUFiandLeFpQN1BCNWJOMGF0RFNXQkdwMEo2RnpKZ0EyNXlNenlSdlJWczJJVXlnUlQweW5RbXdPaU5zWkRQOCYjMTA7eklPUEllSEtzWGp3cTc4TUc4d2h1RWl3ZWpXeklUMURubHRoUjFGOUZKczBLMmJXeEhEZS9ESThYdWlIaldYejBwSWNFYVpmRENtWCYjMTA7Wlpyd1dWYzN0dmJQeFlPZGsxRGc5TU50UzRDTGdBUUpGSnhreW1FMzZxaDU2MzBSckttTFlTdFRzaXBhYjBRam03YkszWW9FU2xZNCYjMTA7a2hFaWF5MnRYWHJXWFRBNTB2aDdQZkpUNnZFOFhYOVhza00yUDJwcEFFODk5d3BXcmw3SGRwRmVLcU1IVFR5aXVpRlJOZmYrV1RZRCYjMTA7QU52Y0NKdEdkNmRTSGN5Y09VdTViQm1VU2s1S1J0Zk9YUmRFNnNNZnl6RTd5MTZCdnZlKysvWE1yQ1FWRTJUbGdrQ3duZ3l2VG5VRiYjMTA7U2srWGNVRmFvZ1NsUFFvcnpyZ3NQV05tMVlpMVpHZDJFRHFrUmdJazFMUktsdzF1TnZwSnlYYWt1SU9ZV3VsQWxYVFZoblYwNzZ5aCYjMTA7YWZONjVzNStMSy9SY01uY0FFNzVKWUNmdGtzRDhEZkcxdHZiV0RHM254MkZRMndZMzhlTEVabUpqT0hNMmFWZHhGM29Ra0RyQVpjUCYjMTA7SDZ3dHg3QWwxUmk4b0FhbnovUGo3QVVSakZ6a3h3bnphM0RHM0RvOHVEU0tSZklJSnNaMEFWMXVDakJSU1V4UlAvUC9LalkyWXpGVCYjMTA7dlhhcE1WelUxSXdVZTVTS2FzTFcxVVdZOE9FbkRHZGlmWWFyRmRkdEVMRURFMUVVdzR0S0NtZUV6RWFOR2lrSUJIc3FsZTUwdWFwRyYjMTA7UC9ra1djNmZaYTlBMTlYV1lVM2hKblZTNmNscTFiSUZtamR2UmsybkR0T1M0MmxWZEs4V1RXVmc0WWlKV2pIQnpoak1ra01jY0wzRCYjMTA7c0loSWJRQ2EwNDRPalJPUWJIT2hqbW5SbGtyRzVMQUx5VjRyam1wdFJwTU1FNnBZeTJKYkZIVjJEVkdyQTFmbHAyRnhqeWE0S3ljWCYjMTA7blJLU0dNRnBSYlQ0c0lsY2dCWnJpdmtRNVB2aVdDdmNYSmlHM0M4ZHVHUzFocW5sR3Y0bzFiQ2lMb3FWdmdDVzFnVXd2eTZNS2VWaCYjMTA7UEZIa3c0QzVOVGhuYmdncnk3TmhJd24wTXllUEpqRnZ0N3Jna05oZDc2UmppT0tpN0FTTXl2VElWUkd5Nm5qMWpmZlVpc0h4ZVhUaCYjMTA7Q0RNTFdyVll0M3plWDVFbWptYzRBclRJTVlNR0NzSTBQSXRjeDdSNTAyYnA3UGd2MlN2UXNncnVQT2E2eG1OOWRIVHUwaFU5ZS9aUSYjMTA7R2lxRmwvRmtpUmQ3eTZORmFOT3dLamNQZVFxc2FwZ2dUMXRxcHRYSU1DTFBvMWx0Y05sMHRLSEhkTExJMzh6UnNXRWJ2WUFXd1RuSCYjMTA7eFhCQ1p6dHpZeXBKVkZLWk1Ib24wQW9UYWhpdnFxQWwxakljMUtzWXB0T0ZPMmxOc2tKUjJCN0Q1bG9UVHB5NUdxOFZiVVNsZzJWZyYjMTA7T2ZKeU5mVHJZY0ZwdzYyNDhHemd0TUZtOU8va1FKdG1GaVI1SlIyMDRjc2FIZGVzTHNQTTJrclZXd2lHRFZ1VXIzb0lJVHM5VVRnTiYjMTA7RGpaeTkyd2R6VWpPVEVKVTJheXpadi9LbUIvbWU1bEpJOHRpcUE1Z0JjcitpYmpuQ04yMHBMTzhCbE5NNlozVDlTZ0dET3pPT3BPYyYjMTA7QlVQWXNHRnp5c1AzM0pQWGNOQU8yU3ZReTVZdFU3ZG95Z3lVQVFQN1lkQ2dmdFJVR1VWaEZkaFlvWEJJTWNDOWtURVI2UzZSTVFhTCYjMTA7ellHTTlDdzE3MXBLVUJFZzJ4WVhMVjJ2dkU3TUg4SUFwakJaRGp0bUxiS2dqSTF0bzJJNWtrMFlOaUtNbzdyVncwbVFyWFRIamJ4TyYjMTA7NUdaWUVaSG5ZOFRrWG1pMnBjMnMwajFkSnVCVHE3YlF1c1p1cU1RS1diT0UxMitlR3Nhbkw1bnc3V3QydkQvZWhPZnV0K0R4bTRIWCYjMTA7SDdYaWc2Zk5lR09zQS9kZGFzSFJIV1EraW81RkZYNjhzaWFNSWg4aGxLNDVFNVZhbElrdUt1b0lzaDVoZEhMYjBWS2UzVVZsRmo4NiYjMTA7ZmRwMGhqYnBKcVVGc2d6S0VzV0Y3N2NZWlc5NHE3eURVbWgrZWR4eHg2bXZaUUNLSkxRMWpYT3crbUluMlN2UXExYXRVaWVWZUR4dyYjMTA7WUYvMDZON05XSlduNFdLS1VmSlZ0cjBKK1FrM01scUM0SEhRN2ZHOUhDVVB6ZEhNSGliYWtpdVQrREMxNlpkcFJ3WnowcHBLTTVZVyYjMTA7Nmlpcmx1Y0U2cnkrRGNOUHNDS3JzZHowRnNGQzhxcGZ0M2xoNSs5Qzl1d2FQUXhqT2xoR2c4RG84SVVjbUxyTmhpUzdFOW41Vmt4NiYjMTA7VTBmLzlrQjZzcmpUc0VyMzlERFRvWUN1cGkwVjVBUngzcmx1M0hXMUdTMWJoUmdDSXZpbTBvcEZWTGlZVElRZy9QeERYbUtqdmZyNSYjMTA7UG9KOGtzekdUckYwL3NCNi9mVFR6elFJWStWQmFXYnBJajRRdHkwWGxQYVc4Q254T0g0dUljRW5uSEM4OFo1WStBTCtERjg0MkZKOSYjMTA7c1pQc0VlaVJJMGZxWldWbDZtUjlqdXFCRHUxYXFTNUdHYmNXcE1WMU8vamVXTGgwN3d1NGlEVW9yOGRDU2o5NVNuSWlZeWtMSHlYRyYjMTA7VmplcjRnVDlBOHcyRTNJOWJqU2lxM0xUSlgwOVEwZmhaaW9IZjNjR1l2akhNUnFHOTNQQXFqbFI3SXRpVnIwZmErMW14azR6M1MxQiYjMTA7NDdYRWVxSmtxVDRyWFNaVHFOcFlBbk5qUHpvM2lhRkpBbDFlbFBrNkxVQnN6bXFoZXlYUmpNcHlFV1RZWGh2ejMxQXQycmNrU1R0RiYjMTA7SnZBd25hZXJuRlVXUUZtSUZiREs2dnhNdG1KTzJLbWM0cExsMFFuSlRtWVZ0SEpoM0Z1M0ZsUFhoSFFLaVNVSGtYaEYyUWQ3MkkwbyYjMTA7dGVXcm9UQ3lTYnVMb2JWbzBRSUpYdUVJOUREUnFLMTgyM2JHdGovTGJvRWU4K0RkK3ViTm01VkdDcWtZTUdBQVkzTlBCWkNzMWlzRCYjMTA7R3pMN3hGZ1ZVTmIyM0tQT0tKR1ZkdVU1emVyWWFBRDVyUXBnVXk0TldGRlB3c1EzRWNuUEdkc3NkTlU5azJ4cWt0L3kxY0RhWWh2VCYjMTA7SGk5anVCMkpqTEduSEJkRXYvNEJoQmo3cG00TjQ2MjFOUWl3UEhKTFQ4ekQxcVRINEluZ1lUcW1SV29aVDVrakU0RE45QUFlYnpyUCYjMTA7NzBjVmlaU01ndnZaK2dISm9zU3BVR0ZxZ3g0MWNwWkFDMjJUYTBOcmJtSkd2NWJiU1JCbFRYS21YUTBLYTQ1U2FaUUM2OGgxbVpFbyYjMTA7RXlJb0VaYXJ0TFJVQVN6Z0tnczBqUEFBNU05YUloWk9PMWFiWU1PTHdPZXJONjFadjg3eHdBTVAvQ21XN2hhZEZZWHJzV2JOR2xYUSYjMTA7N094c05HM2FWRTNzVjZYbCtjV2FaZHF1aU1vVHBTSjdFam1NMmkvRFQ2cUFiTWk4bGszNGtjQ3pHSXVyS2hHTUJlQTJ5MXFlREFsayYjMTA7M0oyVDdFaWd1dzNSclM1ZkUwREp0aW9lRjBSWkF0Q2lMWEQxeVM3MDZXcEhGUW5qWjJVYVBpNG1nU1BZRmg5alFZQkVTSjVqeFp3OSYjMTA7aFY3aStHUXZGUlFvS29yaHludExFWEhxU0NlcGNiSXNrVG96eWpjVHZJQk1BQmFySk1saVVVTlV6R1laUUt2bWN1dHVHT3Rwb1ZVaCYjMTA7RDdtSmhBVHlFLzZEa0ZUdXl5dWh1Y09DVkxMdXVIc3RLeXRYZFpXMk1VYjM5dEpHZXhFNWp4aVZFUTRNdHkzbmw4VnJqaVg3anZHaSYjMTA7NnZtZGdXQTNSQU5relArVzNRSmRVbElCUDFNT05hN1pyUU5UcWp4MVlrbmFUWFI0T3RNWEUxMmlYRWh5YWxXUFBRbXhqWkFrc2FUYyYjMTA7Tk1UQ1pweDRyRUhzbkFUa3RhMFdWRWpYSWZQV0NGMWkyT3hDZStiR2plMGh4bTNHWVpLeXpTVTY3TFIwWjlDazJyZFB2ekN1UHorQyYjMTA7M3UyQTljVDJwZlU2M3R4SXQyYVM5ZlY1bVNnWk9HTnVqanNaTnpmVjZKNHRxUGE1OGZFMFlQakZKbno2alpOYkRMYy9wdVBtUnpYOCYjMTA7dmlaRzE4OUdJWXNPc0U3eVJJRGtGQk95Nk83RkhRZEpmcll4UXNrb0hDdk94RU1JR1RmQ0xKMUpCZlFtU2FMMC9DY01mZHUyN1FiQSYjMTA7QWpTL1UyMGxEYkdmWWlnTXo4QnRaNUh2ZXpPMGlxaTF2M1ZUcDFxL3Y0djZva0YyQ2MrTlYxMnB5MTMxMGxnOEI3cDM3NnB5WjVrKyYjMTA7dzIvWUVISWhJODdLaWRVamh2N2o0cnNTMlVQdStsRERuQVQ4aE9NSEl6TXpSWFh0bFpONXIyY2pWbEdSN0FqQ0dUVWh3NU1BdDZSYiYjMTA7akovcjEwWHg2MG9ycW11czhMSk1Ec1pNaGxMMFpucDAvU2dYK2g0VnhmSkFEUjR0cXNOakc2bnRqaFFTU0MrMVBjRDBSOFBSNlI1OCYjMTA7MHRPR1Z1WVF0TEFOaTRxQSs1NjE0YTV4T2liUDB2SExmT2JuRlJxdjY2WmxSK0Noc3hJT0xiMTFpUkdTS1lJcUE1WW14bkI1d280MCYjMTA7RG4wVEs4V3d4V1lVQUZNY1pqaFlQMmw0TVlxTkd6ZnhWUlJIeUJncnoyUGt0LzJWT01oeWJoRTVWeHo4WnMyYXdFSHlLa3BhVlZQdCYjMTA7WExGaTVaL21OdThTNkxMYUdwU1ZicWNMa21XbkV0RzRjUmE4Q1I2NmFDRmdSb21GZkVuaFpVeGFOSmdrd0RoNER5TERnM0l6dmR4MiYjMTA7WXlnTGNQSXBKeU1oTVVFdEdmSEJsZ0I4MHJsQWx5Z0wwOGk2bnNNYUN6R3prVGxiOGZia0tINmNLNk5kMUZ4YWtva2dwTkJuRHVnVyYjMTA7eGZVWFczREtJRnFrUFlxcHBYNHNLS3VBdFU2RGkwb29LL1BhSTE0Y24yM0NoS3N6Y09XSk1icGZIU1gxUVFRME56SVlDcTYvUElaKyYjMTA7WFJsR0luNDQzUFFHVFBBbGkvTDVuU2d2czFKcFpQbU1FREp0Q1VhbzRtOHljR0hnUmhkSzV1MnlzOFRpdzZWRitQM0dqUnQzaERYWiYjMTA7YlYrTVlWOGtEbkJjNUwwczhONnpWM2VGUlhWVnRhbXlyTHpMUGZmY3ZDT2YzaVhRMWRXMXFDSFlNZytxYmR2V3lNaElZM3dMS3NzTCYjMTA7UjJSeVg0d0EyMVc4a0UybTYwcE0ycHNJN1JMdEZpVnh1UjNLMnM0NDh3eTEzcVljL25WNUZLWDFEQXZ5MERQR1FKMGVZMlM2RTMxSiYjMTA7a2p4VXNOSlNFejc1UnNkdksrZ1phRDBtTW1xNSs5OUNKZXZhV3NQOU4xcng2ck5tWEhlTEdVbDlxQ2lOR0NLeWRWUzFxWU0ydEFTKyYjMTA7U3dMSU9iNENsMThaeGJUM3pQaGtkQVNYandCZUhHdkhsZWRwU0U3a01WUXFSZ0cxUEdTUXBacStzQnJmL1VGWEk5Y2cyY3BPSlRFTCYjMTA7U09lSDh0N2NrU1dYalcxanBmSmFxVlR5dFlSUmVhQ016TW9SQ3hRUEZyZkkvWldkajQyZks3N0ozYTg5dW5jWDFGSG44N0VzNWhOcSYjMTA7cTJxWVJCcXlTNkJsSFRFNXAxU21jVTZPNnNXUzFlZ2wvelVHTitSOHpDYXA1WEtSQ05NVWVkMmJTTHdYRFJjV0x4NUFIdnJab29VOCYjMTA7Ykx1TGV0aFpCZlBadDllYlVPSTNWdW1UL29aa3V3WG41NXRKek1ScWRNeGRhc0VQczYzWXZsbFhxeUhFdkRaMXJKVWtLREhaaE81TiYjMTA7TEJqUUs0S0U0LzBvT2FzT3RXYzdFRDdlaGJyMmZvUXlOZmd5WXNqSVNrUzdSam9HOWRKeHp3MGhITk1qQWkrSmdDenNyc2M4eXBNRiYjMTA7dzJGODg3TU5MNzF2SldCMnVtUXJyaWp3b2pHSldwUktwdENreE9zZFg4QkcvZVVmOGE0eUtVTkdzVVM1WmZ0UFMveXJFajgyRG01OCYjMTA7RTNFNlhUaTZiMTlhdGxKQlZOZldwQmNWcmFldk1tU1hRSXYxU3MrWGRBakl5dlUvLy93YjZ1cjg2dTRObVk4azkxQXBkOEhheUt0YyYjMTA7VE1EYm0waG5pWXpvU0tWbFdRWkZIRWg2WkJVRnlha1pZZkJwZVFETDZwemt5Y3h6YWRHMXBnQTZwV2c0TmN1S2ZMTHdlcnJ3U1ZPQSYjMTA7TDJmSlNnYU1tVElsbUpzUXBDaGpjWmdON2lEQnN5VXhwbWFGRUV1cVlicmxSOFN0TTFaRGtibDZuNTkxY01IbTlQSTc4Vkprc3pwaiYjMTA7TTkxeFdLdmpPUkx4OGh0MjNQdDBDQnZYa1ptenZCYzJ0bUJZaXF5bUllUGxkU3lwMEN1S05MUnFXNnRLcWFKc040VTBSUllOTU9heSYjMTA7QzBzL2NLQkYvdk40d1VDOGFwaEc4dHVjM3hwKzUzZGExTUkwMk1rMFMyR3NJc3AvU3JkdTNSOHNLdHFndEZIR2RWZXRXZzE1M2xXeiYjMTA7WnMyUWxaV3RTRm04OEhGaUlCZUxhOWR1aGQ1QWpnbkxJL0xwRFZ3dXNtdHFmVlptRnNuV1dxeGR2eEhWVkFCU0duUlBGTkpGeHUyeSYjMTA7d0VWUDBzVHJRV0Z0Rk90cWdxZ0xtN0JpQStDcjBKR2ZDNlNrMDJYR1pEbEltU2hBdEFoY2lHWG5vWEN3OFdYV2tDeW1MZ012N2pDOSYjMTA7RWtHRk9RSzViVmJONFpYVmg4MVJoRm1IU2g1N3djVmhmRGJEeXZqTU5pSVhHTkU0aW50YWVWR1FMRjIwOUN3eVhNaTZpdlhJMUIxZCYjMTA7QnRucEVXcVlmbjFTSE1HR2dDZ3pQY1l4L2RXRFp1UnhGRWI5LzIyQkJ5THFISElhRnQxWVlLNFdwNTl4TnI3ODhsc0N6YUtRRUxadCYjMTA7MHlyVXFWT0hqeDkvNG1rR3V0MEF6Zng1OUlnUkl4L2N0R216c2pwZlhSMks1QWE4MytkancvcjFTRTVLSkZ1V0orb1pHaXJnN1VzRiYjMTA7WkVCZVpscklya0lhNUJpWmR1dDJ1YWxFVGZIMTl6OGdXS1ZqZytTRnlURmFzQk4yNVVxakJEMk1MRmNVbTBpUzF2bk10TW9ZaXJacSYjMTA7bUw4YTJGN0MvRFhKalBSMDV0RFN0K0dSRUdITU5CVlFIUFFPQVZPSXVUTXRtbkhkN09SK1BGZU5uL2t4dlVKRmVRd0xscGp3OHJ0bSYjMTA7M1BXSUdldkxXQit6SFRtTXlWZmxKK0RPNW9rb0lNblRDS2FzWTJhVzNoUVN3Wmc5U09EZGFwNVl5SzZqcUZiRHBHMW1sQWhMcDhLTiYjMTA7K3VkRmFObWlLWWtjNHpUYlNVaWhDRnRBdmU1S2pIWVV6MG51UTg5a2pCSXlURXJGS0hJR0dUS1dFY0IxUlp2dzVsc2Y0T0pMcjJJcSYjMTA7VjgxMk1xdVZvanAyN0ZEVnJrM0wxeE9Ta3o3OTVaZDV0WExjSHRHNTlacXI5WThtVDhIVzdTVmtvUElnYmF0NjlGRjJkaGJhdEcyRiYjMTA7SVNjT3hzQ0IvWkdZNkNIZzFIUmFrWUczd0dpSXhIU3hkaVVDY29NcXhvRTJPdnlOV2FUM1BUZ0duMzR5bGZHbEhzTVRJbmlnUnhvNiYjMTA7SjNBLzBEM1QwbVRZZjZyUGduR0Y5Zmg5TzEwL2p6ZVR1S1Y1TGNoT0R5TXRoWTNqb0tzbDBGbHBKc1pzMEJzQWJvWWFtUkpjV1J2RCYjMTA7dW1LNldCK3RtZndxRUxhZ1NhNk9MUVJuOFdwYUpJa2dSREdZZi9kS00rUEc1akttVFg4ZHJWTWRMekdtZkdieUFla21WUmtXLzlCRiYjMTA7c2w2c1A5M0daMXVyY05jcURadGxTSTdlYU83Y0dTaG9rcnVqL2dLMGdMR2pjZjVMRERpazAxV3lFbW1mS0FHMXk3T3VKYXRoYUpMUSYjMTA7S1E5TS9lYWJIekJ4d21Tc1diZWU1OWZodEptUm01dUREbTNiYjJqYUxQODVwOVg1eVNOUFA3MVZuWkN5UjZCRjNubnpUZjJOOTk1biYjMTA7b2VjaUhQQTNmQ3UzdUxqUXFIRTJPblZxcDI3cU9uN3djYW83VTBRS0tOMmM0a2JpVTRHRmhNWGQvTzVrS3l0d3prWFhZRFVMbjZ4RiYjMTA7Y0dtTFJGeWI1MEFUSzlNZ3VrSWIzV2lRTHJxd0JwaTR4WTlQU25Wc1l1TkxaN21WNTdZTG1hSWx5bFBtSGJSWUI2Mk1BWnhsa0locSYjMTA7UmRCUDkrelg0YVA3bFdVZVpkMXVYUXZTYTdCQnBYbjVYZjhNRTY3TU1xRlBlaTV5N2RKMUdvWlgxam1SWVZHWmpHaGlXcWtIRUpiUiYjMTA7TW9ZZFc4eUxFQk42SzBuYVk4c2plTElvQmgrVjNrdjJ2bkh6YWdUcmZTb0ZsUnZYNWZaVzhYNjdBem9lZjBVWEZOeHNON0ZrOVdRQiYjMTA7ZmxkYlY0TVBQNWhJZ0wvQStxTE5xa2RNanBIYlpBZjA2UjVyMWFiMXJKU01ySnVycXVvTG4zNzY2VC9kVWJoWG9IZVdxNjY2U3A4KyYjMTA7ZlRyV01aNHFMZVhSYnJjVE9XVG1SeC9kRzJlZGVTcDY5K3JGUnFFRnNxRHlLclJmM2F3dDduM1gzRytIMk9uYVgvM29Venc5N25sVSYjMTA7RkpjZ20renBpaVllWEp6blJMYUVWU0ZlZEdsUnpVWDNhRUloUThyOHFoQVcrcXpZUURlOGlkcnZpMHI2WnBBaWFUZjZHVjZiYitUUyYjMTA7L0U1bURlZDY3R2pxdENLREZqbGhjNFFxWUVPL1pBdnVhV2xCdnl3dkc1V05XMStHZ011TFpCNm8yZWl5V1JkNXhKS1ZsaVhqNExReiYjMTA7S2hUWk9jdmtNTHV3aU9XNGJibUduNnBJQW1uTnc0WWVpL2ZlZjBPVjEzaENFSldjU2ljM0t4bzM5ZXhDR29DV3YvRkpDem92SWsraCYjMTA7ZmVPTnQvSGM4NitnckxSS2VRWHhoR0w1ZlkvdWdiNTllMm1PZ0NWbDlIUFBLVGU5Sy9sTFFPOHNwNTkrdWdLOXVsb1dmemNoSWNHTCYjMTA7RnMyYm9rUEhEamhwMkJBTUdOQ1gya3NTd0MwYUUvSkZpNmJsN0Vta002YWtwaHJQUHZreXZwZzRCZVdWNWNqeldIQmFsZ01YNXJuUiYjMTA7bGpGVFo3eFdGaXhUZ3hrcmEwSm1iQ001cXlLNFBuTVlZWjFwVk1SQ3QyeUZQMnBGZ05jTTBwcENiR0Rwbkd6dVpDN01VSk5HMEZ4UiYjMTA7UHp3T056TG82cTBSUDkweVhUZUprOHhraTlnOXNKSmNSV254Smw3THhuUElJbmN4RzYyVGRiR0ZtVHJScW9QTXV1ZFg2bmhrVFJqVCYjMTA7eXhuSFdUNVphTy9qajk1R2o1NmQxWktTOFV4RExGV3g4TjAwT3gwaFFaU2hYN0YrRXpadjNZYkhIbnNTWDA3NW10OVJBZFNqTThSYiYjMTA7dUpDVm5vcWpldlZhMVRnMzR6VlhRdVl6TzgvNDNKWHNOOUJ4T2VtazRmb1BQL3lnckZlQUZXSlZVTkFFYmR1MXdRa25ISU5UUnNvUyYjMTA7eUVFRjR0NkFwc0hSQTVpd2RtTXhIbjkwUEdaTW5ZYWF1aUN5NkJxSFpaQVlOZmVnWTdLc3hVM0xaaHlWNkMxOFVqeEZ6Q1JraFhXbCYjMTA7OVlyTlJCaVRpYjBpMWRMUXFrZWFqWmpFZUcyMWkzZVJualdKcnpGRXBOdFNYRHhqdHBDd21JbmdLcWJNTTFzSUxDMUxKdVZMUzhwNyYjMTA7aDhuTzl5SFVrTjFOMkJ6QXExdDhXRkpMNG1TaEJ5TW51ZXlLQzNIWFhiZVFMekRMSUdEU1Q2N3NsR1ZUWEVaOTNwVndIL21keW1GaCYjMTA7V0xubDFydnc3bnNUK0wzUmQrSHhPQ1htNjQwYk5kclVybTJMYVNtSnljL0VMSzdsZXdOWjVJQ0Jqa3VmUG4zMXVYTi81VHREWDBXciYjMTA7TzNmdWdOdHV2eEY5ZXZkZzRjV0o3cExrN3hBek5WWmpYaHR6YUZpMWJCM2VmL2xUZlBuTlZGVFVsU0NGeWp3b3c4YVk3VUtmQkRNdCYjMTA7aFczQ3hrQkUrbmNKZ2lzSWpSbUNWVGRHMkdTS0RaSGtKdmtyTjFFSUVxMFFBbkRwYkRpYWlJQWRzL0Y3MFE5TnVuSzVPd3V2anFXNyYjMTA7VnRPQ2RLZHFaSk1lUk5CQ3owUmlaQXRZVWV4THdFTnJOMkpTamJCM1dScUU1MHZRY01Pb1Viams0b3VRUm9zenJGZk9hVFJ6UEFidiYjMTA7WHJpZkVEYVd4T0gwNE5UVHo4T01HYjhxQmUzUnBST2FOTXZibEpLVTlIcHlSdW9QTmx0MHhlalJ1M2ZWL3lsN2J2bS9JRnUyYkI3TiYjMTA7ZW93Ky92Z1RIaXdwMmE0bWx3ZElGdkp5YzlIbnFONVVWRmE2b2NLN0V5RnNFWjdFUkNMV0tEVU56VnUyb3N1dHgrWnRtMURPMUtXWSYjMTA7Y1hncEc3WWlwQ1BiYTBPU1I1b2t3aFJXOG5sdXFoMWxHTlpRTnJtZTJ0UTV1UW1BRWxobEUrQ3BXT2FJeEVJeWNmRUVUSi9NMHNmTyYjMTA7V0c4SzB3ZVk1Q20xTERkQmxwbXJOcG1xRkU3RWl4dTI0WXhsbFpoWEwyUHpNZ2RjUTBwMkFoNS9ZaXd1Ty90Y3VPbGFxV3FxREg5TiYjMTA7eExQd2hlVVVFdmJhRysrZ3VMaVVqTnFLWHIyNkxtN1ZMcWVISnlGbjVwZ3hqMjJhTld1ZWRQbnZzOUF1RHE1OC8vMVVrOHhka3NhVyYjMTA7bTdObE5FVTFQRjNhM2lRRVB3bVpCa2ZFd3dhMklhZGRNcTY4OGt4Y2ZNcVp5RXZQUkYxWXg1emFLRjRxRG1IY0doOFdsSkhGV3VtVyYjMTA7TFhMYnJUeFYzZ21UUEs2UU1WeFlOWGs0d1NlenBxdWxGcW5HdDZvWkxRSStRNGxrQWphR0hLdFFLN3BkY2VXTVB4R1hDeUczUng2TiYjMTA7aFhxR25SS1dhWFdOR2M5dENhSEo3RTI0cnRDRFdzWnpUYlBCUlZEN0RPdUQxOTU5RnFlZmRDSTA2ZmR2NkE3OTY5Smc4WHlSZDdMUyYjMTA7dm1RcW9xejVlVTFpbzBlLzZLT2JscGp5bCtXZ0F5MFNpY2hkbHpxU2tqeHFDcEtBSUxGSmJXeCsrVTAyY1ZQeVdUYjFubFZRYVpqMCYjMTA7YmtrdXljOU5jdkp4d1lYL3dNaVRqMFdqakZSbHE1dEpWcjRvRFdQeTVoQTIrTVNDblRSUzdtK1RvVVFDenpSR1BWM2VJajVadnBNTSYjMTA7Z1kxUEs0bnhPalVzMzJaZkFFdHFRc2FkSTdUNElIV3poS25Ya3VvWXBwZUVNWW14OStWMWRYaHlqUm1qNWtUUmY0NFBONjhJb054UCYjMTA7QmRhb2tENm1ZdDE3NE03YmI4WXo0NTlBbjY3ZFlJdEt1WVhNTlFEMkY4VTRpbTFEUlJFM0wxT0dsYkRzYnJmUlliSy9zcitxdDFzNSYjMTA7ODh5ejlJa1RQNFhMWmNPZ1FYM3grcXN2TW84VTdSZStJR0FUMW9aOFdxVmNEU1VRQU9uZFZkNnRnRmVLSVVTS2Rzazg5S2RaUCtQeCYjMTA7eDhmajkvbUxHY2ZOYXE1WnZ0T0VycWxXNUJGckR3RnNsV0JGejJRZGJoSW9QV0pHYlVqRGRpckxSalpZRVhQZVVvSXBsQ3BFUUFJUiYjMTA7SGZWRXVWMmlnL3VGVVVQeVZzdnJsVE11bHdVMTFJWTFOUWtoS0dtTTZBaERneHFoWmZtNmR1dUtVODhlZ3VPTzdvOW1lVTNvTlhnZyYjMTA7SFJacndEOHN2U1M5K3lISzJmTjQ4VVh5OE5UK3g1eUVqUnVLa1VZQ2V2MDFseTI4Zit5NDdnMjcvbVU1NkVCblpEVFNwVjg4SXlNWiYjMTA7TjkxNE5TNjc5QUpseWVvbWNZbVhnbXdjWFZZdFRsRGtlek1ac2VUbjB0a2lsbTJJN0d0V2FkeVhYMytIdDE1L0QydFdyS2VOTW0waCYjMTA7eTdVd0Y3WXh2am8xQzNMSTBKb25nSGt0NHk0QjloTk1HaWpLZWYzdGtUQ3FHZFZNdW8zWGtuak5kSXNLSTVsQ2hNQ0xKMmhvYXNaOCYjMTA7Q1RzTXgzVGRvbndlaHdjdDI3YkNzY2NlalpFbkhZdkdUZE9SYVU5SGdPV00yU1EwVURtWmlqbGxhSlBwbU53ZXROdGNlVS9DaTRzMyYjMTA7RUU2eFpmTjJuSHpxdWVRK3BXalJwREhPTysvTUJhTWZlZXBQMDRQK2lzUmIvS0NKMWVwa2kybG8zNzQxM24vdmRUVEtUak1zZUNkQSYjMTA7NWFMcWsvR1ZFcW1nckh3WGthNCtTbnloZDJPYUxCdWZ3RmRXVnVDbm4rYmcwd2xUTUhmK1FxWmVOZHlIcmxJYWlQdkliQkF6RzFsUyYjMTA7S1UxUmFYN0pIeVdaY2xqdFNFOUpSV0ttUE1FK0VVbk0rNzJNdzE5Lyt6M0xiSU9kT2JHVm9NbU4vWGxOODlHOFdRRjZkV3FQTGgxYSYjMTA7SVM4L0c5N0VSSVNZdDBmb0JWeU0rejVMQU5RcFhpdUtLTFhDeXUrbFd6Uk1RcWM4MG42STBSeWliRHFXTDF1RGN5OFloVzNieXRHNSYjMTA7WFV0OTVQRGpmMzNvWDgvMlU3dnNoeHhVb1B2MTc2Ly8rc3NjdFFqcHlGTk93dE5QUDRwWTJLOWN0SkF5dVJ0REFjMU5MRmxoMlZBRSYjMTA7K1N6OXh2S3NSZm5Pc0hSalg5V3hUd3VVL2VWUkF5dVdyOFdLWllYcUVVM2JTa3JnRDRRUTRybkRaUG5STU4rSHd6eVBCUW5KWHFReSYjMTA7emNuT3pFSUd5VnhxYWdvY0NUWjRDS2FYK2I2YnFaSU0xR1JsWnlFdkwwL2RjaXFQRjVMT0hWV2UrS2pUUVJTcGo0aWMzMmlEZjdlSCYjMTA7L0RPQXRtRGE5Tm00NGFZN1VicTlEUDJQNmhFZTBPL28xOGMrT2Y0YWRmQit5RUVGT2lrNVNhK3JyVVYra3p5MU92RHBwdzNqQll6eCYjMTA7VWpXcGtKV1JIaUtwanN5NFVCWGxaMVY1dnRmRXBmSzkzS0FteTFPcGJsYXB1UHBaS0pWMGhaaklrQTNYWEZWZGd3cTUvWmJ4TjBxbSYjMTA7SHlMSkNzVG9ueHV1NDNHN2tFb3JUa3RKUTZJM1FWbXVyTzZ2dkFYM1VmbFl3OWk2UVJhbFpBS0dlamtrRW1mUnFzK2JJdGVNZnlkbyYjMTA7U0grNGpSemovUThtNEtHeFQ2Q3FvaHJIOVQrNnBuZWY3c1BIUHY3c2JIWFFmc2hCclJMWm9uaFJ0R2paQWc4OWRBOTY5ZXlDMU9RayYjMTA7VmtMVy9xUW5KWnY1ZDhYNG1WWXVuK3ZyZmFpcjh5bkFKS1dRR0I4TUJaR2JrNE1tQlhtUW1TalNMckwwbFBUeHFnWmg4SlRKOFRJSiYjMTA7UWxoempQL01hdkNDNStWZjhkejhRZDVSd2VSYlhsdU9rd245SkY3eVdaUlBwa1Vad3Urb2FPcWRlakVzNjJETER1dHQyT1N6aENWNSYjMTA7TmZyZWhJeFo4T1JUeitHNUYxNVg2NitkZXZLUTh0d21yWEtmZSs2NXY1UTc3eXpTQWdkRmJyLzlkdjJKSjU5U1FJaUw3TmV2RHhvMyYjMTA7eWtBeVhhRTh3TlJDTFRYYnBXTkQwZ1o1TkhFUVlSSTBzZDU2bnp5Q3J4NEJmMUN0YXlaZXdWZGZyNEMrN3ZxcjBLNWRLMTdCc0dZaCYjMTA7VUpKK3lSeG1GWDlKaEFSYVJrcStCMnlNMHdvb3ZtK0FUVnFYdXhvS3BycGlGZmxpVEJVdkkzM25zcGVCN3A5bFA5bnpuaVFPYm55VCYjMTA7ejFJdTVmVVk2OFhTcGJQa3Jyc2Z3SHNmZnFxbVhKODJja1RacEMrbVpEYWNZci9rb0FIOXpQaG45RHZ2dmdzaGdxVzYzZ21DTEFvbiYjMTA7SFNWZXIwUGR4aU5rUzYzelJZQmxLcEgwbkFud0l1b09RZW1ZcG9nN1Y1WkwrZGNUanpCbEc4bDB6UmlFbC9GdE5ZK2N2eG5nQ05nRSYjMTA7UkN4Y1BoTWNPVjdDZ0p4QmNsSmpYMUVNNlFnVlVZbVFFcGs5cVJwZDdSVjNwK3FGM3h1dkIxUGlDcld6NnhaUm4zbEI0U0JldHhkWCYjMTA7WDNzakpudzZSZDNBZVBwcEo1Vk9tUGhsbHRweFArV2dxZXlOTjl4b0duWGxsV3Ixd1pTVUZLT3g2Vm9seC9UUkxaZVhsbUZiOFhZMSYjMTA7cVYyZUJlR25Ra2piaThISk10RnVsd2ZwNmVsa3U4M2g4WGpWY2hsUzhaS1NiY3JDalhSSXZoSXc0MkFZU0FoUjA4UTZSRUdJcEdMYyYjMTA7eWdWU0lVUmh1TWxoQWliZjdRQlpSQnBZTVh0K0gxY2MrYXdtM2g4QzJkbWFaU2hTM0haZFhSMEtDd3N4Wjg1dm1EWnRCaVpPL0F4ciYjMTA7Q3RjcGJ5ZUdJR05uRFlmdnR4d0NuVDF3NmRHOXA3NTh4WExJUFY1WFhIRXhydnpuSlNvTWlCeHNBTVRTLzN4T1pmL0cyejJJeEhlWiYjMTA7dG16RVZ6bVB1R0Rpd2ZlU3FvbkhzcWtKOVNaWTdRN1Z5eVhQbEZ5elpnUFdyOStJZGV1S3NHblRKbFJYVjNQZmtMbzFXYVkvUzhZZyYjMTA7OTdQVnlpSjdNdmJOODE1K3lZWHJYM25ybldZTmw5NHZPU0tCdnVpaWkvWEprejhuTWF2QkJSZWNqZXV2RzRVbVRYSlVZeG91OXRCTCYjMTA7UEg3dVRzVEZ5dE5vWmM2YlRLd3dwajZEbnNpaXZyUGJISHlONGROSm4rUFZWOThrc0J1VkZ4TWVZU2lGY1I0NVJyaUdrVm9aS2hhdiYjMTA7b2N0aFJ3RXptSk5IakhqL3NhZWV1YURoNi8yU3c5TnEreUdabWRsNldkbDJqQmcrQkxmZGVqM2F0RzNSRUxjUGZaRUZaSkU5QWEzYyYjMTA7UFgrWFhEcyt2OTNvMWFPSFlOU1JzZmZwMDM3QlJSZU80dDdHN3hMRzNFNmI2a0dUaFFNWW5pVGlhQWxlZDlTYjRQTFpuTzd0REdFMSYjMTA7SHFjcjZuQTRvazZuelorVm1mbUwzWlB5N09qUm8vODlqMnMvNUlnRnVtblQ1dnFHRFVWMDQ1MHhkc3o5Nk5hdG8rRWFEMUdSZHdZMSYjMTA7RHZTZVJQWVIxeHFmenk0RTA0ajNCbGVZL2NzOFhIelJLUGhxQTNBNTNjalB6MEZHUmtyWTYzVVhlUnlPdVJrWm1TV1oyWmxoS2ttVSYjMTA7OVFwcTBjZ1dXdmI4eHBXKzlmOTg5VlVaL2p1b2NzUUMzYmx6TjMzeDRrWEl6a3JEQ3krTXd6RUQreXJyK2F0aXVIcUN5SmNHSHE3KyYjMTA7N2NGWWQ0QytMNENMQmF1QkdIV01zZitDUlN0eDdiVTNZWU04VEozbmFOK21sY3pyK2o0NUplRnBxOWxTaW5xOTZNRm54dGVJVHFnRCYjMTA7RG9NY3NVRDM2ZE5mbnpObk50MmNGYSs4UEI3RGhoM1B4dHlaTCsrYnFJbDBQRTVBbHJSTU9sbGs4RVJTdFoxbDUzUW52dTBSYURKNyYjMTA7MWEwYk5YclVoQjA3SEU0VUZSWGg0a3V1dzZyVmhTclU1T1ZrNHB5enp2ak5hYmVkTi9xeFo0b2FqajdzY21oeWlJTWcwdWxpazV2ZyYjMTA7U1hyS3lpc1FETlNyd2hyMktPWXBHNy9nMXZBTmdaRS9CSkM1VkJ3aklUbXltN0JrVGJOZ1cwazVmdnR0QVNaTStBSjMzZlVRempubiYjMTA7WWhTUkJhOWNLWDNuVzhuMEl3MEEvOXZZNUtOeEZyNks1ZklMQVZaaXN0d29JRW9pVmwxWXVKYVdmQ3RXckZ3dE9SK3lNOUsxYzg0NSYjMTA7WjVwVHQ1LzBkNElzMHRBY1I2YWtaalRTS3l2TGNOVS9MOENWbDhuek1mUFlmZ0szTkhxODZOS1ZLYTc0djYxVzdrZVM3K1dtd1pMUyYjMTA7Y216ZHVoMUxsaXpEenovUHhoK0xsZ2dXek0xTlNNdE1SeWtWb0hXcmxoaCswaEM2MlI0NHVrOXY1UTNVOUZ5WmNVcCtJS21VM0FqQSYjMTA7aTFDZlRKQUZmSFFaUGFQU1NkbzArcUYvWWVhTVg1a2VoZENzSUE5RGhneWVrWnllZE5IWXNlTjJMTDc2ZDhrUkRYVFQ1aTBWSVR0MiYjMTA7VUIvY2Mvc042TksxRThJa1FOTG84ZWRuR1IwS0JnT1d6ekc2eTVLU1VtV2RHOVp2WWc1cng5S2xTekZuemx3VXJpbFNOOWdKWTVadSYjMTA7UnBrZytKOGlReWNGVGZJeDhKait1T2FhUzlDc2FRRWlVWElqNGl1QXhoL1NKcmNKeVhsTVpodFRwdzBZTS9ZSmZQL0RkS1pVVVRRbCYjMTA7OFJveTlQaFZ5VzczcVkrT2UzNVZ3Nm4vVmptaWdlN2FwWnUrZE5saTVPVTF3dU9QUG96amp1dUhtQXhiaWZ1VW9rdERFMlM1UjNyMyYjMTA7VnNzOTZHckYvWnAyNnJ1T2FIS0xoeUdwS1VsNlhZM2NGYzN2cFVzVXhseTN0dTJiNHBhYnJzV0lFY09WWnhERmtHbk5MdW5PTlVVUSYjMTA7Q0drb0xhL0YvZmVQeFZkZmZhdXNQenNyQXllZE9EalVLRE9yMCtqSHhoV3FreDRCY2tRRDNiRkRlMzNGaWhVRVNjZkREejJJYy81eCYjMTA7T3R4ZVdkUFRoSnJhV2pWV1cxRlJwYnBWZDJlMUVxOVRVbEtabDJkeW55VzdyZSs5ZDk3NFlwMnZMbVhLTjkvMTNsWmMwU1FTalptRiYjMTA7NWN2dExxZWZOaEpYWFhVRjhuS3o2SzdwT1hoTzhTU1ZsVDdjOThCaitIenkxOVE1V1hUVml5RW5EQ3JQeWM0NTRmRnh6LzNCMDRwRyYjMTA7SGhGeVJBUGRxMGQzZlhWaG9SckNISFRzSUZ4d3dUbnFPZGJsRlpWWXUyWXRGaTc4UXoxU2QvT1dyVHVzVmh5NTE1dEFVUExSc21WciYjMTA7NU9YbjR0bG5uOTduZWo3d3dBUE9oUXZuUGpOcjJrL3RHWTc3eVNpYlJPTGMvTVk0Kyt6VDBhOWZielJybG85WXhJeUhIMzRNazcvNCYjMTA7Um9XTnpJdzBERGk2MTRybUxacGR1M1pEeVU4VEowNDg0UDdwZ3lsSE5OQWkzYnAxMFpjc1dReDVTbnpidG0yWXprU3dybWk5c3RwNCYjMTA7L2lva0tXNjFqUnBsRWVCV3pMMWZPSkM2bVVhTU9LRjU0YW8xbDRmOGdWRmJ0NWVtU0tlY2JOTHgwYTU5RzBUQ0dxWk5uNjdHMkZOVCYjMTA7VTlHN1YvZjVIZHEyZnFBK3FFODdrSEhqUXlWSFBOQ1hYMzY1L3NuSEg4SG5wenVXZnlxMTBkU3daMXBhbWxvRExTOHZGKzNhdGNmWSYjMTA7c1dNUGFuM09PT01NVjhXMlRhMHFLaXV2S0M0cEcxVlZVMnNUc0NXelUxTnltWXZMU2cxSDllaXh1bDNiTnZlMkNrVy9PQlM5V3YrLyYjMTA7a1E0ZDJrd2p3TlA0ZHNlV201c3JyNGROYnJuK3lnN0hEamo2dTZRRWQ2M1RZWTNhckZZOU9kR3JEVDEyNFBZN2I3LzUxb2JkamxnNSYjMTA7NGkzNlNKTkhIN3EzODlxMTZ5N2JzblZMWGxaR21qOC9yOG5FTVUrTS83emg1eU5VZ1A4UFZzTE9SVDNYSVN3QUFBQUFTVVZPUks1QyYjMTA7WUlJPSIgcHJlc2VydmVBc3BlY3RSYXRpbz0ibm9uZSIgaGVpZ2h0PSIxMTQiIHdpZHRoPSIxMjIiLz4KICA8L2c+Cjwvc3ZnPg==;html=1;whiteSpace=wrap;labelPosition=center;align=center;movable=1;resizable=1;rotatable=1;deletable=1;editable=1;connectable=1;" parent="101" vertex="1">
                    <mxGeometry x="273.8623389452455" y="267.143367526679" width="60.28237054927702" height="56.32798764152562" as="geometry"/>
                </mxCell>
                <mxCell id="98" value="Fastify" style="shape=image;verticalLabelPosition=top;labelBackgroundColor=none;verticalAlign=bottom;aspect=fixed;imageAspect=0;image=data:image/svg+xml,PHN2ZyB4bWxuczp4bGluaz0iaHR0cDovL3d3dy53My5vcmcvMTk5OS94bGluayIgeG1sbnM9Imh0dHA6Ly93d3cudzMub3JnLzIwMDAvc3ZnIiBwcmVzZXJ2ZUFzcGVjdFJhdGlvPSJ4TWlkWU1pZCIgdmVyc2lvbj0iMS4xIiB2aWV3Qm94PSIwIDAgMjU2IDE2NC4xNzk4MDk1NzAzMTI1IiBoZWlnaHQ9IjE2NC4xNzk4MDk1NzAzMTI1IiB3aWR0aD0iMjU2Ij4KICAgIDxnPgogICAgICAgIDxwYXRoIGZpbGwtcnVsZT0ibm9uemVybyIgZmlsbD0iIzAwMDAwMCIgZD0iTTI0Ny45NDIzOTQsMjMuMzEzNjc1IEwyNTYsMi40NDM5NzM4IEwyNTUuNjQ5NjY5LDEuMTUxMDg2NjQgTDE3NS45MzI3NDksMjIuMTU0MjQ3MiBDMTg0LjQzMjQzOSw5Ljg1OTMwNzI5IDE4MS41MTMwMTcsMCAxODEuNTEzMDE3LDAgQzE4MS41MTMwMTcsMCAxNTYuMDU1NjUxLDE2LjI1NzAxMzUgMTM2LjgwNDE0NSwxNS44MzE2MTE5IEMxMTcuNTUyNjM4LDE1LjQwNjIxMDMgMTExLjM0Njc3OSwxMC4yNjgwMjY1IDgxLjgyNzI0NTgsMTkuNjg1MjQ5NyBDNTIuMzA3NzEyNCwyOS4wOTQxMzE4IDQzLjk2NjUwNDgsNTcuOTc5NzMzNSAzNS40MDg0MjU5LDY0LjE4NTU5MTkgQzI2Ljg1MDM0Nyw3MC4zOTE0NTAzIDAsOTAuNjAyMTk2MSAwLDkwLjYwMjE5NjEgTDAuMDU4Mzg4NDUyNiw5MC45NjA4NjggTDI0LjI2NDU3MjcsODMuMjUzNTkyMyBDMjQuMjY0NTcyNyw4My4yNTM1OTIzIDE3LjYyNDk3MTUsODkuNTA5NDk3OSAzLjUxOTk4OTU3LDEwOC41MTkxMSBDMy41MTk5ODk1NywxMDguNTE5MTEgMy4yNzgwOTQ1NiwxMDguMjkzODk3IDIuODYxMDM0MTgsMTA3LjkxMDIwMiBMMi44ODYwNTc4LDEwOC4wNDM2NjEgQzIuODg2MDU3OCwxMDguMDQzNjYxIDE0LjIyMTc1ODgsMTI1LjM2ODM0OSAyNS4zNDg5Mjk3LDEyMi4xNjUzMjUgQzI2LjQ2NjY1MTUsMTIxLjg0MDAxOCAyNy43MjYxNzM4LDEyMS4zMDYxODEgMjkuMTAyNDczLDEyMC42MDU1MiBDMzMuNTgxNzAxNSwxMjMuMDk5NTQxIDM5LjQyODg4NzksMTI1LjU1MTg1NiA0NS44ODQ5ODI2LDEyNi4yMjc0OTMgQzQ1Ljg4NDk4MjYsMTI2LjIyNzQ5MyA0MS41MTQxODk4LDEyMS4xNDc2OTggMzcuODY5MDgyMSwxMTUuMzY3MjQxIEMzOC44NTMzNDQ2LDExNC43MzMzMDkgMzkuODYyNjMwNywxMTQuMDc0MzU0IDQwLjg4ODU5OTMsMTEzLjQwNzA1NyBMNDAuNDEzMTUwNCwxMTMuNzQwNzA2IEw0OS42MzAxODQ3LDExNy4xMjcyMzYgTDQ4LjYxMjU1NzQsMTA4LjQ2MDcyMSBDNDguNjQ1OTIyMywxMDguNDQ0MDM5IDQ4LjY3MDk0NTksMTA4LjQxOTAxNSA0OC43MDQzMTA3LDEwOC40MDIzMzMgTDU3Ljc2Mjg2MjEsMTExLjczMDQ3NSBMNTYuNjM2Nzk5MSwxMDMuODQ4MDM0IEM1Ny43ODc4ODU3LDEwMy4yNDc0NjcgNTguOTMwNjMxMSwxMDIuNjgwMjY1IDYwLjA3MzM3NjYsMTAyLjE1NDc2OCBMNjkuNTE1NjIzNSw2Ni40Mzc3MTc5IEwxMDguNTYwODE2LDM5LjgwNDI0MjMgTDEwNS40NTc4ODcsNDcuNjExNjEyNSBDOTcuNTQyMDgwNyw2Ny4wNzk5OTA5IDgyLjY3ODA0ODksNzEuNjc1OTk2MiA4Mi42NzgwNDg5LDcxLjY3NTk5NjIgTDc2LjQ3MjE5MDUsNzQuMDI4MjE2NyBDNzEuODU5NTAyOCw3OS40ODMzNjY1IDY5LjkxNjAwMTQsODAuODI2MzAwOSA2OC4zMzExNzIsOTkuMTM1MjUxNCBDNzIuMDUxMzUwNiw5OC4yMDEwMzYxIDc1LjYwNDcwNSw5Ny45NzU4MjM1IDc4LjgyNDQxMTEsOTguODQzMzA5MSBDOTUuNTA2ODI2MSwxMDMuMzM5MjIgMTAxLjI4NzI4MywxMjMuNDQxNTMgOTYuNzkxMzcyMSwxMjkuMDA1MTE2IEM5NS42NjUzMDksMTMwLjM5ODA5NyA5Mi45ODc3ODE0LDEzMi43NzUzNDEgODkuNjA5NTkyNCwxMzUuNTY5NjQ2IEw4Mi44MzY1MzE5LDEzNS41Njk2NDYgTDgyLjc0NDc3ODYsMTQxLjA1ODE2IEM4Mi41MTEyMjQ4LDE0MS4yNDE2NjcgODIuMjc3NjcxLDE0MS40MTY4MzIgODIuMDUyNDU4NCwxNDEuNjAwMzM5IEw3NS4xNjI2MjEsMTQxLjYwMDMzOSBMNzUuMDc5MjA4OSwxNDYuOTU1Mzk0IEM3NC40NzAzMDA3LDE0Ny40MjI1MDIgNzMuODYxMzkyNiwxNDcuODcyOTI3IDczLjI3NzUwODEsMTQ4LjMxNTAxMSBDNjYuODA0NzMxLDE0OC40NDg0NyA1OC42MDUzMjQsMTQyLjgwMTQ3MyA1OC42MDUzMjQsMTQyLjgwMTQ3MyBDNTguNjA1MzI0LDE0Ny45Mzk2NTcgNjIuODg0MzYzNSwxNTUuODQ3MTIxIDYyLjg4NDM2MzUsMTU1Ljg0NzEyMSBDNjIuODg0MzYzNSwxNTUuODQ3MTIxIDYzLjE2Nzk2NDUsMTU1LjcxMzY2MiA2My42NDM0MTM0LDE1NS40ODAxMDggQzYzLjIyNjM1MywxNTUuNzg4NzMzIDYyLjk5Mjc5OTIsMTU1Ljk1NTU1NyA2Mi45OTI3OTkyLDE1NS45NTU1NTcgQzYyLjk5Mjc5OTIsMTU1Ljk1NTU1NyA4MC4zMTc0ODcyLDE2Ny41MDgxMjkgOTEuMjI3Nzg2NiwxNjMuMjI5MDkgQzEwMC45Mjg2MTEsMTU5LjQyNTQ5OSAxMjYuMDQzOTg3LDEzOS42MjM0NzMgMTQ3LjcyMjc4NSwxMzAuMjQ3OTU1IEwyMTMuMzI2MzgyLDExMi45NjQ5NzMgTDIyMS45NzYyMTUsOTAuNTUyMTQ4OCBMMTcxLjk3OTAxNywxMDMuNzIyOTE2IEwxNzEuOTc5MDE3LDgzLjU5NTU4MTggTDIzMC42NDI3MjksNjguMTM5MzI0MiBMMjM5LjI5MjU2MSw0NS43MjY0OTk2IEwxNzEuOTk1Njk5LDYzLjQ1OTkwNjggTDE3MS45OTU2OTksNDMuMzI0MjMxOSBMMjQ3Ljk0MjM5NCwyMy4zMTM2NzUgWiIvPgogICAgPC9nPgo8L3N2Zz4=;html=1;whiteSpace=wrap;labelPosition=center;align=center;" parent="101" vertex="1">
                    <mxGeometry x="663.59" y="264.96999999999997" width="75.78" height="48.55" as="geometry"/>
                </mxCell>
            </root>
        </mxGraphModel>
    </diagram>
</mxfile>